  0
SECTION
  2
HEADER
  9
$ACADVER
  1
AC1009
  9
$EXTMIN
 10
0.0
 20
0.0
 30
0.0
  9
$EXTMAX
 10
1000.0
 20
1000.0
 30
0.0
  9
$FILLMODE
 70
 0
  9
$SPLFRAME
 70
 1
  0
ENDSEC
  0
SECTION
  2
TABLES
  0
TABLE
  2
LAYER
 70
1
  0
LAYER
  2
0
 70
     0
 62
     7
  6
CONTINUOUS
  0
ENDTAB
  0
ENDSEC
  0
SECTION
  2
ENTITIES
  0
LINE
  8
0
 62
     0
 10
0.0950846
 20
109.619
 30
0.0
 11
85.495
 21
109.619
 31
0.0
  0
LINE
  8
0
 62
     0
 10
85.495
 20
109.619
 30
0.0
 11
85.495
 21
0.418924
 31
0.0
  0
LINE
  8
0
 62
     0
 10
85.495
 20
0.418924
 30
0.0
 11
0.0950846
 21
0.418924
 31
0.0
  0
LINE
  8
0
 62
     0
 10
0.0950846
 20
0.418924
 30
0.0
 11
0.0950846
 21
109.619
 31
0.0
  0
LINE
  8
0
 62
     0
 10
64.7693
 20
21.1446
 30
0.0
 11
64.7693
 21
20.1442
 31
0.0
  0
LINE
  8
0
 62
     0
 10
64.7693
 20
20.1442
 30
0.0
 11
63.9685
 21
20.1442
 31
0.0
  0
LINE
  8
0
 62
     0
 10
63.9685
 20
20.1442
 30
0.0
 11
63.9685
 21
17.8456
 31
0.0
  0
LINE
  8
0
 62
     0
 10
63.9685
 20
17.8456
 30
0.0
 11
64.7693
 21
17.8456
 31
0.0
  0
LINE
  8
0
 62
     0
 10
64.7693
 20
17.8456
 30
0.0
 11
64.7693
 21
11.2448
 31
0.0
  0
LINE
  8
0
 62
     0
 10
64.7693
 20
11.2448
 30
0.0
 11
63.9685
 21
11.2448
 31
0.0
  0
LINE
  8
0
 62
     0
 10
63.9685
 20
11.2448
 30
0.0
 11
63.9685
 21
8.94486
 31
0.0
  0
LINE
  8
0
 62
     0
 10
63.9685
 20
8.94486
 30
0.0
 11
64.7693
 21
8.94486
 31
0.0
  0
LINE
  8
0
 62
     0
 10
64.7693
 20
8.94486
 30
0.0
 11
64.7693
 21
7.94575
 31
0.0
  0
LINE
  8
0
 62
     0
 10
64.7693
 20
7.94575
 30
0.0
 11
77.9681
 21
7.94575
 31
0.0
  0
LINE
  8
0
 62
     0
 10
77.9681
 20
7.94575
 30
0.0
 11
77.9681
 21
8.94486
 31
0.0
  0
LINE
  8
0
 62
     0
 10
77.9681
 20
8.94486
 30
0.0
 11
78.77
 21
8.94486
 31
0.0
  0
LINE
  8
0
 62
     0
 10
78.77
 20
8.94486
 30
0.0
 11
78.77
 21
11.2448
 31
0.0
  0
LINE
  8
0
 62
     0
 10
78.77
 20
11.2448
 30
0.0
 11
77.9681
 21
11.2448
 31
0.0
  0
LINE
  8
0
 62
     0
 10
77.9681
 20
11.2448
 30
0.0
 11
77.9681
 21
17.8456
 31
0.0
  0
LINE
  8
0
 62
     0
 10
77.9681
 20
17.8456
 30
0.0
 11
78.77
 21
17.8456
 31
0.0
  0
LINE
  8
0
 62
     0
 10
78.77
 20
17.8456
 30
0.0
 11
78.77
 21
20.1442
 31
0.0
  0
LINE
  8
0
 62
     0
 10
78.77
 20
20.1442
 30
0.0
 11
77.9681
 21
20.1442
 31
0.0
  0
LINE
  8
0
 62
     0
 10
77.9681
 20
20.1442
 30
0.0
 11
77.9681
 21
21.1446
 31
0.0
  0
LINE
  8
0
 62
     0
 10
77.9681
 20
21.1446
 30
0.0
 11
64.7693
 21
21.1446
 31
0.0
  0
LINE
  8
0
 62
     0
 10
45.7193
 20
21.1446
 30
0.0
 11
45.7193
 21
20.1442
 31
0.0
  0
LINE
  8
0
 62
     0
 10
45.7193
 20
20.1442
 30
0.0
 11
44.9185
 21
20.1442
 31
0.0
  0
LINE
  8
0
 62
     0
 10
44.9185
 20
20.1442
 30
0.0
 11
44.9185
 21
17.8456
 31
0.0
  0
LINE
  8
0
 62
     0
 10
44.9185
 20
17.8456
 30
0.0
 11
45.7193
 21
17.8456
 31
0.0
  0
LINE
  8
0
 62
     0
 10
45.7193
 20
17.8456
 30
0.0
 11
45.7193
 21
11.2448
 31
0.0
  0
LINE
  8
0
 62
     0
 10
45.7193
 20
11.2448
 30
0.0
 11
44.9185
 21
11.2448
 31
0.0
  0
LINE
  8
0
 62
     0
 10
44.9185
 20
11.2448
 30
0.0
 11
44.9185
 21
8.94486
 31
0.0
  0
LINE
  8
0
 62
     0
 10
44.9185
 20
8.94486
 30
0.0
 11
45.7193
 21
8.94486
 31
0.0
  0
LINE
  8
0
 62
     0
 10
45.7193
 20
8.94486
 30
0.0
 11
45.7193
 21
7.94575
 31
0.0
  0
LINE
  8
0
 62
     0
 10
45.7193
 20
7.94575
 30
0.0
 11
58.9181
 21
7.94575
 31
0.0
  0
LINE
  8
0
 62
     0
 10
58.9181
 20
7.94575
 30
0.0
 11
58.9181
 21
8.94486
 31
0.0
  0
LINE
  8
0
 62
     0
 10
58.9181
 20
8.94486
 30
0.0
 11
59.72
 21
8.94486
 31
0.0
  0
LINE
  8
0
 62
     0
 10
59.72
 20
8.94486
 30
0.0
 11
59.72
 21
11.2448
 31
0.0
  0
LINE
  8
0
 62
     0
 10
59.72
 20
11.2448
 30
0.0
 11
58.9181
 21
11.2448
 31
0.0
  0
LINE
  8
0
 62
     0
 10
58.9181
 20
11.2448
 30
0.0
 11
58.9181
 21
17.8456
 31
0.0
  0
LINE
  8
0
 62
     0
 10
58.9181
 20
17.8456
 30
0.0
 11
59.72
 21
17.8456
 31
0.0
  0
LINE
  8
0
 62
     0
 10
59.72
 20
17.8456
 30
0.0
 11
59.72
 21
20.1442
 31
0.0
  0
LINE
  8
0
 62
     0
 10
59.72
 20
20.1442
 30
0.0
 11
58.9181
 21
20.1442
 31
0.0
  0
LINE
  8
0
 62
     0
 10
58.9181
 20
20.1442
 30
0.0
 11
58.9181
 21
21.1446
 31
0.0
  0
LINE
  8
0
 62
     0
 10
58.9181
 20
21.1446
 30
0.0
 11
45.7193
 21
21.1446
 31
0.0
  0
LINE
  8
0
 62
     0
 10
26.6692
 20
21.1446
 30
0.0
 11
26.6692
 21
20.1442
 31
0.0
  0
LINE
  8
0
 62
     0
 10
26.6692
 20
20.1442
 30
0.0
 11
25.8699
 21
20.1442
 31
0.0
  0
LINE
  8
0
 62
     0
 10
25.8699
 20
20.1442
 30
0.0
 11
25.8699
 21
17.8456
 31
0.0
  0
LINE
  8
0
 62
     0
 10
25.8699
 20
17.8456
 30
0.0
 11
26.6692
 21
17.8456
 31
0.0
  0
LINE
  8
0
 62
     0
 10
26.6692
 20
17.8456
 30
0.0
 11
26.6692
 21
11.2448
 31
0.0
  0
LINE
  8
0
 62
     0
 10
26.6692
 20
11.2448
 30
0.0
 11
25.8699
 21
11.2448
 31
0.0
  0
LINE
  8
0
 62
     0
 10
25.8699
 20
11.2448
 30
0.0
 11
25.8699
 21
8.94486
 31
0.0
  0
LINE
  8
0
 62
     0
 10
25.8699
 20
8.94486
 30
0.0
 11
26.6692
 21
8.94486
 31
0.0
  0
LINE
  8
0
 62
     0
 10
26.6692
 20
8.94486
 30
0.0
 11
26.6692
 21
7.94575
 31
0.0
  0
LINE
  8
0
 62
     0
 10
26.6692
 20
7.94575
 30
0.0
 11
39.8695
 21
7.94575
 31
0.0
  0
LINE
  8
0
 62
     0
 10
39.8695
 20
7.94575
 30
0.0
 11
39.8695
 21
8.94486
 31
0.0
  0
LINE
  8
0
 62
     0
 10
39.8695
 20
8.94486
 30
0.0
 11
40.6686
 21
8.94486
 31
0.0
  0
LINE
  8
0
 62
     0
 10
40.6686
 20
8.94486
 30
0.0
 11
40.6686
 21
11.2448
 31
0.0
  0
LINE
  8
0
 62
     0
 10
40.6686
 20
11.2448
 30
0.0
 11
39.8695
 21
11.2448
 31
0.0
  0
LINE
  8
0
 62
     0
 10
39.8695
 20
11.2448
 30
0.0
 11
39.8695
 21
17.8456
 31
0.0
  0
LINE
  8
0
 62
     0
 10
39.8695
 20
17.8456
 30
0.0
 11
40.6686
 21
17.8456
 31
0.0
  0
LINE
  8
0
 62
     0
 10
40.6686
 20
17.8456
 30
0.0
 11
40.6686
 21
20.1442
 31
0.0
  0
LINE
  8
0
 62
     0
 10
40.6686
 20
20.1442
 30
0.0
 11
39.8695
 21
20.1442
 31
0.0
  0
LINE
  8
0
 62
     0
 10
39.8695
 20
20.1442
 30
0.0
 11
39.8695
 21
21.1446
 31
0.0
  0
LINE
  8
0
 62
     0
 10
39.8695
 20
21.1446
 30
0.0
 11
26.6692
 21
21.1446
 31
0.0
  0
LINE
  8
0
 62
     0
 10
7.61919
 20
21.1446
 30
0.0
 11
7.61919
 21
20.1442
 31
0.0
  0
LINE
  8
0
 62
     0
 10
7.61919
 20
20.1442
 30
0.0
 11
6.8199
 21
20.1442
 31
0.0
  0
LINE
  8
0
 62
     0
 10
6.8199
 20
20.1442
 30
0.0
 11
6.8199
 21
17.8456
 31
0.0
  0
LINE
  8
0
 62
     0
 10
6.8199
 20
17.8456
 30
0.0
 11
7.61919
 21
17.8456
 31
0.0
  0
LINE
  8
0
 62
     0
 10
7.61919
 20
17.8456
 30
0.0
 11
7.61919
 21
11.2448
 31
0.0
  0
LINE
  8
0
 62
     0
 10
7.61919
 20
11.2448
 30
0.0
 11
6.8199
 21
11.2448
 31
0.0
  0
LINE
  8
0
 62
     0
 10
6.8199
 20
11.2448
 30
0.0
 11
6.8199
 21
8.94486
 31
0.0
  0
LINE
  8
0
 62
     0
 10
6.8199
 20
8.94486
 30
0.0
 11
7.61919
 21
8.94486
 31
0.0
  0
LINE
  8
0
 62
     0
 10
7.61919
 20
8.94486
 30
0.0
 11
7.61919
 21
7.94575
 31
0.0
  0
LINE
  8
0
 62
     0
 10
7.61919
 20
7.94575
 30
0.0
 11
20.8194
 21
7.94575
 31
0.0
  0
LINE
  8
0
 62
     0
 10
20.8194
 20
7.94575
 30
0.0
 11
20.8194
 21
8.94486
 31
0.0
  0
LINE
  8
0
 62
     0
 10
20.8194
 20
8.94486
 30
0.0
 11
21.6201
 21
8.94486
 31
0.0
  0
LINE
  8
0
 62
     0
 10
21.6201
 20
8.94486
 30
0.0
 11
21.6201
 21
11.2448
 31
0.0
  0
LINE
  8
0
 62
     0
 10
21.6201
 20
11.2448
 30
0.0
 11
20.8194
 21
11.2448
 31
0.0
  0
LINE
  8
0
 62
     0
 10
20.8194
 20
11.2448
 30
0.0
 11
20.8194
 21
17.8456
 31
0.0
  0
LINE
  8
0
 62
     0
 10
20.8194
 20
17.8456
 30
0.0
 11
21.6201
 21
17.8456
 31
0.0
  0
LINE
  8
0
 62
     0
 10
21.6201
 20
17.8456
 30
0.0
 11
21.6201
 21
20.1442
 31
0.0
  0
LINE
  8
0
 62
     0
 10
21.6201
 20
20.1442
 30
0.0
 11
20.8194
 21
20.1442
 31
0.0
  0
LINE
  8
0
 62
     0
 10
20.8194
 20
20.1442
 30
0.0
 11
20.8194
 21
21.1446
 31
0.0
  0
LINE
  8
0
 62
     0
 10
20.8194
 20
21.1446
 30
0.0
 11
7.61919
 21
21.1446
 31
0.0
  0
LINE
  8
0
 62
     0
 10
64.7693
 20
40.1948
 30
0.0
 11
64.7693
 21
39.1943
 31
0.0
  0
LINE
  8
0
 62
     0
 10
64.7693
 20
39.1943
 30
0.0
 11
63.9685
 21
39.1943
 31
0.0
  0
LINE
  8
0
 62
     0
 10
63.9685
 20
39.1943
 30
0.0
 11
63.9685
 21
36.8942
 31
0.0
  0
LINE
  8
0
 62
     0
 10
63.9685
 20
36.8942
 30
0.0
 11
64.7693
 21
36.8942
 31
0.0
  0
LINE
  8
0
 62
     0
 10
64.7693
 20
36.8942
 30
0.0
 11
64.7693
 21
30.2948
 31
0.0
  0
LINE
  8
0
 62
     0
 10
64.7693
 20
30.2948
 30
0.0
 11
63.9685
 21
30.2948
 31
0.0
  0
LINE
  8
0
 62
     0
 10
63.9685
 20
30.2948
 30
0.0
 11
63.9685
 21
27.9949
 31
0.0
  0
LINE
  8
0
 62
     0
 10
63.9685
 20
27.9949
 30
0.0
 11
64.7693
 21
27.9949
 31
0.0
  0
LINE
  8
0
 62
     0
 10
64.7693
 20
27.9949
 30
0.0
 11
64.7693
 21
26.9958
 31
0.0
  0
LINE
  8
0
 62
     0
 10
64.7693
 20
26.9958
 30
0.0
 11
77.9681
 21
26.9958
 31
0.0
  0
LINE
  8
0
 62
     0
 10
77.9681
 20
26.9958
 30
0.0
 11
77.9681
 21
27.9949
 31
0.0
  0
LINE
  8
0
 62
     0
 10
77.9681
 20
27.9949
 30
0.0
 11
78.77
 21
27.9949
 31
0.0
  0
LINE
  8
0
 62
     0
 10
78.77
 20
27.9949
 30
0.0
 11
78.77
 21
30.2948
 31
0.0
  0
LINE
  8
0
 62
     0
 10
78.77
 20
30.2948
 30
0.0
 11
77.9681
 21
30.2948
 31
0.0
  0
LINE
  8
0
 62
     0
 10
77.9681
 20
30.2948
 30
0.0
 11
77.9681
 21
36.8942
 31
0.0
  0
LINE
  8
0
 62
     0
 10
77.9681
 20
36.8942
 30
0.0
 11
78.77
 21
36.8942
 31
0.0
  0
LINE
  8
0
 62
     0
 10
78.77
 20
36.8942
 30
0.0
 11
78.77
 21
39.1943
 31
0.0
  0
LINE
  8
0
 62
     0
 10
78.77
 20
39.1943
 30
0.0
 11
77.9681
 21
39.1943
 31
0.0
  0
LINE
  8
0
 62
     0
 10
77.9681
 20
39.1943
 30
0.0
 11
77.9681
 21
40.1948
 31
0.0
  0
LINE
  8
0
 62
     0
 10
77.9681
 20
40.1948
 30
0.0
 11
64.7693
 21
40.1948
 31
0.0
  0
LINE
  8
0
 62
     0
 10
45.7193
 20
40.1948
 30
0.0
 11
45.7193
 21
39.1943
 31
0.0
  0
LINE
  8
0
 62
     0
 10
45.7193
 20
39.1943
 30
0.0
 11
44.9185
 21
39.1943
 31
0.0
  0
LINE
  8
0
 62
     0
 10
44.9185
 20
39.1943
 30
0.0
 11
44.9185
 21
36.8942
 31
0.0
  0
LINE
  8
0
 62
     0
 10
44.9185
 20
36.8942
 30
0.0
 11
45.7193
 21
36.8942
 31
0.0
  0
LINE
  8
0
 62
     0
 10
45.7193
 20
36.8942
 30
0.0
 11
45.7193
 21
30.2948
 31
0.0
  0
LINE
  8
0
 62
     0
 10
45.7193
 20
30.2948
 30
0.0
 11
44.9185
 21
30.2948
 31
0.0
  0
LINE
  8
0
 62
     0
 10
44.9185
 20
30.2948
 30
0.0
 11
44.9185
 21
27.9949
 31
0.0
  0
LINE
  8
0
 62
     0
 10
44.9185
 20
27.9949
 30
0.0
 11
45.7193
 21
27.9949
 31
0.0
  0
LINE
  8
0
 62
     0
 10
45.7193
 20
27.9949
 30
0.0
 11
45.7193
 21
26.9958
 31
0.0
  0
LINE
  8
0
 62
     0
 10
45.7193
 20
26.9958
 30
0.0
 11
58.9181
 21
26.9958
 31
0.0
  0
LINE
  8
0
 62
     0
 10
58.9181
 20
26.9958
 30
0.0
 11
58.9181
 21
27.9949
 31
0.0
  0
LINE
  8
0
 62
     0
 10
58.9181
 20
27.9949
 30
0.0
 11
59.72
 21
27.9949
 31
0.0
  0
LINE
  8
0
 62
     0
 10
59.72
 20
27.9949
 30
0.0
 11
59.72
 21
30.2948
 31
0.0
  0
LINE
  8
0
 62
     0
 10
59.72
 20
30.2948
 30
0.0
 11
58.9181
 21
30.2948
 31
0.0
  0
LINE
  8
0
 62
     0
 10
58.9181
 20
30.2948
 30
0.0
 11
58.9181
 21
36.8942
 31
0.0
  0
LINE
  8
0
 62
     0
 10
58.9181
 20
36.8942
 30
0.0
 11
59.72
 21
36.8942
 31
0.0
  0
LINE
  8
0
 62
     0
 10
59.72
 20
36.8942
 30
0.0
 11
59.72
 21
39.1943
 31
0.0
  0
LINE
  8
0
 62
     0
 10
59.72
 20
39.1943
 30
0.0
 11
58.9181
 21
39.1943
 31
0.0
  0
LINE
  8
0
 62
     0
 10
58.9181
 20
39.1943
 30
0.0
 11
58.9181
 21
40.1948
 31
0.0
  0
LINE
  8
0
 62
     0
 10
58.9181
 20
40.1948
 30
0.0
 11
45.7193
 21
40.1948
 31
0.0
  0
LINE
  8
0
 62
     0
 10
26.6692
 20
40.1948
 30
0.0
 11
26.6692
 21
39.1943
 31
0.0
  0
LINE
  8
0
 62
     0
 10
26.6692
 20
39.1943
 30
0.0
 11
25.8699
 21
39.1943
 31
0.0
  0
LINE
  8
0
 62
     0
 10
25.8699
 20
39.1943
 30
0.0
 11
25.8699
 21
36.8942
 31
0.0
  0
LINE
  8
0
 62
     0
 10
25.8699
 20
36.8942
 30
0.0
 11
26.6692
 21
36.8942
 31
0.0
  0
LINE
  8
0
 62
     0
 10
26.6692
 20
36.8942
 30
0.0
 11
26.6692
 21
30.2948
 31
0.0
  0
LINE
  8
0
 62
     0
 10
26.6692
 20
30.2948
 30
0.0
 11
25.8699
 21
30.2948
 31
0.0
  0
LINE
  8
0
 62
     0
 10
25.8699
 20
30.2948
 30
0.0
 11
25.8699
 21
27.9949
 31
0.0
  0
LINE
  8
0
 62
     0
 10
25.8699
 20
27.9949
 30
0.0
 11
26.6692
 21
27.9949
 31
0.0
  0
LINE
  8
0
 62
     0
 10
26.6692
 20
27.9949
 30
0.0
 11
26.6692
 21
26.9958
 31
0.0
  0
LINE
  8
0
 62
     0
 10
26.6692
 20
26.9958
 30
0.0
 11
39.8695
 21
26.9958
 31
0.0
  0
LINE
  8
0
 62
     0
 10
39.8695
 20
26.9958
 30
0.0
 11
39.8695
 21
27.9949
 31
0.0
  0
LINE
  8
0
 62
     0
 10
39.8695
 20
27.9949
 30
0.0
 11
40.6686
 21
27.9949
 31
0.0
  0
LINE
  8
0
 62
     0
 10
40.6686
 20
27.9949
 30
0.0
 11
40.6686
 21
30.2948
 31
0.0
  0
LINE
  8
0
 62
     0
 10
40.6686
 20
30.2948
 30
0.0
 11
39.8695
 21
30.2948
 31
0.0
  0
LINE
  8
0
 62
     0
 10
39.8695
 20
30.2948
 30
0.0
 11
39.8695
 21
36.8942
 31
0.0
  0
LINE
  8
0
 62
     0
 10
39.8695
 20
36.8942
 30
0.0
 11
40.6686
 21
36.8942
 31
0.0
  0
LINE
  8
0
 62
     0
 10
40.6686
 20
36.8942
 30
0.0
 11
40.6686
 21
39.1943
 31
0.0
  0
LINE
  8
0
 62
     0
 10
40.6686
 20
39.1943
 30
0.0
 11
39.8695
 21
39.1943
 31
0.0
  0
LINE
  8
0
 62
     0
 10
39.8695
 20
39.1943
 30
0.0
 11
39.8695
 21
40.1948
 31
0.0
  0
LINE
  8
0
 62
     0
 10
39.8695
 20
40.1948
 30
0.0
 11
26.6692
 21
40.1948
 31
0.0
  0
LINE
  8
0
 62
     0
 10
7.61919
 20
40.1948
 30
0.0
 11
7.61919
 21
39.1943
 31
0.0
  0
LINE
  8
0
 62
     0
 10
7.61919
 20
39.1943
 30
0.0
 11
6.8199
 21
39.1943
 31
0.0
  0
LINE
  8
0
 62
     0
 10
6.8199
 20
39.1943
 30
0.0
 11
6.8199
 21
36.8942
 31
0.0
  0
LINE
  8
0
 62
     0
 10
6.8199
 20
36.8942
 30
0.0
 11
7.61919
 21
36.8942
 31
0.0
  0
LINE
  8
0
 62
     0
 10
7.61919
 20
36.8942
 30
0.0
 11
7.61919
 21
30.2948
 31
0.0
  0
LINE
  8
0
 62
     0
 10
7.61919
 20
30.2948
 30
0.0
 11
6.8199
 21
30.2948
 31
0.0
  0
LINE
  8
0
 62
     0
 10
6.8199
 20
30.2948
 30
0.0
 11
6.8199
 21
27.9949
 31
0.0
  0
LINE
  8
0
 62
     0
 10
6.8199
 20
27.9949
 30
0.0
 11
7.61919
 21
27.9949
 31
0.0
  0
LINE
  8
0
 62
     0
 10
7.61919
 20
27.9949
 30
0.0
 11
7.61919
 21
26.9958
 31
0.0
  0
LINE
  8
0
 62
     0
 10
7.61919
 20
26.9958
 30
0.0
 11
20.8194
 21
26.9958
 31
0.0
  0
LINE
  8
0
 62
     0
 10
20.8194
 20
26.9958
 30
0.0
 11
20.8194
 21
27.9949
 31
0.0
  0
LINE
  8
0
 62
     0
 10
20.8194
 20
27.9949
 30
0.0
 11
21.6201
 21
27.9949
 31
0.0
  0
LINE
  8
0
 62
     0
 10
21.6201
 20
27.9949
 30
0.0
 11
21.6201
 21
30.2948
 31
0.0
  0
LINE
  8
0
 62
     0
 10
21.6201
 20
30.2948
 30
0.0
 11
20.8194
 21
30.2948
 31
0.0
  0
LINE
  8
0
 62
     0
 10
20.8194
 20
30.2948
 30
0.0
 11
20.8194
 21
36.8942
 31
0.0
  0
LINE
  8
0
 62
     0
 10
20.8194
 20
36.8942
 30
0.0
 11
21.6201
 21
36.8942
 31
0.0
  0
LINE
  8
0
 62
     0
 10
21.6201
 20
36.8942
 30
0.0
 11
21.6201
 21
39.1943
 31
0.0
  0
LINE
  8
0
 62
     0
 10
21.6201
 20
39.1943
 30
0.0
 11
20.8194
 21
39.1943
 31
0.0
  0
LINE
  8
0
 62
     0
 10
20.8194
 20
39.1943
 30
0.0
 11
20.8194
 21
40.1948
 31
0.0
  0
LINE
  8
0
 62
     0
 10
20.8194
 20
40.1948
 30
0.0
 11
7.61919
 21
40.1948
 31
0.0
  0
LINE
  8
0
 62
     0
 10
64.7693
 20
59.2459
 30
0.0
 11
64.7693
 21
58.2454
 31
0.0
  0
LINE
  8
0
 62
     0
 10
64.7693
 20
58.2454
 30
0.0
 11
63.9685
 21
58.2454
 31
0.0
  0
LINE
  8
0
 62
     0
 10
63.9685
 20
58.2454
 30
0.0
 11
63.9685
 21
55.9442
 31
0.0
  0
LINE
  8
0
 62
     0
 10
63.9685
 20
55.9442
 30
0.0
 11
64.7693
 21
55.9442
 31
0.0
  0
LINE
  8
0
 62
     0
 10
64.7693
 20
55.9442
 30
0.0
 11
64.7693
 21
49.3448
 31
0.0
  0
LINE
  8
0
 62
     0
 10
64.7693
 20
49.3448
 30
0.0
 11
63.9685
 21
49.3448
 31
0.0
  0
LINE
  8
0
 62
     0
 10
63.9685
 20
49.3448
 30
0.0
 11
63.9685
 21
47.0447
 31
0.0
  0
LINE
  8
0
 62
     0
 10
63.9685
 20
47.0447
 30
0.0
 11
64.7693
 21
47.0447
 31
0.0
  0
LINE
  8
0
 62
     0
 10
64.7693
 20
47.0447
 30
0.0
 11
64.7693
 21
46.0456
 31
0.0
  0
LINE
  8
0
 62
     0
 10
64.7693
 20
46.0456
 30
0.0
 11
77.9681
 21
46.0456
 31
0.0
  0
LINE
  8
0
 62
     0
 10
77.9681
 20
46.0456
 30
0.0
 11
77.9681
 21
47.0447
 31
0.0
  0
LINE
  8
0
 62
     0
 10
77.9681
 20
47.0447
 30
0.0
 11
78.77
 21
47.0447
 31
0.0
  0
LINE
  8
0
 62
     0
 10
78.77
 20
47.0447
 30
0.0
 11
78.77
 21
49.3448
 31
0.0
  0
LINE
  8
0
 62
     0
 10
78.77
 20
49.3448
 30
0.0
 11
77.9681
 21
49.3448
 31
0.0
  0
LINE
  8
0
 62
     0
 10
77.9681
 20
49.3448
 30
0.0
 11
77.9681
 21
55.9442
 31
0.0
  0
LINE
  8
0
 62
     0
 10
77.9681
 20
55.9442
 30
0.0
 11
78.77
 21
55.9442
 31
0.0
  0
LINE
  8
0
 62
     0
 10
78.77
 20
55.9442
 30
0.0
 11
78.77
 21
58.2454
 31
0.0
  0
LINE
  8
0
 62
     0
 10
78.77
 20
58.2454
 30
0.0
 11
77.9681
 21
58.2454
 31
0.0
  0
LINE
  8
0
 62
     0
 10
77.9681
 20
58.2454
 30
0.0
 11
77.9681
 21
59.2459
 31
0.0
  0
LINE
  8
0
 62
     0
 10
77.9681
 20
59.2459
 30
0.0
 11
64.7693
 21
59.2459
 31
0.0
  0
LINE
  8
0
 62
     0
 10
45.7193
 20
59.2459
 30
0.0
 11
45.7193
 21
58.2454
 31
0.0
  0
LINE
  8
0
 62
     0
 10
45.7193
 20
58.2454
 30
0.0
 11
44.9185
 21
58.2454
 31
0.0
  0
LINE
  8
0
 62
     0
 10
44.9185
 20
58.2454
 30
0.0
 11
44.9185
 21
55.9442
 31
0.0
  0
LINE
  8
0
 62
     0
 10
44.9185
 20
55.9442
 30
0.0
 11
45.7193
 21
55.9442
 31
0.0
  0
LINE
  8
0
 62
     0
 10
45.7193
 20
55.9442
 30
0.0
 11
45.7193
 21
49.3448
 31
0.0
  0
LINE
  8
0
 62
     0
 10
45.7193
 20
49.3448
 30
0.0
 11
44.9185
 21
49.3448
 31
0.0
  0
LINE
  8
0
 62
     0
 10
44.9185
 20
49.3448
 30
0.0
 11
44.9185
 21
47.0447
 31
0.0
  0
LINE
  8
0
 62
     0
 10
44.9185
 20
47.0447
 30
0.0
 11
45.7193
 21
47.0447
 31
0.0
  0
LINE
  8
0
 62
     0
 10
45.7193
 20
47.0447
 30
0.0
 11
45.7193
 21
46.0456
 31
0.0
  0
LINE
  8
0
 62
     0
 10
45.7193
 20
46.0456
 30
0.0
 11
58.9181
 21
46.0456
 31
0.0
  0
LINE
  8
0
 62
     0
 10
58.9181
 20
46.0456
 30
0.0
 11
58.9181
 21
47.0447
 31
0.0
  0
LINE
  8
0
 62
     0
 10
58.9181
 20
47.0447
 30
0.0
 11
59.72
 21
47.0447
 31
0.0
  0
LINE
  8
0
 62
     0
 10
59.72
 20
47.0447
 30
0.0
 11
59.72
 21
49.3448
 31
0.0
  0
LINE
  8
0
 62
     0
 10
59.72
 20
49.3448
 30
0.0
 11
58.9181
 21
49.3448
 31
0.0
  0
LINE
  8
0
 62
     0
 10
58.9181
 20
49.3448
 30
0.0
 11
58.9181
 21
55.9442
 31
0.0
  0
LINE
  8
0
 62
     0
 10
58.9181
 20
55.9442
 30
0.0
 11
59.72
 21
55.9442
 31
0.0
  0
LINE
  8
0
 62
     0
 10
59.72
 20
55.9442
 30
0.0
 11
59.72
 21
58.2454
 31
0.0
  0
LINE
  8
0
 62
     0
 10
59.72
 20
58.2454
 30
0.0
 11
58.9181
 21
58.2454
 31
0.0
  0
LINE
  8
0
 62
     0
 10
58.9181
 20
58.2454
 30
0.0
 11
58.9181
 21
59.2459
 31
0.0
  0
LINE
  8
0
 62
     0
 10
58.9181
 20
59.2459
 30
0.0
 11
45.7193
 21
59.2459
 31
0.0
  0
LINE
  8
0
 62
     0
 10
26.6692
 20
59.2459
 30
0.0
 11
26.6692
 21
58.2454
 31
0.0
  0
LINE
  8
0
 62
     0
 10
26.6692
 20
58.2454
 30
0.0
 11
25.8699
 21
58.2454
 31
0.0
  0
LINE
  8
0
 62
     0
 10
25.8699
 20
58.2454
 30
0.0
 11
25.8699
 21
55.9442
 31
0.0
  0
LINE
  8
0
 62
     0
 10
25.8699
 20
55.9442
 30
0.0
 11
26.6692
 21
55.9442
 31
0.0
  0
LINE
  8
0
 62
     0
 10
26.6692
 20
55.9442
 30
0.0
 11
26.6692
 21
49.3448
 31
0.0
  0
LINE
  8
0
 62
     0
 10
26.6692
 20
49.3448
 30
0.0
 11
25.8699
 21
49.3448
 31
0.0
  0
LINE
  8
0
 62
     0
 10
25.8699
 20
49.3448
 30
0.0
 11
25.8699
 21
47.0447
 31
0.0
  0
LINE
  8
0
 62
     0
 10
25.8699
 20
47.0447
 30
0.0
 11
26.6692
 21
47.0447
 31
0.0
  0
LINE
  8
0
 62
     0
 10
26.6692
 20
47.0447
 30
0.0
 11
26.6692
 21
46.0456
 31
0.0
  0
LINE
  8
0
 62
     0
 10
26.6692
 20
46.0456
 30
0.0
 11
39.8695
 21
46.0456
 31
0.0
  0
LINE
  8
0
 62
     0
 10
39.8695
 20
46.0456
 30
0.0
 11
39.8695
 21
47.0447
 31
0.0
  0
LINE
  8
0
 62
     0
 10
39.8695
 20
47.0447
 30
0.0
 11
40.6686
 21
47.0447
 31
0.0
  0
LINE
  8
0
 62
     0
 10
40.6686
 20
47.0447
 30
0.0
 11
40.6686
 21
49.3448
 31
0.0
  0
LINE
  8
0
 62
     0
 10
40.6686
 20
49.3448
 30
0.0
 11
39.8695
 21
49.3448
 31
0.0
  0
LINE
  8
0
 62
     0
 10
39.8695
 20
49.3448
 30
0.0
 11
39.8695
 21
55.9442
 31
0.0
  0
LINE
  8
0
 62
     0
 10
39.8695
 20
55.9442
 30
0.0
 11
40.6686
 21
55.9442
 31
0.0
  0
LINE
  8
0
 62
     0
 10
40.6686
 20
55.9442
 30
0.0
 11
40.6686
 21
58.2454
 31
0.0
  0
LINE
  8
0
 62
     0
 10
40.6686
 20
58.2454
 30
0.0
 11
39.8695
 21
58.2454
 31
0.0
  0
LINE
  8
0
 62
     0
 10
39.8695
 20
58.2454
 30
0.0
 11
39.8695
 21
59.2459
 31
0.0
  0
LINE
  8
0
 62
     0
 10
39.8695
 20
59.2459
 30
0.0
 11
26.6692
 21
59.2459
 31
0.0
  0
LINE
  8
0
 62
     0
 10
7.61919
 20
59.2459
 30
0.0
 11
7.61919
 21
58.2454
 31
0.0
  0
LINE
  8
0
 62
     0
 10
7.61919
 20
58.2454
 30
0.0
 11
6.8199
 21
58.2454
 31
0.0
  0
LINE
  8
0
 62
     0
 10
6.8199
 20
58.2454
 30
0.0
 11
6.8199
 21
55.9442
 31
0.0
  0
LINE
  8
0
 62
     0
 10
6.8199
 20
55.9442
 30
0.0
 11
7.61919
 21
55.9442
 31
0.0
  0
LINE
  8
0
 62
     0
 10
7.61919
 20
55.9442
 30
0.0
 11
7.61919
 21
49.3448
 31
0.0
  0
LINE
  8
0
 62
     0
 10
7.61919
 20
49.3448
 30
0.0
 11
6.8199
 21
49.3448
 31
0.0
  0
LINE
  8
0
 62
     0
 10
6.8199
 20
49.3448
 30
0.0
 11
6.8199
 21
47.0447
 31
0.0
  0
LINE
  8
0
 62
     0
 10
6.8199
 20
47.0447
 30
0.0
 11
7.61919
 21
47.0447
 31
0.0
  0
LINE
  8
0
 62
     0
 10
7.61919
 20
47.0447
 30
0.0
 11
7.61919
 21
46.0456
 31
0.0
  0
LINE
  8
0
 62
     0
 10
7.61919
 20
46.0456
 30
0.0
 11
20.8194
 21
46.0456
 31
0.0
  0
LINE
  8
0
 62
     0
 10
20.8194
 20
46.0456
 30
0.0
 11
20.8194
 21
47.0447
 31
0.0
  0
LINE
  8
0
 62
     0
 10
20.8194
 20
47.0447
 30
0.0
 11
21.6201
 21
47.0447
 31
0.0
  0
LINE
  8
0
 62
     0
 10
21.6201
 20
47.0447
 30
0.0
 11
21.6201
 21
49.3448
 31
0.0
  0
LINE
  8
0
 62
     0
 10
21.6201
 20
49.3448
 30
0.0
 11
20.8194
 21
49.3448
 31
0.0
  0
LINE
  8
0
 62
     0
 10
20.8194
 20
49.3448
 30
0.0
 11
20.8194
 21
55.9442
 31
0.0
  0
LINE
  8
0
 62
     0
 10
20.8194
 20
55.9442
 30
0.0
 11
21.6201
 21
55.9442
 31
0.0
  0
LINE
  8
0
 62
     0
 10
21.6201
 20
55.9442
 30
0.0
 11
21.6201
 21
58.2454
 31
0.0
  0
LINE
  8
0
 62
     0
 10
21.6201
 20
58.2454
 30
0.0
 11
20.8194
 21
58.2454
 31
0.0
  0
LINE
  8
0
 62
     0
 10
20.8194
 20
58.2454
 30
0.0
 11
20.8194
 21
59.2459
 31
0.0
  0
LINE
  8
0
 62
     0
 10
20.8194
 20
59.2459
 30
0.0
 11
7.61919
 21
59.2459
 31
0.0
  0
LINE
  8
0
 62
     0
 10
64.7693
 20
78.2959
 30
0.0
 11
64.7693
 21
77.2954
 31
0.0
  0
LINE
  8
0
 62
     0
 10
64.7693
 20
77.2954
 30
0.0
 11
63.9685
 21
77.2954
 31
0.0
  0
LINE
  8
0
 62
     0
 10
63.9685
 20
77.2954
 30
0.0
 11
63.9685
 21
74.9942
 31
0.0
  0
LINE
  8
0
 62
     0
 10
63.9685
 20
74.9942
 30
0.0
 11
64.7693
 21
74.9942
 31
0.0
  0
LINE
  8
0
 62
     0
 10
64.7693
 20
74.9942
 30
0.0
 11
64.7693
 21
68.3948
 31
0.0
  0
LINE
  8
0
 62
     0
 10
64.7693
 20
68.3948
 30
0.0
 11
63.9685
 21
68.3948
 31
0.0
  0
LINE
  8
0
 62
     0
 10
63.9685
 20
68.3948
 30
0.0
 11
63.9685
 21
66.0947
 31
0.0
  0
LINE
  8
0
 62
     0
 10
63.9685
 20
66.0947
 30
0.0
 11
64.7693
 21
66.0947
 31
0.0
  0
LINE
  8
0
 62
     0
 10
64.7693
 20
66.0947
 30
0.0
 11
64.7693
 21
65.0946
 31
0.0
  0
LINE
  8
0
 62
     0
 10
64.7693
 20
65.0946
 30
0.0
 11
77.9681
 21
65.0946
 31
0.0
  0
LINE
  8
0
 62
     0
 10
77.9681
 20
65.0946
 30
0.0
 11
77.9681
 21
66.0947
 31
0.0
  0
LINE
  8
0
 62
     0
 10
77.9681
 20
66.0947
 30
0.0
 11
78.77
 21
66.0947
 31
0.0
  0
LINE
  8
0
 62
     0
 10
78.77
 20
66.0947
 30
0.0
 11
78.77
 21
68.3948
 31
0.0
  0
LINE
  8
0
 62
     0
 10
78.77
 20
68.3948
 30
0.0
 11
77.9681
 21
68.3948
 31
0.0
  0
LINE
  8
0
 62
     0
 10
77.9681
 20
68.3948
 30
0.0
 11
77.9681
 21
74.9942
 31
0.0
  0
LINE
  8
0
 62
     0
 10
77.9681
 20
74.9942
 30
0.0
 11
78.77
 21
74.9942
 31
0.0
  0
LINE
  8
0
 62
     0
 10
78.77
 20
74.9942
 30
0.0
 11
78.77
 21
77.2954
 31
0.0
  0
LINE
  8
0
 62
     0
 10
78.77
 20
77.2954
 30
0.0
 11
77.9681
 21
77.2954
 31
0.0
  0
LINE
  8
0
 62
     0
 10
77.9681
 20
77.2954
 30
0.0
 11
77.9681
 21
78.2959
 31
0.0
  0
LINE
  8
0
 62
     0
 10
77.9681
 20
78.2959
 30
0.0
 11
64.7693
 21
78.2959
 31
0.0
  0
LINE
  8
0
 62
     0
 10
45.7193
 20
78.2959
 30
0.0
 11
45.7193
 21
77.2954
 31
0.0
  0
LINE
  8
0
 62
     0
 10
45.7193
 20
77.2954
 30
0.0
 11
44.9185
 21
77.2954
 31
0.0
  0
LINE
  8
0
 62
     0
 10
44.9185
 20
77.2954
 30
0.0
 11
44.9185
 21
74.9942
 31
0.0
  0
LINE
  8
0
 62
     0
 10
44.9185
 20
74.9942
 30
0.0
 11
45.7193
 21
74.9942
 31
0.0
  0
LINE
  8
0
 62
     0
 10
45.7193
 20
74.9942
 30
0.0
 11
45.7193
 21
68.3948
 31
0.0
  0
LINE
  8
0
 62
     0
 10
45.7193
 20
68.3948
 30
0.0
 11
44.9185
 21
68.3948
 31
0.0
  0
LINE
  8
0
 62
     0
 10
44.9185
 20
68.3948
 30
0.0
 11
44.9185
 21
66.0947
 31
0.0
  0
LINE
  8
0
 62
     0
 10
44.9185
 20
66.0947
 30
0.0
 11
45.7193
 21
66.0947
 31
0.0
  0
LINE
  8
0
 62
     0
 10
45.7193
 20
66.0947
 30
0.0
 11
45.7193
 21
65.0946
 31
0.0
  0
LINE
  8
0
 62
     0
 10
45.7193
 20
65.0946
 30
0.0
 11
58.9181
 21
65.0946
 31
0.0
  0
LINE
  8
0
 62
     0
 10
58.9181
 20
65.0946
 30
0.0
 11
58.9181
 21
66.0947
 31
0.0
  0
LINE
  8
0
 62
     0
 10
58.9181
 20
66.0947
 30
0.0
 11
59.72
 21
66.0947
 31
0.0
  0
LINE
  8
0
 62
     0
 10
59.72
 20
66.0947
 30
0.0
 11
59.72
 21
68.3948
 31
0.0
  0
LINE
  8
0
 62
     0
 10
59.72
 20
68.3948
 30
0.0
 11
58.9181
 21
68.3948
 31
0.0
  0
LINE
  8
0
 62
     0
 10
58.9181
 20
68.3948
 30
0.0
 11
58.9181
 21
74.9942
 31
0.0
  0
LINE
  8
0
 62
     0
 10
58.9181
 20
74.9942
 30
0.0
 11
59.72
 21
74.9942
 31
0.0
  0
LINE
  8
0
 62
     0
 10
59.72
 20
74.9942
 30
0.0
 11
59.72
 21
77.2954
 31
0.0
  0
LINE
  8
0
 62
     0
 10
59.72
 20
77.2954
 30
0.0
 11
58.9181
 21
77.2954
 31
0.0
  0
LINE
  8
0
 62
     0
 10
58.9181
 20
77.2954
 30
0.0
 11
58.9181
 21
78.2959
 31
0.0
  0
LINE
  8
0
 62
     0
 10
58.9181
 20
78.2959
 30
0.0
 11
45.7193
 21
78.2959
 31
0.0
  0
LINE
  8
0
 62
     0
 10
26.6692
 20
78.2959
 30
0.0
 11
26.6692
 21
77.2954
 31
0.0
  0
LINE
  8
0
 62
     0
 10
26.6692
 20
77.2954
 30
0.0
 11
25.8699
 21
77.2954
 31
0.0
  0
LINE
  8
0
 62
     0
 10
25.8699
 20
77.2954
 30
0.0
 11
25.8699
 21
74.9942
 31
0.0
  0
LINE
  8
0
 62
     0
 10
25.8699
 20
74.9942
 30
0.0
 11
26.6692
 21
74.9942
 31
0.0
  0
LINE
  8
0
 62
     0
 10
26.6692
 20
74.9942
 30
0.0
 11
26.6692
 21
68.3948
 31
0.0
  0
LINE
  8
0
 62
     0
 10
26.6692
 20
68.3948
 30
0.0
 11
25.8699
 21
68.3948
 31
0.0
  0
LINE
  8
0
 62
     0
 10
25.8699
 20
68.3948
 30
0.0
 11
25.8699
 21
66.0947
 31
0.0
  0
LINE
  8
0
 62
     0
 10
25.8699
 20
66.0947
 30
0.0
 11
26.6692
 21
66.0947
 31
0.0
  0
LINE
  8
0
 62
     0
 10
26.6692
 20
66.0947
 30
0.0
 11
26.6692
 21
65.0946
 31
0.0
  0
LINE
  8
0
 62
     0
 10
26.6692
 20
65.0946
 30
0.0
 11
39.8695
 21
65.0946
 31
0.0
  0
LINE
  8
0
 62
     0
 10
39.8695
 20
65.0946
 30
0.0
 11
39.8695
 21
66.0947
 31
0.0
  0
LINE
  8
0
 62
     0
 10
39.8695
 20
66.0947
 30
0.0
 11
40.6686
 21
66.0947
 31
0.0
  0
LINE
  8
0
 62
     0
 10
40.6686
 20
66.0947
 30
0.0
 11
40.6686
 21
68.3948
 31
0.0
  0
LINE
  8
0
 62
     0
 10
40.6686
 20
68.3948
 30
0.0
 11
39.8695
 21
68.3948
 31
0.0
  0
LINE
  8
0
 62
     0
 10
39.8695
 20
68.3948
 30
0.0
 11
39.8695
 21
74.9942
 31
0.0
  0
LINE
  8
0
 62
     0
 10
39.8695
 20
74.9942
 30
0.0
 11
40.6686
 21
74.9942
 31
0.0
  0
LINE
  8
0
 62
     0
 10
40.6686
 20
74.9942
 30
0.0
 11
40.6686
 21
77.2954
 31
0.0
  0
LINE
  8
0
 62
     0
 10
40.6686
 20
77.2954
 30
0.0
 11
39.8695
 21
77.2954
 31
0.0
  0
LINE
  8
0
 62
     0
 10
39.8695
 20
77.2954
 30
0.0
 11
39.8695
 21
78.2959
 31
0.0
  0
LINE
  8
0
 62
     0
 10
39.8695
 20
78.2959
 30
0.0
 11
26.6692
 21
78.2959
 31
0.0
  0
LINE
  8
0
 62
     0
 10
7.61919
 20
78.2959
 30
0.0
 11
7.61919
 21
77.2954
 31
0.0
  0
LINE
  8
0
 62
     0
 10
7.61919
 20
77.2954
 30
0.0
 11
6.8199
 21
77.2954
 31
0.0
  0
LINE
  8
0
 62
     0
 10
6.8199
 20
77.2954
 30
0.0
 11
6.8199
 21
74.9942
 31
0.0
  0
LINE
  8
0
 62
     0
 10
6.8199
 20
74.9942
 30
0.0
 11
7.61919
 21
74.9942
 31
0.0
  0
LINE
  8
0
 62
     0
 10
7.61919
 20
74.9942
 30
0.0
 11
7.61919
 21
68.3948
 31
0.0
  0
LINE
  8
0
 62
     0
 10
7.61919
 20
68.3948
 30
0.0
 11
6.8199
 21
68.3948
 31
0.0
  0
LINE
  8
0
 62
     0
 10
6.8199
 20
68.3948
 30
0.0
 11
6.8199
 21
66.0947
 31
0.0
  0
LINE
  8
0
 62
     0
 10
6.8199
 20
66.0947
 30
0.0
 11
7.61919
 21
66.0947
 31
0.0
  0
LINE
  8
0
 62
     0
 10
7.61919
 20
66.0947
 30
0.0
 11
7.61919
 21
65.0946
 31
0.0
  0
LINE
  8
0
 62
     0
 10
7.61919
 20
65.0946
 30
0.0
 11
20.8194
 21
65.0946
 31
0.0
  0
LINE
  8
0
 62
     0
 10
20.8194
 20
65.0946
 30
0.0
 11
20.8194
 21
66.0947
 31
0.0
  0
LINE
  8
0
 62
     0
 10
20.8194
 20
66.0947
 30
0.0
 11
21.6201
 21
66.0947
 31
0.0
  0
LINE
  8
0
 62
     0
 10
21.6201
 20
66.0947
 30
0.0
 11
21.6201
 21
68.3948
 31
0.0
  0
LINE
  8
0
 62
     0
 10
21.6201
 20
68.3948
 30
0.0
 11
20.8194
 21
68.3948
 31
0.0
  0
LINE
  8
0
 62
     0
 10
20.8194
 20
68.3948
 30
0.0
 11
20.8194
 21
74.9942
 31
0.0
  0
LINE
  8
0
 62
     0
 10
20.8194
 20
74.9942
 30
0.0
 11
21.6201
 21
74.9942
 31
0.0
  0
LINE
  8
0
 62
     0
 10
21.6201
 20
74.9942
 30
0.0
 11
21.6201
 21
77.2954
 31
0.0
  0
LINE
  8
0
 62
     0
 10
21.6201
 20
77.2954
 30
0.0
 11
20.8194
 21
77.2954
 31
0.0
  0
LINE
  8
0
 62
     0
 10
20.8194
 20
77.2954
 30
0.0
 11
20.8194
 21
78.2959
 31
0.0
  0
LINE
  8
0
 62
     0
 10
20.8194
 20
78.2959
 30
0.0
 11
7.61919
 21
78.2959
 31
0.0
  0
ENDSEC
  0
EOF
