G04*
G04 #@! TF.GenerationSoftware,Altium Limited,Altium Designer,22.4.2 (48)*
G04*
G04 Layer_Color=8388736*
%FSLAX43Y43*%
%MOMM*%
G71*
G04*
G04 #@! TF.SameCoordinates,BF6EAB14-F510-4D30-AECA-DAF16463F929*
G04*
G04*
G04 #@! TF.FilePolarity,Negative*
G04*
G01*
G75*
%ADD16R,1.430X0.830*%
%ADD17R,1.430X1.030*%
%ADD18R,1.030X1.430*%
%ADD19C,2.380*%
%ADD20C,1.830*%
%ADD21C,4.118*%
%ADD22C,0.770*%
%ADD23C,1.546*%
%ADD24R,1.546X1.546*%
%ADD25C,1.400*%
D16*
X71900Y86600D02*
D03*
Y88500D02*
D03*
D17*
X83832Y88832D02*
D03*
Y90732D02*
D03*
D18*
X87900Y88900D02*
D03*
X89800D02*
D03*
D19*
X61690Y77540D02*
D03*
X68010Y80080D02*
D03*
X87060D02*
D03*
X80740Y77540D02*
D03*
X99790D02*
D03*
X106110Y80080D02*
D03*
X125160D02*
D03*
X118840Y77540D02*
D03*
X61690Y58490D02*
D03*
X68010Y61030D02*
D03*
X87060D02*
D03*
X80740Y58490D02*
D03*
X99790D02*
D03*
X106110Y61030D02*
D03*
X125160D02*
D03*
X118840Y58490D02*
D03*
X61690Y39440D02*
D03*
X68010Y41980D02*
D03*
X87060D02*
D03*
X80740Y39440D02*
D03*
X99790D02*
D03*
X106110Y41980D02*
D03*
X125160D02*
D03*
X118840Y39440D02*
D03*
X61690Y20390D02*
D03*
X68010Y22930D02*
D03*
X87060D02*
D03*
X80740Y20390D02*
D03*
X99790D02*
D03*
X106110Y22930D02*
D03*
X125160D02*
D03*
X118840Y20390D02*
D03*
D20*
X70500Y75000D02*
D03*
X60500D02*
D03*
X79550D02*
D03*
X89550D02*
D03*
X108600D02*
D03*
X98600D02*
D03*
X117650D02*
D03*
X127650D02*
D03*
X70500Y55950D02*
D03*
X60500D02*
D03*
X79550D02*
D03*
X89550D02*
D03*
X108600D02*
D03*
X98600D02*
D03*
X117650D02*
D03*
X127650D02*
D03*
X70500Y36900D02*
D03*
X60500D02*
D03*
X79550D02*
D03*
X89550D02*
D03*
X108600D02*
D03*
X98600D02*
D03*
X117650D02*
D03*
X127650D02*
D03*
X70500Y17850D02*
D03*
X60500D02*
D03*
X79550D02*
D03*
X89550D02*
D03*
X108600D02*
D03*
X98600D02*
D03*
X117650D02*
D03*
X127650D02*
D03*
D21*
X65500Y75000D02*
D03*
X84550D02*
D03*
X103600D02*
D03*
X122650D02*
D03*
X65500Y55950D02*
D03*
X84550D02*
D03*
X103600D02*
D03*
X122650D02*
D03*
X65500Y36900D02*
D03*
X84550D02*
D03*
X103600D02*
D03*
X122650D02*
D03*
X65500Y17850D02*
D03*
X84550D02*
D03*
X103600D02*
D03*
X122650D02*
D03*
D22*
X122355Y96845D02*
D03*
X116575D02*
D03*
D23*
X62200Y95800D02*
D03*
D24*
Y98340D02*
D03*
D25*
X96875Y91925D02*
D03*
X92375Y96250D02*
D03*
X97125Y88500D02*
D03*
X92025Y90150D02*
D03*
X60375Y82275D02*
D03*
X74275Y82100D02*
D03*
X98075Y80425D02*
D03*
X101800Y99900D02*
D03*
X99900Y93700D02*
D03*
Y91100D02*
D03*
X103960Y86900D02*
D03*
X69200Y91500D02*
D03*
X95900Y15700D02*
D03*
X100100Y88600D02*
D03*
X93605Y34495D02*
D03*
X92400Y52900D02*
D03*
X90800Y72900D02*
D03*
X91500Y87600D02*
D03*
X83000Y86300D02*
D03*
X61800Y80000D02*
D03*
X114700Y88100D02*
D03*
X124300Y90100D02*
D03*
X73800Y86200D02*
D03*
X81400Y88600D02*
D03*
X81200Y90500D02*
D03*
X89900Y86700D02*
D03*
X88100Y86600D02*
D03*
X117500Y93300D02*
D03*
X119800Y89300D02*
D03*
M02*
