G04*
G04 #@! TF.GenerationSoftware,Altium Limited,Altium Designer,22.4.2 (48)*
G04*
G04 Layer_Color=255*
%FSLAX43Y43*%
%MOMM*%
G71*
G04*
G04 #@! TF.SameCoordinates,BF6EAB14-F510-4D30-AECA-DAF16463F929*
G04*
G04*
G04 #@! TF.FilePolarity,Positive*
G04*
G01*
G75*
%ADD13R,1.300X0.700*%
%ADD14R,1.300X0.900*%
%ADD15R,0.900X1.300*%
%ADD28C,2.250*%
%ADD29C,1.700*%
%ADD30C,3.988*%
%ADD31C,0.650*%
%ADD32C,1.416*%
%ADD33R,1.416X1.416*%
D13*
X71900Y86600D02*
D03*
Y88500D02*
D03*
D14*
X83832Y88832D02*
D03*
Y90732D02*
D03*
D15*
X87900Y88900D02*
D03*
X89800D02*
D03*
D28*
X61690Y77540D02*
D03*
X68010Y80080D02*
D03*
X87060D02*
D03*
X80740Y77540D02*
D03*
X99790D02*
D03*
X106110Y80080D02*
D03*
X125160D02*
D03*
X118840Y77540D02*
D03*
X61690Y58490D02*
D03*
X68010Y61030D02*
D03*
X87060D02*
D03*
X80740Y58490D02*
D03*
X99790D02*
D03*
X106110Y61030D02*
D03*
X125160D02*
D03*
X118840Y58490D02*
D03*
X61690Y39440D02*
D03*
X68010Y41980D02*
D03*
X87060D02*
D03*
X80740Y39440D02*
D03*
X99790D02*
D03*
X106110Y41980D02*
D03*
X125160D02*
D03*
X118840Y39440D02*
D03*
X61690Y20390D02*
D03*
X68010Y22930D02*
D03*
X87060D02*
D03*
X80740Y20390D02*
D03*
X99790D02*
D03*
X106110Y22930D02*
D03*
X125160D02*
D03*
X118840Y20390D02*
D03*
D29*
X70500Y75000D02*
D03*
X60500D02*
D03*
X79550D02*
D03*
X89550D02*
D03*
X108600D02*
D03*
X98600D02*
D03*
X117650D02*
D03*
X127650D02*
D03*
X70500Y55950D02*
D03*
X60500D02*
D03*
X79550D02*
D03*
X89550D02*
D03*
X108600D02*
D03*
X98600D02*
D03*
X117650D02*
D03*
X127650D02*
D03*
X70500Y36900D02*
D03*
X60500D02*
D03*
X79550D02*
D03*
X89550D02*
D03*
X108600D02*
D03*
X98600D02*
D03*
X117650D02*
D03*
X127650D02*
D03*
X70500Y17850D02*
D03*
X60500D02*
D03*
X79550D02*
D03*
X89550D02*
D03*
X108600D02*
D03*
X98600D02*
D03*
X117650D02*
D03*
X127650D02*
D03*
D30*
X65500Y75000D02*
D03*
X84550D02*
D03*
X103600D02*
D03*
X122650D02*
D03*
X65500Y55950D02*
D03*
X84550D02*
D03*
X103600D02*
D03*
X122650D02*
D03*
X65500Y36900D02*
D03*
X84550D02*
D03*
X103600D02*
D03*
X122650D02*
D03*
X65500Y17850D02*
D03*
X84550D02*
D03*
X103600D02*
D03*
X122650D02*
D03*
D31*
X122355Y96845D02*
D03*
X116575D02*
D03*
D32*
X62200Y95800D02*
D03*
D33*
Y98340D02*
D03*
M02*
