G04*
G04 #@! TF.GenerationSoftware,Altium Limited,Altium Designer,22.4.2 (48)*
G04*
G04 Layer_Physical_Order=1*
G04 Layer_Color=255*
%FSLAX43Y43*%
%MOMM*%
G71*
G04*
G04 #@! TF.SameCoordinates,7CDC7E1B-FB1A-4DC3-94F8-FCEB5F2CDCB9*
G04*
G04*
G04 #@! TF.FilePolarity,Positive*
G04*
G01*
G75*
%ADD12C,0.254*%
%ADD13R,1.300X0.700*%
%ADD14R,1.300X0.900*%
%ADD15R,0.900X1.300*%
%ADD26C,0.500*%
%ADD27C,0.625*%
%ADD28C,0.650*%
%ADD29C,2.250*%
%ADD30C,3.988*%
%ADD31C,1.700*%
%ADD32C,1.416*%
%ADD33R,1.416X1.416*%
%ADD34C,1.270*%
G36*
X129600Y91500D02*
Y83200D01*
X115317D01*
X100808Y97708D01*
X100621Y97834D01*
X100400Y97878D01*
X93549D01*
X93328Y97834D01*
X93140Y97708D01*
X92554Y97122D01*
X92492Y97139D01*
X92258D01*
X92032Y97078D01*
X91829Y96961D01*
X91664Y96796D01*
X91547Y96593D01*
X91486Y96367D01*
Y96133D01*
X91547Y95907D01*
X91664Y95704D01*
X91829Y95539D01*
X92032Y95422D01*
X92258Y95361D01*
X92492D01*
X92718Y95422D01*
X92921Y95539D01*
X93086Y95704D01*
X93203Y95907D01*
X93264Y96133D01*
Y96198D01*
X93788Y96722D01*
X100161D01*
X113566Y83317D01*
X113517Y83200D01*
X102578D01*
Y89100D01*
X102534Y89321D01*
X102408Y89508D01*
X100789Y91128D01*
Y91217D01*
X100728Y91443D01*
X100611Y91646D01*
X100446Y91811D01*
X100243Y91928D01*
X100017Y91989D01*
X99783D01*
X99557Y91928D01*
X99354Y91811D01*
X99189Y91646D01*
X99072Y91443D01*
X99011Y91217D01*
Y90983D01*
X99072Y90757D01*
X99189Y90554D01*
X99354Y90389D01*
X99557Y90272D01*
X99783Y90211D01*
X100017D01*
X100061Y90223D01*
X101422Y88861D01*
Y83200D01*
X99620D01*
X99525Y78897D01*
X99258Y78825D01*
X98943Y78643D01*
X98793Y78493D01*
X96640Y78473D01*
X96550Y78563D01*
Y83128D01*
X96577Y83200D01*
X96478D01*
Y84161D01*
X100028Y87711D01*
X100217D01*
X100443Y87772D01*
X100646Y87889D01*
X100811Y88054D01*
X100928Y88257D01*
X100989Y88483D01*
Y88717D01*
X100928Y88943D01*
X100811Y89146D01*
X100646Y89311D01*
X100443Y89428D01*
X100217Y89489D01*
X99983D01*
X99757Y89428D01*
X99554Y89311D01*
X99389Y89146D01*
X99272Y88943D01*
X99211Y88717D01*
Y88528D01*
X95492Y84808D01*
X95366Y84621D01*
X95322Y84400D01*
Y83200D01*
X94778D01*
Y87561D01*
X95339Y88122D01*
X95424D01*
X95473Y88090D01*
X95694Y88046D01*
X96361D01*
X96414Y87954D01*
X96579Y87789D01*
X96782Y87672D01*
X97008Y87611D01*
X97242D01*
X97468Y87672D01*
X97671Y87789D01*
X97836Y87954D01*
X97953Y88157D01*
X98014Y88383D01*
Y88617D01*
X97953Y88843D01*
X97836Y89046D01*
X97671Y89211D01*
X97468Y89328D01*
X97242Y89389D01*
X97008D01*
X96782Y89328D01*
X96579Y89211D01*
X96569Y89201D01*
X95888D01*
X95839Y89234D01*
X95618Y89278D01*
X95100D01*
X94879Y89234D01*
X94692Y89108D01*
X93792Y88208D01*
X93666Y88021D01*
X93622Y87800D01*
Y83200D01*
X93414D01*
Y89067D01*
X93375Y89263D01*
X93263Y89430D01*
X92860Y89833D01*
X92914Y90033D01*
Y90267D01*
X92853Y90493D01*
X92736Y90696D01*
X92571Y90861D01*
X92368Y90978D01*
X92142Y91039D01*
X91908D01*
X91682Y90978D01*
X91479Y90861D01*
X91314Y90696D01*
X91197Y90493D01*
X91136Y90267D01*
Y90033D01*
X91197Y89807D01*
X91314Y89604D01*
X91479Y89439D01*
X91682Y89322D01*
X91908Y89261D01*
X91979D01*
X92386Y88854D01*
Y88097D01*
X92259Y88063D01*
X92211Y88146D01*
X92046Y88311D01*
X91843Y88428D01*
X91617Y88489D01*
X91383D01*
X91157Y88428D01*
X90954Y88311D01*
X90789Y88146D01*
X90672Y87943D01*
X90611Y87717D01*
Y87483D01*
X90632Y87405D01*
X90518Y87339D01*
X90446Y87411D01*
X90288Y87502D01*
Y87996D01*
X90504D01*
Y89804D01*
X90209D01*
Y89955D01*
X90169Y90152D01*
X90058Y90319D01*
X89095Y91282D01*
X88979Y91359D01*
X89018Y91486D01*
X96102D01*
X96164Y91379D01*
X96329Y91214D01*
X96532Y91097D01*
X96758Y91036D01*
X96992D01*
X97218Y91097D01*
X97421Y91214D01*
X97586Y91379D01*
X97703Y91582D01*
X97764Y91808D01*
Y92042D01*
X97703Y92268D01*
X97586Y92471D01*
X97421Y92636D01*
X97218Y92753D01*
X96992Y92814D01*
X96758D01*
X96532Y92753D01*
X96329Y92636D01*
X96207Y92514D01*
X80300D01*
X80103Y92475D01*
X79937Y92363D01*
X75537Y87963D01*
X75425Y87797D01*
X75386Y87600D01*
Y85713D01*
X73987Y84314D01*
X69783D01*
X69587Y84275D01*
X69420Y84163D01*
X68456Y83200D01*
X62283D01*
X62234Y83317D01*
X67008Y88092D01*
X67022Y88112D01*
X70996D01*
Y87896D01*
X71773D01*
Y88500D01*
Y89104D01*
X70996D01*
Y88888D01*
X67022D01*
X67008Y88908D01*
X66821Y89034D01*
X66600Y89078D01*
X66379Y89034D01*
X66192Y88908D01*
X60483Y83200D01*
X58690D01*
X58600Y83290D01*
X58600Y84000D01*
X58600Y98611D01*
X61238D01*
Y97378D01*
X63162D01*
Y98611D01*
X90219D01*
X90267Y98494D01*
X89244Y97470D01*
X89132Y97304D01*
X89093Y97107D01*
Y96693D01*
X89132Y96496D01*
X89244Y96330D01*
X91737Y93837D01*
X91903Y93725D01*
X92100Y93686D01*
X99009D01*
X99011Y93684D01*
Y93583D01*
X99072Y93357D01*
X99189Y93154D01*
X99354Y92989D01*
X99557Y92872D01*
X99783Y92811D01*
X100017D01*
X100243Y92872D01*
X100446Y92989D01*
X100611Y93154D01*
X100728Y93357D01*
X100789Y93583D01*
Y93817D01*
X100728Y94043D01*
X100611Y94246D01*
X100446Y94411D01*
X100243Y94528D01*
X100017Y94589D01*
X99783D01*
X99607Y94542D01*
X99585Y94563D01*
X99419Y94675D01*
X99222Y94714D01*
X92313D01*
X90127Y96900D01*
X91838Y98611D01*
X123600D01*
X129600Y91500D01*
D02*
G37*
G36*
X89025Y89898D02*
X89096Y89804D01*
X89096D01*
X89096Y89804D01*
Y87996D01*
X89512D01*
Y87502D01*
X89354Y87411D01*
X89189Y87246D01*
X89072Y87043D01*
X89052Y86971D01*
X88980Y86955D01*
X88918Y86961D01*
X88811Y87146D01*
X88646Y87311D01*
X88443Y87428D01*
X88217Y87489D01*
X88188D01*
Y87996D01*
X88604D01*
Y89804D01*
X87196D01*
Y87996D01*
X87412D01*
Y87175D01*
X87413Y87170D01*
X87389Y87146D01*
X87272Y86943D01*
X87211Y86717D01*
Y86483D01*
X87272Y86257D01*
X87389Y86054D01*
X87554Y85889D01*
X87757Y85772D01*
X87983Y85711D01*
X88217D01*
X88443Y85772D01*
X88646Y85889D01*
X88811Y86054D01*
X88928Y86257D01*
X88948Y86329D01*
X89020Y86345D01*
X89082Y86339D01*
X89189Y86154D01*
X89354Y85989D01*
X89557Y85872D01*
X89783Y85811D01*
X90017D01*
X90243Y85872D01*
X90446Y85989D01*
X90595Y86138D01*
X90722Y86116D01*
Y83200D01*
X83514D01*
Y85570D01*
X83546Y85589D01*
X83711Y85754D01*
X83828Y85957D01*
X83889Y86183D01*
Y86417D01*
X83828Y86643D01*
X83711Y86846D01*
X83546Y87011D01*
X83343Y87128D01*
X83117Y87189D01*
X82883D01*
X82657Y87128D01*
X82454Y87011D01*
X82289Y86846D01*
X82172Y86643D01*
X82111Y86417D01*
Y86183D01*
X82172Y85957D01*
X82289Y85754D01*
X82454Y85589D01*
X82486Y85570D01*
Y83200D01*
X76358D01*
X76309Y83317D01*
X80871Y87879D01*
X81057Y87772D01*
X81273Y87714D01*
Y88600D01*
X81527D01*
Y87714D01*
X81743Y87772D01*
X81946Y87889D01*
X82111Y88054D01*
X82228Y88257D01*
X82245Y88318D01*
X82928D01*
Y88128D01*
X83705D01*
Y88832D01*
Y89536D01*
X82928D01*
Y89346D01*
X81886D01*
X81743Y89428D01*
X81517Y89489D01*
X81352D01*
X81336Y89616D01*
X81543Y89672D01*
X81746Y89789D01*
X81911Y89954D01*
X82028Y90157D01*
X82045Y90218D01*
X82928D01*
Y90028D01*
X84736D01*
Y90405D01*
X88518D01*
X89025Y89898D01*
D02*
G37*
G36*
X92386Y87103D02*
Y83200D01*
X91878D01*
Y86751D01*
X91910Y86799D01*
X91913Y86812D01*
X92046Y86889D01*
X92211Y87054D01*
X92259Y87137D01*
X92386Y87103D01*
D02*
G37*
G36*
X80971Y91359D02*
X80857Y91328D01*
X80654Y91211D01*
X80489Y91046D01*
X80372Y90843D01*
X80311Y90617D01*
Y90383D01*
X80372Y90157D01*
X80489Y89954D01*
X80654Y89789D01*
X80857Y89672D01*
X81083Y89611D01*
X81248D01*
X81264Y89484D01*
X81057Y89428D01*
X80854Y89311D01*
X80689Y89146D01*
X80634Y89051D01*
X80431Y89010D01*
X80243Y88885D01*
X74558Y83200D01*
X74418D01*
X74397Y83325D01*
X74563Y83437D01*
X76263Y85137D01*
X76375Y85303D01*
X76414Y85500D01*
Y87387D01*
X80513Y91486D01*
X80955D01*
X80971Y91359D01*
D02*
G37*
%LPC*%
G36*
X122470Y97424D02*
X122240D01*
X122027Y97336D01*
X121864Y97173D01*
X121776Y96960D01*
Y96730D01*
X121864Y96517D01*
X122027Y96354D01*
X122240Y96266D01*
X122470D01*
X122683Y96354D01*
X122846Y96517D01*
X122934Y96730D01*
Y96960D01*
X122846Y97173D01*
X122683Y97336D01*
X122470Y97424D01*
D02*
G37*
G36*
X116690D02*
X116460D01*
X116247Y97336D01*
X116084Y97173D01*
X115996Y96960D01*
Y96730D01*
X116084Y96517D01*
X116247Y96354D01*
X116460Y96266D01*
X116690D01*
X116903Y96354D01*
X117066Y96517D01*
X117154Y96730D01*
Y96960D01*
X117066Y97173D01*
X116903Y97336D01*
X116690Y97424D01*
D02*
G37*
G36*
X62327Y96762D02*
X62073D01*
X61829Y96696D01*
X61609Y96570D01*
X61430Y96391D01*
X61304Y96171D01*
X61238Y95927D01*
Y95673D01*
X61304Y95429D01*
X61430Y95209D01*
X61609Y95030D01*
X61829Y94904D01*
X62073Y94838D01*
X62327D01*
X62571Y94904D01*
X62791Y95030D01*
X62970Y95209D01*
X63096Y95429D01*
X63162Y95673D01*
Y95927D01*
X63096Y96171D01*
X62970Y96391D01*
X62791Y96570D01*
X62571Y96696D01*
X62327Y96762D01*
D02*
G37*
G36*
X69327Y92386D02*
Y91627D01*
X70086D01*
X70028Y91843D01*
X69911Y92046D01*
X69746Y92211D01*
X69543Y92328D01*
X69327Y92386D01*
D02*
G37*
G36*
X69073D02*
X68857Y92328D01*
X68654Y92211D01*
X68489Y92046D01*
X68372Y91843D01*
X68314Y91627D01*
X69073D01*
Y92386D01*
D02*
G37*
G36*
X70086Y91373D02*
X69327D01*
Y90614D01*
X69543Y90672D01*
X69746Y90789D01*
X69911Y90954D01*
X70028Y91157D01*
X70086Y91373D01*
D02*
G37*
G36*
X69073D02*
X68314D01*
X68372Y91157D01*
X68489Y90954D01*
X68654Y90789D01*
X68857Y90672D01*
X69073Y90614D01*
Y91373D01*
D02*
G37*
G36*
X124427Y90986D02*
Y90227D01*
X125186D01*
X125128Y90443D01*
X125011Y90646D01*
X124846Y90811D01*
X124643Y90928D01*
X124427Y90986D01*
D02*
G37*
G36*
X124173D02*
X123957Y90928D01*
X123754Y90811D01*
X123589Y90646D01*
X123472Y90443D01*
X123414Y90227D01*
X124173D01*
Y90986D01*
D02*
G37*
G36*
X125186Y89973D02*
X124427D01*
Y89214D01*
X124643Y89272D01*
X124846Y89389D01*
X125011Y89554D01*
X125128Y89757D01*
X125186Y89973D01*
D02*
G37*
G36*
X117617Y94189D02*
X117383D01*
X117157Y94128D01*
X116954Y94011D01*
X116789Y93846D01*
X116672Y93643D01*
X116611Y93417D01*
Y93183D01*
X116672Y92957D01*
X116789Y92754D01*
X116954Y92589D01*
X117157Y92472D01*
X117383Y92411D01*
X117617D01*
X117843Y92472D01*
X118046Y92589D01*
X118211Y92754D01*
X118328Y92957D01*
X118351Y93040D01*
X118911D01*
X119412Y92539D01*
Y90102D01*
X119254Y90011D01*
X119089Y89846D01*
X118972Y89643D01*
X118911Y89417D01*
Y89183D01*
X118972Y88957D01*
X119089Y88754D01*
X119227Y88615D01*
X119189Y88488D01*
X115502D01*
X115411Y88646D01*
X115246Y88811D01*
X115043Y88928D01*
X114827Y88986D01*
Y88100D01*
Y87214D01*
X115043Y87272D01*
X115246Y87389D01*
X115411Y87554D01*
X115502Y87712D01*
X122300D01*
X122449Y87741D01*
X122575Y87825D01*
X124007Y89258D01*
X124173Y89214D01*
Y89973D01*
X123414D01*
X123458Y89807D01*
X122139Y88488D01*
X120411D01*
X120373Y88615D01*
X120511Y88754D01*
X120628Y88957D01*
X120689Y89183D01*
Y89417D01*
X120628Y89643D01*
X120511Y89846D01*
X120346Y90011D01*
X120188Y90102D01*
Y92700D01*
X120159Y92849D01*
X120075Y92975D01*
X119346Y93703D01*
X119220Y93787D01*
X119071Y93817D01*
X118228D01*
X118211Y93846D01*
X118046Y94011D01*
X117843Y94128D01*
X117617Y94189D01*
D02*
G37*
G36*
X72804Y89104D02*
X72027D01*
Y88627D01*
X72804D01*
Y89104D01*
D02*
G37*
G36*
X114573Y88986D02*
X114357Y88928D01*
X114154Y88811D01*
X113989Y88646D01*
X113872Y88443D01*
X113814Y88227D01*
X114573D01*
Y88986D01*
D02*
G37*
G36*
X72804Y88373D02*
X72027D01*
Y87896D01*
X72804D01*
Y88373D01*
D02*
G37*
G36*
X114573Y87973D02*
X113814D01*
X113872Y87757D01*
X113989Y87554D01*
X114154Y87389D01*
X114357Y87272D01*
X114573Y87214D01*
Y87973D01*
D02*
G37*
G36*
X104087Y87786D02*
Y87027D01*
X104847D01*
X104789Y87243D01*
X104672Y87446D01*
X104506Y87611D01*
X104303Y87728D01*
X104087Y87786D01*
D02*
G37*
G36*
X103833D02*
X103617Y87728D01*
X103414Y87611D01*
X103249Y87446D01*
X103132Y87243D01*
X103074Y87027D01*
X103833D01*
Y87786D01*
D02*
G37*
G36*
X104847Y86773D02*
X104087D01*
Y86014D01*
X104303Y86072D01*
X104506Y86189D01*
X104672Y86354D01*
X104789Y86557D01*
X104847Y86773D01*
D02*
G37*
G36*
X103833D02*
X103074D01*
X103132Y86557D01*
X103249Y86354D01*
X103414Y86189D01*
X103617Y86072D01*
X103833Y86014D01*
Y86773D01*
D02*
G37*
G36*
X72804Y87204D02*
X70996D01*
Y85996D01*
X71987D01*
X72192Y85792D01*
X72379Y85666D01*
X72600Y85622D01*
X73120D01*
X73254Y85489D01*
X73457Y85372D01*
X73683Y85311D01*
X73917D01*
X74143Y85372D01*
X74346Y85489D01*
X74511Y85654D01*
X74628Y85857D01*
X74689Y86083D01*
Y86317D01*
X74628Y86543D01*
X74511Y86746D01*
X74346Y86911D01*
X74143Y87028D01*
X73917Y87089D01*
X73683D01*
X73457Y87028D01*
X73254Y86911D01*
X73120Y86778D01*
X72839D01*
X72804Y86813D01*
Y87204D01*
D02*
G37*
G36*
X98202Y81311D02*
Y80552D01*
X98961D01*
X98903Y80768D01*
X98786Y80971D01*
X98621Y81136D01*
X98418Y81253D01*
X98202Y81311D01*
D02*
G37*
G36*
X97948D02*
X97732Y81253D01*
X97529Y81136D01*
X97364Y80971D01*
X97247Y80768D01*
X97189Y80552D01*
X97948D01*
Y81311D01*
D02*
G37*
G36*
X98961Y80298D02*
X98202D01*
Y79539D01*
X98418Y79597D01*
X98621Y79714D01*
X98786Y79879D01*
X98903Y80082D01*
X98961Y80298D01*
D02*
G37*
G36*
X97948D02*
X97189D01*
X97247Y80082D01*
X97364Y79879D01*
X97529Y79714D01*
X97732Y79597D01*
X97948Y79539D01*
Y80298D01*
D02*
G37*
G36*
X84736Y89536D02*
X83959D01*
Y88959D01*
X84736D01*
Y89536D01*
D02*
G37*
G36*
Y88705D02*
X83959D01*
Y88128D01*
X84736D01*
Y88705D01*
D02*
G37*
%LPD*%
D12*
X66600Y88500D02*
X71900D01*
X89900Y86700D02*
Y88900D01*
X118840Y57953D02*
Y58490D01*
Y39003D02*
Y39440D01*
X99790Y77000D02*
Y77540D01*
X117629Y93429D02*
X119071D01*
X119800Y89800D02*
Y92700D01*
X119071Y93429D02*
X119800Y92700D01*
X114700Y88100D02*
X122300D01*
X124300Y90100D01*
X71900Y86600D02*
X72200D01*
X87800Y87175D02*
Y88900D01*
X88100Y86600D02*
Y86875D01*
X87800Y87175D02*
X88100Y86875D01*
X117500Y93300D02*
X117629Y93429D01*
D13*
X71900Y86600D02*
D03*
Y88500D02*
D03*
D14*
X83832Y88832D02*
D03*
Y90732D02*
D03*
D15*
X87900Y88900D02*
D03*
X89800D02*
D03*
D26*
X80300Y92000D02*
X96800D01*
X96875Y91925D01*
X81841Y88832D02*
X83832D01*
X81400Y88600D02*
X81608D01*
X81841Y88832D01*
X81408Y90500D02*
X81641Y90732D01*
X83832D01*
X81200Y90500D02*
X81408D01*
X83832Y90732D02*
X84019Y90919D01*
X75900Y87600D02*
X80300Y92000D01*
X92025Y89942D02*
X92900Y89067D01*
Y53578D02*
Y89067D01*
X92025Y89942D02*
Y90150D01*
X64400Y82600D02*
X68583D01*
X61800Y80000D02*
X64400Y82600D01*
X92400Y53078D02*
X92900Y53578D01*
X84019Y90919D02*
X88731D01*
X89695Y89955D01*
Y89005D02*
X89800Y88900D01*
X89695Y89005D02*
Y89955D01*
X89607Y96693D02*
X92100Y94200D01*
X89607Y96693D02*
Y97107D01*
X92400Y99900D02*
X101800D01*
X89607Y97107D02*
X92400Y99900D01*
X92100Y94200D02*
X99222D01*
X99722Y93700D01*
X99900D01*
X92400Y52900D02*
Y53078D01*
X74200Y83800D02*
X75900Y85500D01*
X69783Y83800D02*
X74200D01*
X68583Y82600D02*
X69783Y83800D01*
X75900Y85500D02*
Y87600D01*
X61690Y57953D02*
Y67440D01*
Y48390D02*
X62300Y49000D01*
Y57343D01*
X61690Y57953D02*
X62300Y57343D01*
X61690Y67440D02*
X62400Y68150D01*
X61690Y77000D02*
X62400Y76290D01*
Y68150D02*
Y76290D01*
X61690Y20390D02*
Y29340D01*
X62400Y30050D01*
Y38293D01*
X61690Y39003D02*
Y48390D01*
Y39003D02*
X62400Y38293D01*
X80740Y57953D02*
Y67440D01*
Y48390D02*
X81350Y49000D01*
Y57343D01*
X80740Y57953D02*
X81350Y57343D01*
X80740Y67440D02*
X81450Y68150D01*
X80740Y77000D02*
X81450Y76290D01*
Y68150D02*
Y76290D01*
X80740Y20390D02*
Y29340D01*
X81450Y30050D01*
Y38293D01*
X80740Y39003D02*
Y48390D01*
Y39003D02*
X81450Y38293D01*
X83000Y79798D02*
Y86300D01*
X80740Y77538D02*
X83000Y79798D01*
D27*
X93549Y97300D02*
X100400D01*
X92375Y96250D02*
X92499D01*
X93549Y97300D01*
X95618Y88700D02*
X95694Y88623D01*
X95100Y88700D02*
X95618D01*
X97002Y88623D02*
X97125Y88500D01*
X95694Y88623D02*
X97002D01*
X81277Y88477D02*
X81400Y88600D01*
X74275Y82100D02*
X80652Y88477D01*
X81277D01*
X60375Y82275D02*
X66600Y88500D01*
X95900Y15700D02*
Y84400D01*
X100100Y88600D01*
X100400Y97300D02*
X118667Y79033D01*
Y77713D02*
X118840Y77540D01*
X118667Y77713D02*
Y79033D01*
X99790Y77538D02*
X102000Y79748D01*
X100000Y91100D02*
X102000Y89100D01*
Y79748D02*
Y89100D01*
X99900Y91100D02*
X100000D01*
X91100Y74547D02*
X91300Y74747D01*
X90800Y73075D02*
X91100Y73375D01*
X91300Y74747D02*
Y86944D01*
X90800Y72900D02*
Y73075D01*
X91100Y73375D02*
Y74547D01*
X91300Y86944D02*
X91377Y87021D01*
Y87477D01*
X91500Y87600D01*
X94200Y87800D02*
X95100Y88700D01*
X93605Y34495D02*
Y34589D01*
X94200Y35184D02*
Y87800D01*
X93605Y34589D02*
X94200Y35184D01*
X118840Y58490D02*
Y67440D01*
Y39440D02*
Y48390D01*
X119450Y49000D01*
Y57343D01*
X118840Y57953D02*
X119450Y57343D01*
X118840Y67440D02*
X119550Y68150D01*
X118840Y77000D02*
X119550Y76290D01*
Y68150D02*
Y76290D01*
X118840Y20390D02*
Y29340D01*
X119550Y30050D01*
Y38293D01*
X118840Y39003D02*
X119550Y38293D01*
X99790Y39003D02*
X100500Y38293D01*
X99790Y39003D02*
Y48390D01*
X100500Y30050D02*
Y38293D01*
X99790Y29340D02*
X100500Y30050D01*
X99790Y20390D02*
Y29340D01*
X100500Y68150D02*
Y76290D01*
X99790Y77000D02*
X100500Y76290D01*
X99790Y67440D02*
X100500Y68150D01*
X99790Y57953D02*
X100400Y57343D01*
Y49000D02*
Y57343D01*
X99790Y48390D02*
X100400Y49000D01*
X99790Y57953D02*
Y67440D01*
X72200Y86600D02*
X72600Y86200D01*
X73800D01*
D28*
X122355Y96845D02*
D03*
X116575D02*
D03*
D29*
X87060Y61030D02*
D03*
X80740Y58490D02*
D03*
X87060Y80080D02*
D03*
X80740Y77540D02*
D03*
X125160Y80080D02*
D03*
X118840Y77540D02*
D03*
X61690Y20390D02*
D03*
X68010Y22930D02*
D03*
X80740Y20390D02*
D03*
X87060Y22930D02*
D03*
X99790Y20390D02*
D03*
X106110Y22930D02*
D03*
X118840Y20390D02*
D03*
X125160Y22930D02*
D03*
X61690Y39440D02*
D03*
X68010Y41980D02*
D03*
X80740Y39440D02*
D03*
X87060Y41980D02*
D03*
X118840Y39440D02*
D03*
X125160Y41980D02*
D03*
X99790Y39440D02*
D03*
X106110Y41980D02*
D03*
X118840Y58490D02*
D03*
X125160Y61030D02*
D03*
X99790Y58490D02*
D03*
X106110Y61030D02*
D03*
X61690Y58490D02*
D03*
X68010Y61030D02*
D03*
X99790Y77540D02*
D03*
X106110Y80080D02*
D03*
X61690Y77540D02*
D03*
X68010Y80080D02*
D03*
D30*
X84550Y55950D02*
D03*
Y75000D02*
D03*
X122650D02*
D03*
X65500Y17850D02*
D03*
X84550D02*
D03*
X103600D02*
D03*
X122650D02*
D03*
X65500Y36900D02*
D03*
X84550D02*
D03*
X122650D02*
D03*
X103600D02*
D03*
X122650Y55950D02*
D03*
X103600D02*
D03*
X65500D02*
D03*
X103600Y75000D02*
D03*
X65500D02*
D03*
D31*
X89550Y55950D02*
D03*
X79550D02*
D03*
X89550Y75000D02*
D03*
X79550D02*
D03*
X127650D02*
D03*
X117650D02*
D03*
X60500Y17850D02*
D03*
X70500D02*
D03*
X79550D02*
D03*
X89550D02*
D03*
X98600D02*
D03*
X108600D02*
D03*
X117650D02*
D03*
X127650D02*
D03*
X60500Y36900D02*
D03*
X70500D02*
D03*
X79550D02*
D03*
X89550D02*
D03*
X117650D02*
D03*
X127650D02*
D03*
X98600D02*
D03*
X108600D02*
D03*
X117650Y55950D02*
D03*
X127650D02*
D03*
X98600D02*
D03*
X108600D02*
D03*
X60500D02*
D03*
X70500D02*
D03*
X98600Y75000D02*
D03*
X108600D02*
D03*
X60500D02*
D03*
X70500D02*
D03*
D32*
X62200Y95800D02*
D03*
D33*
Y98340D02*
D03*
D34*
X96875Y91925D02*
D03*
X92375Y96250D02*
D03*
X97125Y88500D02*
D03*
X92025Y90150D02*
D03*
X60375Y82275D02*
D03*
X74275Y82100D02*
D03*
X98075Y80425D02*
D03*
X101800Y99900D02*
D03*
X99900Y93700D02*
D03*
Y91100D02*
D03*
X103960Y86900D02*
D03*
X69200Y91500D02*
D03*
X95900Y15700D02*
D03*
X100100Y88600D02*
D03*
X93605Y34495D02*
D03*
X92400Y52900D02*
D03*
X90800Y72900D02*
D03*
X91500Y87600D02*
D03*
X83000Y86300D02*
D03*
X61800Y80000D02*
D03*
X114700Y88100D02*
D03*
X124300Y90100D02*
D03*
X73800Y86200D02*
D03*
X81400Y88600D02*
D03*
X81200Y90500D02*
D03*
X89900Y86700D02*
D03*
X88100Y86600D02*
D03*
X117500Y93300D02*
D03*
X119800Y89300D02*
D03*
M02*
