G04*
G04 #@! TF.GenerationSoftware,Altium Limited,Altium Designer,22.4.2 (48)*
G04*
G04 Layer_Color=32896*
%FSLAX43Y43*%
%MOMM*%
G71*
G04*
G04 #@! TF.SameCoordinates,BF6EAB14-F510-4D30-AECA-DAF16463F929*
G04*
G04*
G04 #@! TF.FilePolarity,Positive*
G04*
G01*
G75*
%ADD12C,0.254*%
D12*
X64684Y71962D02*
Y70438D01*
Y70946D01*
X65700Y71962D01*
X64938Y71200D01*
X65700Y70438D01*
X66208D02*
X66716D01*
X66462D01*
Y71962D01*
X66208Y71708D01*
X83480Y71962D02*
Y70438D01*
Y70946D01*
X84496Y71962D01*
X83734Y71200D01*
X84496Y70438D01*
X86020D02*
X85004D01*
X86020Y71454D01*
Y71708D01*
X85766Y71962D01*
X85258D01*
X85004Y71708D01*
X102530Y71962D02*
Y70438D01*
Y70946D01*
X103546Y71962D01*
X102784Y71200D01*
X103546Y70438D01*
X104054Y71708D02*
X104308Y71962D01*
X104816D01*
X105070Y71708D01*
Y71454D01*
X104816Y71200D01*
X104562D01*
X104816D01*
X105070Y70946D01*
Y70692D01*
X104816Y70438D01*
X104308D01*
X104054Y70692D01*
X121580Y71962D02*
Y70438D01*
Y70946D01*
X122596Y71962D01*
X121834Y71200D01*
X122596Y70438D01*
X123866D02*
Y71962D01*
X123104Y71200D01*
X124120D01*
X64430Y52912D02*
Y51388D01*
Y51896D01*
X65446Y52912D01*
X64684Y52150D01*
X65446Y51388D01*
X66970Y52912D02*
X65954D01*
Y52150D01*
X66462Y52404D01*
X66716D01*
X66970Y52150D01*
Y51642D01*
X66716Y51388D01*
X66208D01*
X65954Y51642D01*
X83480Y52912D02*
Y51388D01*
Y51896D01*
X84496Y52912D01*
X83734Y52150D01*
X84496Y51388D01*
X86020Y52912D02*
X85512Y52658D01*
X85004Y52150D01*
Y51642D01*
X85258Y51388D01*
X85766D01*
X86020Y51642D01*
Y51896D01*
X85766Y52150D01*
X85004D01*
X102530Y52912D02*
Y51388D01*
Y51896D01*
X103546Y52912D01*
X102784Y52150D01*
X103546Y51388D01*
X104054Y52912D02*
X105070D01*
Y52658D01*
X104054Y51642D01*
Y51388D01*
X121580Y52912D02*
Y51388D01*
Y51896D01*
X122596Y52912D01*
X121834Y52150D01*
X122596Y51388D01*
X123104Y52658D02*
X123358Y52912D01*
X123866D01*
X124120Y52658D01*
Y52404D01*
X123866Y52150D01*
X124120Y51896D01*
Y51642D01*
X123866Y51388D01*
X123358D01*
X123104Y51642D01*
Y51896D01*
X123358Y52150D01*
X123104Y52404D01*
Y52658D01*
X123358Y52150D02*
X123866D01*
X64430Y33862D02*
Y32338D01*
Y32846D01*
X65446Y33862D01*
X64684Y33100D01*
X65446Y32338D01*
X65954Y32592D02*
X66208Y32338D01*
X66716D01*
X66970Y32592D01*
Y33608D01*
X66716Y33862D01*
X66208D01*
X65954Y33608D01*
Y33354D01*
X66208Y33100D01*
X66970D01*
X82846Y33862D02*
Y32338D01*
Y32846D01*
X83861Y33862D01*
X83100Y33100D01*
X83861Y32338D01*
X84369D02*
X84877D01*
X84623D01*
Y33862D01*
X84369Y33608D01*
X85639D02*
X85893Y33862D01*
X86400D01*
X86654Y33608D01*
Y32592D01*
X86400Y32338D01*
X85893D01*
X85639Y32592D01*
Y33608D01*
X102150Y33862D02*
Y32338D01*
Y32846D01*
X103165Y33862D01*
X102403Y33100D01*
X103165Y32338D01*
X103673D02*
X104181D01*
X103927D01*
Y33862D01*
X103673Y33608D01*
X104943Y32338D02*
X105450D01*
X105197D01*
Y33862D01*
X104943Y33608D01*
X120946Y33862D02*
Y32338D01*
Y32846D01*
X121961Y33862D01*
X121200Y33100D01*
X121961Y32338D01*
X122469D02*
X122977D01*
X122723D01*
Y33862D01*
X122469Y33608D01*
X124754Y32338D02*
X123739D01*
X124754Y33354D01*
Y33608D01*
X124500Y33862D01*
X123993D01*
X123739Y33608D01*
X63796Y14812D02*
Y13288D01*
Y13796D01*
X64811Y14812D01*
X64050Y14050D01*
X64811Y13288D01*
X65319D02*
X65827D01*
X65573D01*
Y14812D01*
X65319Y14558D01*
X66589D02*
X66843Y14812D01*
X67350D01*
X67604Y14558D01*
Y14304D01*
X67350Y14050D01*
X67097D01*
X67350D01*
X67604Y13796D01*
Y13542D01*
X67350Y13288D01*
X66843D01*
X66589Y13542D01*
X82846Y14812D02*
Y13288D01*
Y13796D01*
X83861Y14812D01*
X83100Y14050D01*
X83861Y13288D01*
X84369D02*
X84877D01*
X84623D01*
Y14812D01*
X84369Y14558D01*
X86400Y13288D02*
Y14812D01*
X85639Y14050D01*
X86654D01*
X101896Y14812D02*
Y13288D01*
Y13796D01*
X102911Y14812D01*
X102150Y14050D01*
X102911Y13288D01*
X103419D02*
X103927D01*
X103673D01*
Y14812D01*
X103419Y14558D01*
X105704Y14812D02*
X104689D01*
Y14050D01*
X105197Y14304D01*
X105450D01*
X105704Y14050D01*
Y13542D01*
X105450Y13288D01*
X104943D01*
X104689Y13542D01*
X120946Y14812D02*
Y13288D01*
Y13796D01*
X121961Y14812D01*
X121200Y14050D01*
X121961Y13288D01*
X122469D02*
X122977D01*
X122723D01*
Y14812D01*
X122469Y14558D01*
X124754Y14812D02*
X124247Y14558D01*
X123739Y14050D01*
Y13542D01*
X123993Y13288D01*
X124500D01*
X124754Y13542D01*
Y13796D01*
X124500Y14050D01*
X123739D01*
X61804Y91538D02*
Y93062D01*
X61043D01*
X60789Y92808D01*
Y91792D01*
X61043Y91538D01*
X61804D01*
X60281Y93062D02*
X59773D01*
X60027D01*
Y91538D01*
X60281Y91792D01*
X59011Y91538D02*
X57996D01*
Y91792D01*
X59011Y92808D01*
Y93062D01*
M02*
