G04*
G04 #@! TF.GenerationSoftware,Altium Limited,Altium Designer,22.4.2 (48)*
G04*
G04 Layer_Color=16711935*
%FSLAX43Y43*%
%MOMM*%
G71*
G04*
G04 #@! TF.SameCoordinates,BF6EAB14-F510-4D30-AECA-DAF16463F929*
G04*
G04*
G04 #@! TF.FilePolarity,Negative*
G04*
G01*
G75*
%ADD16R,1.430X0.830*%
%ADD17R,1.430X1.030*%
%ADD18R,1.030X1.430*%
%ADD19C,2.380*%
%ADD20C,1.830*%
%ADD21C,4.118*%
%ADD22C,0.770*%
%ADD23C,1.546*%
%ADD24R,1.546X1.546*%
%ADD25C,1.400*%
%ADD48R,2.310X2.130*%
%ADD49R,0.430X1.280*%
%ADD50R,0.730X1.280*%
G04:AMPARAMS|DCode=51|XSize=1.6mm|YSize=0.68mm|CornerRadius=0.134mm|HoleSize=0mm|Usage=FLASHONLY|Rotation=0.000|XOffset=0mm|YOffset=0mm|HoleType=Round|Shape=RoundedRectangle|*
%AMROUNDEDRECTD51*
21,1,1.600,0.413,0,0,0.0*
21,1,1.333,0.680,0,0,0.0*
1,1,0.268,0.666,-0.206*
1,1,0.268,-0.666,-0.206*
1,1,0.268,-0.666,0.206*
1,1,0.268,0.666,0.206*
%
%ADD51ROUNDEDRECTD51*%
G04:AMPARAMS|DCode=52|XSize=1.6mm|YSize=0.68mm|CornerRadius=0.134mm|HoleSize=0mm|Usage=FLASHONLY|Rotation=90.000|XOffset=0mm|YOffset=0mm|HoleType=Round|Shape=RoundedRectangle|*
%AMROUNDEDRECTD52*
21,1,1.600,0.413,0,0,90.0*
21,1,1.333,0.680,0,0,90.0*
1,1,0.268,0.206,0.666*
1,1,0.268,0.206,-0.666*
1,1,0.268,-0.206,-0.666*
1,1,0.268,-0.206,0.666*
%
%ADD52ROUNDEDRECTD52*%
%ADD53R,0.830X1.430*%
%ADD54R,1.040X1.350*%
%ADD55R,1.730X1.530*%
%ADD56R,1.530X1.330*%
%ADD57R,1.130X0.780*%
D16*
X119800Y85700D02*
D03*
Y87600D02*
D03*
X122346Y85700D02*
D03*
Y87600D02*
D03*
X117200Y85700D02*
D03*
Y87600D02*
D03*
X124800Y85800D02*
D03*
Y87700D02*
D03*
D17*
X126500Y89554D02*
D03*
Y91454D02*
D03*
X69300Y93400D02*
D03*
Y95300D02*
D03*
X96900Y97296D02*
D03*
Y95396D02*
D03*
Y84900D02*
D03*
Y86800D02*
D03*
D18*
X110700Y91900D02*
D03*
X112600D02*
D03*
X74100Y91646D02*
D03*
X76000D02*
D03*
X74100Y93900D02*
D03*
X76000D02*
D03*
D19*
X61690Y77540D02*
D03*
X68010Y80080D02*
D03*
X87060D02*
D03*
X80740Y77540D02*
D03*
X99790D02*
D03*
X106110Y80080D02*
D03*
X125160D02*
D03*
X118840Y77540D02*
D03*
X61690Y58490D02*
D03*
X68010Y61030D02*
D03*
X87060D02*
D03*
X80740Y58490D02*
D03*
X99790D02*
D03*
X106110Y61030D02*
D03*
X125160D02*
D03*
X118840Y58490D02*
D03*
X61690Y39440D02*
D03*
X68010Y41980D02*
D03*
X87060D02*
D03*
X80740Y39440D02*
D03*
X99790D02*
D03*
X106110Y41980D02*
D03*
X125160D02*
D03*
X118840Y39440D02*
D03*
X61690Y20390D02*
D03*
X68010Y22930D02*
D03*
X87060D02*
D03*
X80740Y20390D02*
D03*
X99790D02*
D03*
X106110Y22930D02*
D03*
X125160D02*
D03*
X118840Y20390D02*
D03*
D20*
X70500Y75000D02*
D03*
X60500D02*
D03*
X79550D02*
D03*
X89550D02*
D03*
X108600D02*
D03*
X98600D02*
D03*
X117650D02*
D03*
X127650D02*
D03*
X70500Y55950D02*
D03*
X60500D02*
D03*
X79550D02*
D03*
X89550D02*
D03*
X108600D02*
D03*
X98600D02*
D03*
X117650D02*
D03*
X127650D02*
D03*
X70500Y36900D02*
D03*
X60500D02*
D03*
X79550D02*
D03*
X89550D02*
D03*
X108600D02*
D03*
X98600D02*
D03*
X117650D02*
D03*
X127650D02*
D03*
X70500Y17850D02*
D03*
X60500D02*
D03*
X79550D02*
D03*
X89550D02*
D03*
X108600D02*
D03*
X98600D02*
D03*
X117650D02*
D03*
X127650D02*
D03*
D21*
X65500Y75000D02*
D03*
X84550D02*
D03*
X103600D02*
D03*
X122650D02*
D03*
X65500Y55950D02*
D03*
X84550D02*
D03*
X103600D02*
D03*
X122650D02*
D03*
X65500Y36900D02*
D03*
X84550D02*
D03*
X103600D02*
D03*
X122650D02*
D03*
X65500Y17850D02*
D03*
X84550D02*
D03*
X103600D02*
D03*
X122650D02*
D03*
D22*
X122355Y96845D02*
D03*
X116575D02*
D03*
D23*
X62200Y95800D02*
D03*
D24*
Y98340D02*
D03*
D25*
X96875Y91925D02*
D03*
X92375Y96250D02*
D03*
X97125Y88500D02*
D03*
X92025Y90150D02*
D03*
X60375Y82275D02*
D03*
X74275Y82100D02*
D03*
X98075Y80425D02*
D03*
X101800Y99900D02*
D03*
X99900Y93700D02*
D03*
Y91100D02*
D03*
X103960Y86900D02*
D03*
X69200Y91500D02*
D03*
X95900Y15700D02*
D03*
X100100Y88600D02*
D03*
X93605Y34495D02*
D03*
X92400Y52900D02*
D03*
X90800Y72900D02*
D03*
X91500Y87600D02*
D03*
X83000Y86300D02*
D03*
X61800Y80000D02*
D03*
X114700Y88100D02*
D03*
X124300Y90100D02*
D03*
X73800Y86200D02*
D03*
X81400Y88600D02*
D03*
X81200Y90500D02*
D03*
X89900Y86700D02*
D03*
X88100Y86600D02*
D03*
X117500Y93300D02*
D03*
X119800Y89300D02*
D03*
D48*
X124575Y100275D02*
D03*
X114355D02*
D03*
X124575Y96345D02*
D03*
X114355D02*
D03*
D49*
X119715Y95595D02*
D03*
X119215D02*
D03*
X120215D02*
D03*
X118715D02*
D03*
X120715D02*
D03*
X118215D02*
D03*
X121215D02*
D03*
X117715D02*
D03*
D50*
X122665D02*
D03*
X121865D02*
D03*
X117065D02*
D03*
X116265D02*
D03*
D51*
X79246Y86100D02*
D03*
Y86900D02*
D03*
Y87700D02*
D03*
Y88500D02*
D03*
Y89300D02*
D03*
Y90100D02*
D03*
Y90900D02*
D03*
Y91700D02*
D03*
Y92500D02*
D03*
Y93300D02*
D03*
Y94100D02*
D03*
Y94900D02*
D03*
Y95700D02*
D03*
Y96500D02*
D03*
Y97300D02*
D03*
Y98100D02*
D03*
X94586D02*
D03*
Y97300D02*
D03*
Y96500D02*
D03*
Y95700D02*
D03*
Y94900D02*
D03*
Y94100D02*
D03*
Y93300D02*
D03*
Y92500D02*
D03*
Y91700D02*
D03*
Y90900D02*
D03*
Y90100D02*
D03*
Y89300D02*
D03*
Y88500D02*
D03*
Y87700D02*
D03*
Y86900D02*
D03*
Y86100D02*
D03*
D52*
X92916Y84430D02*
D03*
X92116D02*
D03*
X91316D02*
D03*
X90516D02*
D03*
X89716D02*
D03*
X88916D02*
D03*
X88116D02*
D03*
X87316D02*
D03*
X86516D02*
D03*
X85716D02*
D03*
X84916D02*
D03*
X84116D02*
D03*
X83316D02*
D03*
X82516D02*
D03*
X81716D02*
D03*
X80916D02*
D03*
Y99770D02*
D03*
X81716D02*
D03*
X82516D02*
D03*
X83316D02*
D03*
X84116D02*
D03*
X84916D02*
D03*
X85716D02*
D03*
X86516D02*
D03*
X87316D02*
D03*
X88116D02*
D03*
X88916D02*
D03*
X89716D02*
D03*
X90516D02*
D03*
X91316D02*
D03*
X92116D02*
D03*
X92916D02*
D03*
D53*
X64700Y92034D02*
D03*
X62800D02*
D03*
X96600Y99500D02*
D03*
X98500D02*
D03*
D54*
X82915Y69500D02*
D03*
X86185D02*
D03*
X124285Y12350D02*
D03*
X121015D02*
D03*
X105235D02*
D03*
X101965D02*
D03*
X86185D02*
D03*
X82915D02*
D03*
X67135D02*
D03*
X63865D02*
D03*
X124285Y31400D02*
D03*
X121015D02*
D03*
X105235D02*
D03*
X101965D02*
D03*
X86185D02*
D03*
X82915D02*
D03*
X67135D02*
D03*
X63865D02*
D03*
X124285Y50450D02*
D03*
X121015D02*
D03*
X105235D02*
D03*
X101965D02*
D03*
X86185D02*
D03*
X82915D02*
D03*
X67135D02*
D03*
X63865D02*
D03*
X67135Y69500D02*
D03*
X63865D02*
D03*
X124285D02*
D03*
X121015D02*
D03*
X105235D02*
D03*
X101965D02*
D03*
D55*
X75700Y85700D02*
D03*
X68500D02*
D03*
X75700Y88700D02*
D03*
X68500D02*
D03*
D56*
X73800Y96400D02*
D03*
X76000D02*
D03*
X73800Y98600D02*
D03*
X76000D02*
D03*
D57*
X122300Y93400D02*
D03*
Y91850D02*
D03*
X114800Y93300D02*
D03*
Y91750D02*
D03*
M02*
