G04*
G04 #@! TF.GenerationSoftware,Altium Limited,Altium Designer,22.4.2 (48)*
G04*
G04 Layer_Color=128*
%FSLAX43Y43*%
%MOMM*%
G71*
G04*
G04 #@! TF.SameCoordinates,BF6EAB14-F510-4D30-AECA-DAF16463F929*
G04*
G04*
G04 #@! TF.FilePolarity,Positive*
G04*
G01*
G75*
%ADD11C,0.127*%
D11*
X60940Y77540D02*
X62440D01*
X61690Y76790D02*
Y78290D01*
X67260Y80080D02*
X68760D01*
X68010Y79330D02*
Y80830D01*
X69650Y75000D02*
X71350D01*
X70500Y74150D02*
Y75850D01*
X59650Y75000D02*
X61350D01*
X60500Y74150D02*
Y75850D01*
X63506Y75000D02*
X67494D01*
X65500Y73006D02*
Y76994D01*
X82556Y75000D02*
X86544D01*
X84550Y73006D02*
Y76994D01*
X78700Y75000D02*
X80400D01*
X79550Y74150D02*
Y75850D01*
X88700Y75000D02*
X90400D01*
X89550Y74150D02*
Y75850D01*
X86310Y80080D02*
X87810D01*
X87060Y79330D02*
Y80830D01*
X79990Y77540D02*
X81490D01*
X80740Y76790D02*
Y78290D01*
X99040Y77540D02*
X100540D01*
X99790Y76790D02*
Y78290D01*
X105360Y80080D02*
X106860D01*
X106110Y79330D02*
Y80830D01*
X107750Y75000D02*
X109450D01*
X108600Y74150D02*
Y75850D01*
X97750Y75000D02*
X99450D01*
X98600Y74150D02*
Y75850D01*
X101606Y75000D02*
X105594D01*
X103600Y73006D02*
Y76994D01*
X120656Y75000D02*
X124644D01*
X122650Y73006D02*
Y76994D01*
X116800Y75000D02*
X118500D01*
X117650Y74150D02*
Y75850D01*
X126800Y75000D02*
X128500D01*
X127650Y74150D02*
Y75850D01*
X124410Y80080D02*
X125910D01*
X125160Y79330D02*
Y80830D01*
X118090Y77540D02*
X119590D01*
X118840Y76790D02*
Y78290D01*
X60940Y58490D02*
X62440D01*
X61690Y57740D02*
Y59240D01*
X67260Y61030D02*
X68760D01*
X68010Y60280D02*
Y61780D01*
X69650Y55950D02*
X71350D01*
X70500Y55100D02*
Y56800D01*
X59650Y55950D02*
X61350D01*
X60500Y55100D02*
Y56800D01*
X63506Y55950D02*
X67494D01*
X65500Y53956D02*
Y57944D01*
X82556Y55950D02*
X86544D01*
X84550Y53956D02*
Y57944D01*
X78700Y55950D02*
X80400D01*
X79550Y55100D02*
Y56800D01*
X88700Y55950D02*
X90400D01*
X89550Y55100D02*
Y56800D01*
X86310Y61030D02*
X87810D01*
X87060Y60280D02*
Y61780D01*
X79990Y58490D02*
X81490D01*
X80740Y57740D02*
Y59240D01*
X99040Y58490D02*
X100540D01*
X99790Y57740D02*
Y59240D01*
X105360Y61030D02*
X106860D01*
X106110Y60280D02*
Y61780D01*
X107750Y55950D02*
X109450D01*
X108600Y55100D02*
Y56800D01*
X97750Y55950D02*
X99450D01*
X98600Y55100D02*
Y56800D01*
X101606Y55950D02*
X105594D01*
X103600Y53956D02*
Y57944D01*
X120656Y55950D02*
X124644D01*
X122650Y53956D02*
Y57944D01*
X116800Y55950D02*
X118500D01*
X117650Y55100D02*
Y56800D01*
X126800Y55950D02*
X128500D01*
X127650Y55100D02*
Y56800D01*
X124410Y61030D02*
X125910D01*
X125160Y60280D02*
Y61780D01*
X118090Y58490D02*
X119590D01*
X118840Y57740D02*
Y59240D01*
X60940Y39440D02*
X62440D01*
X61690Y38690D02*
Y40190D01*
X67260Y41980D02*
X68760D01*
X68010Y41230D02*
Y42730D01*
X69650Y36900D02*
X71350D01*
X70500Y36050D02*
Y37750D01*
X59650Y36900D02*
X61350D01*
X60500Y36050D02*
Y37750D01*
X63506Y36900D02*
X67494D01*
X65500Y34906D02*
Y38894D01*
X82556Y36900D02*
X86544D01*
X84550Y34906D02*
Y38894D01*
X78700Y36900D02*
X80400D01*
X79550Y36050D02*
Y37750D01*
X88700Y36900D02*
X90400D01*
X89550Y36050D02*
Y37750D01*
X86310Y41980D02*
X87810D01*
X87060Y41230D02*
Y42730D01*
X79990Y39440D02*
X81490D01*
X80740Y38690D02*
Y40190D01*
X99040Y39440D02*
X100540D01*
X99790Y38690D02*
Y40190D01*
X105360Y41980D02*
X106860D01*
X106110Y41230D02*
Y42730D01*
X107750Y36900D02*
X109450D01*
X108600Y36050D02*
Y37750D01*
X97750Y36900D02*
X99450D01*
X98600Y36050D02*
Y37750D01*
X101606Y36900D02*
X105594D01*
X103600Y34906D02*
Y38894D01*
X120656Y36900D02*
X124644D01*
X122650Y34906D02*
Y38894D01*
X116800Y36900D02*
X118500D01*
X117650Y36050D02*
Y37750D01*
X126800Y36900D02*
X128500D01*
X127650Y36050D02*
Y37750D01*
X124410Y41980D02*
X125910D01*
X125160Y41230D02*
Y42730D01*
X118090Y39440D02*
X119590D01*
X118840Y38690D02*
Y40190D01*
X60940Y20390D02*
X62440D01*
X61690Y19640D02*
Y21140D01*
X67260Y22930D02*
X68760D01*
X68010Y22180D02*
Y23680D01*
X69650Y17850D02*
X71350D01*
X70500Y17000D02*
Y18700D01*
X59650Y17850D02*
X61350D01*
X60500Y17000D02*
Y18700D01*
X63506Y17850D02*
X67494D01*
X65500Y15856D02*
Y19844D01*
X82556Y17850D02*
X86544D01*
X84550Y15856D02*
Y19844D01*
X78700Y17850D02*
X80400D01*
X79550Y17000D02*
Y18700D01*
X88700Y17850D02*
X90400D01*
X89550Y17000D02*
Y18700D01*
X86310Y22930D02*
X87810D01*
X87060Y22180D02*
Y23680D01*
X79990Y20390D02*
X81490D01*
X80740Y19640D02*
Y21140D01*
X99040Y20390D02*
X100540D01*
X99790Y19640D02*
Y21140D01*
X105360Y22930D02*
X106860D01*
X106110Y22180D02*
Y23680D01*
X107750Y17850D02*
X109450D01*
X108600Y17000D02*
Y18700D01*
X97750Y17850D02*
X99450D01*
X98600Y17000D02*
Y18700D01*
X101606Y17850D02*
X105594D01*
X103600Y15856D02*
Y19844D01*
X120656Y17850D02*
X124644D01*
X122650Y15856D02*
Y19844D01*
X116800Y17850D02*
X118500D01*
X117650Y17000D02*
Y18700D01*
X126800Y17850D02*
X128500D01*
X127650Y17000D02*
Y18700D01*
X124410Y22930D02*
X125910D01*
X125160Y22180D02*
Y23680D01*
X118090Y20390D02*
X119590D01*
X118840Y19640D02*
Y21140D01*
X122030Y96845D02*
X122680D01*
X122355Y96520D02*
Y97170D01*
X116250Y96845D02*
X116900D01*
X116575Y96520D02*
Y97170D01*
X61745Y95800D02*
X62655D01*
X62200Y95345D02*
Y96255D01*
X61745Y98340D02*
X62655D01*
X62200Y97885D02*
Y98795D01*
X96519Y91925D02*
X97231D01*
X96875Y91569D02*
Y92281D01*
X92019Y96250D02*
X92731D01*
X92375Y95894D02*
Y96606D01*
X96769Y88500D02*
X97481D01*
X97125Y88144D02*
Y88856D01*
X91669Y90150D02*
X92381D01*
X92025Y89794D02*
Y90506D01*
X60019Y82275D02*
X60731D01*
X60375Y81919D02*
Y82631D01*
X73919Y82100D02*
X74631D01*
X74275Y81744D02*
Y82456D01*
X97719Y80425D02*
X98431D01*
X98075Y80069D02*
Y80781D01*
X101444Y99900D02*
X102156D01*
X101800Y99544D02*
Y100256D01*
X99544Y93700D02*
X100256D01*
X99900Y93344D02*
Y94056D01*
X99544Y91100D02*
X100256D01*
X99900Y90744D02*
Y91456D01*
X103605Y86900D02*
X104316D01*
X103960Y86544D02*
Y87256D01*
X68844Y91500D02*
X69556D01*
X69200Y91144D02*
Y91856D01*
X95544Y15700D02*
X96256D01*
X95900Y15344D02*
Y16056D01*
X99744Y88600D02*
X100456D01*
X100100Y88244D02*
Y88956D01*
X93249Y34495D02*
X93960D01*
X93605Y34140D02*
Y34851D01*
X92044Y52900D02*
X92756D01*
X92400Y52544D02*
Y53256D01*
X90444Y72900D02*
X91156D01*
X90800Y72544D02*
Y73256D01*
X91144Y87600D02*
X91856D01*
X91500Y87244D02*
Y87956D01*
X82644Y86300D02*
X83356D01*
X83000Y85944D02*
Y86656D01*
X61444Y80000D02*
X62156D01*
X61800Y79644D02*
Y80356D01*
X114344Y88100D02*
X115056D01*
X114700Y87744D02*
Y88456D01*
X123944Y90100D02*
X124656D01*
X124300Y89744D02*
Y90456D01*
X73444Y86200D02*
X74156D01*
X73800Y85844D02*
Y86556D01*
X81044Y88600D02*
X81756D01*
X81400Y88244D02*
Y88956D01*
X80844Y90500D02*
X81556D01*
X81200Y90144D02*
Y90856D01*
X89544Y86700D02*
X90256D01*
X89900Y86344D02*
Y87056D01*
X87744Y86600D02*
X88456D01*
X88100Y86244D02*
Y86956D01*
X117144Y93300D02*
X117856D01*
X117500Y92944D02*
Y93656D01*
X119444Y89300D02*
X120156D01*
X119800Y88944D02*
Y89656D01*
M02*
