G04*
G04 #@! TF.GenerationSoftware,Altium Limited,Altium Designer,22.4.2 (48)*
G04*
G04 Layer_Color=65535*
%FSLAX43Y43*%
%MOMM*%
G71*
G04*
G04 #@! TF.SameCoordinates,7CDC7E1B-FB1A-4DC3-94F8-FCEB5F2CDCB9*
G04*
G04*
G04 #@! TF.FilePolarity,Positive*
G04*
G01*
G75*
%ADD10C,0.200*%
%ADD11C,0.127*%
%ADD12C,0.254*%
D10*
X64800Y97070D02*
G03*
X59600Y97070I-2600J0D01*
G01*
D02*
G03*
X64800Y97070I2600J0D01*
G01*
X70900Y85950D02*
Y89150D01*
X72900D01*
Y85950D02*
Y89150D01*
X70900Y85950D02*
X72900D01*
X82932Y88082D02*
Y91482D01*
X84732D01*
Y88082D02*
Y91482D01*
X82932Y88082D02*
X84732D01*
X87150Y89800D02*
X90550D01*
Y88000D02*
Y89800D01*
X87150Y88000D02*
X90550D01*
X87150D02*
Y89800D01*
D11*
X76930Y48330D02*
X92170D01*
X76930D02*
Y63570D01*
X92170D01*
Y48330D02*
Y63570D01*
X76930Y67380D02*
X92170D01*
X76930D02*
Y82620D01*
X92170D01*
Y67380D02*
Y82620D01*
X115030Y67380D02*
X130270D01*
X115030D02*
Y82620D01*
X130270D01*
Y67380D02*
Y82620D01*
X73120Y10230D02*
Y25470D01*
X57880D02*
X73120D01*
X57880Y10230D02*
Y25470D01*
Y10230D02*
X73120D01*
X92170D02*
Y25470D01*
X76930D02*
X92170D01*
X76930Y10230D02*
Y25470D01*
Y10230D02*
X92170D01*
X111220D02*
Y25470D01*
X95980D02*
X111220D01*
X95980Y10230D02*
Y25470D01*
Y10230D02*
X111220D01*
X130270D02*
Y25470D01*
X115030D02*
X130270D01*
X115030Y10230D02*
Y25470D01*
Y10230D02*
X130270D01*
X73120Y29280D02*
Y44520D01*
X57880D02*
X73120D01*
X57880Y29280D02*
Y44520D01*
Y29280D02*
X73120D01*
X92170D02*
Y44520D01*
X76930D02*
X92170D01*
X76930Y29280D02*
Y44520D01*
Y29280D02*
X92170D01*
X130270D02*
Y44520D01*
X115030D02*
X130270D01*
X115030Y29280D02*
Y44520D01*
Y29280D02*
X130270D01*
X111220D02*
Y44520D01*
X95980D02*
X111220D01*
X95980Y29280D02*
Y44520D01*
Y29280D02*
X111220D01*
X130270Y48330D02*
Y63570D01*
X115030D02*
X130270D01*
X115030Y48330D02*
Y63570D01*
Y48330D02*
X130270D01*
X111220D02*
Y63570D01*
X95980D02*
X111220D01*
X95980Y48330D02*
Y63570D01*
Y48330D02*
X111220D01*
X73120D02*
Y63570D01*
X57880D02*
X73120D01*
X57880Y48330D02*
Y63570D01*
Y48330D02*
X73120D01*
X111220Y67380D02*
Y82620D01*
X95980D02*
X111220D01*
X95980Y67380D02*
Y82620D01*
Y67380D02*
X111220D01*
X73120D02*
Y82620D01*
X57880D02*
X73120D01*
X57880Y67380D02*
Y82620D01*
Y67380D02*
X73120D01*
D12*
X67562Y100704D02*
X66038D01*
Y99943D01*
X66292Y99689D01*
X67308D01*
X67562Y99943D01*
Y100704D01*
X66038Y99181D02*
Y98673D01*
Y98927D01*
X67562D01*
X67308Y99181D01*
X67562Y97911D02*
Y96896D01*
X67308D01*
X66292Y97911D01*
X66038D01*
X71084Y84038D02*
Y85562D01*
X71846D01*
X72100Y85308D01*
Y84800D01*
X71846Y84546D01*
X71084D01*
X71592D02*
X72100Y84038D01*
X72608D02*
X73116D01*
X72862D01*
Y85562D01*
X72608Y85308D01*
X115214Y27813D02*
Y26289D01*
Y26797D01*
X116230Y27813D01*
X115468Y27051D01*
X116230Y26289D01*
X116738D02*
X117246D01*
X116992D01*
Y27813D01*
X116738Y27559D01*
X119023Y27813D02*
X118515Y27559D01*
X118007Y27051D01*
Y26543D01*
X118261Y26289D01*
X118769D01*
X119023Y26543D01*
Y26797D01*
X118769Y27051D01*
X118007D01*
X96164Y27813D02*
Y26289D01*
Y26797D01*
X97180Y27813D01*
X96418Y27051D01*
X97180Y26289D01*
X97688D02*
X98196D01*
X97942D01*
Y27813D01*
X97688Y27559D01*
X99973Y27813D02*
X98957D01*
Y27051D01*
X99465Y27305D01*
X99719D01*
X99973Y27051D01*
Y26543D01*
X99719Y26289D01*
X99211D01*
X98957Y26543D01*
X77114Y27813D02*
Y26289D01*
Y26797D01*
X78130Y27813D01*
X77368Y27051D01*
X78130Y26289D01*
X78638D02*
X79146D01*
X78892D01*
Y27813D01*
X78638Y27559D01*
X80669Y26289D02*
Y27813D01*
X79908Y27051D01*
X80923D01*
X58064Y27813D02*
Y26289D01*
Y26797D01*
X59080Y27813D01*
X58318Y27051D01*
X59080Y26289D01*
X59588D02*
X60096D01*
X59842D01*
Y27813D01*
X59588Y27559D01*
X60857D02*
X61111Y27813D01*
X61619D01*
X61873Y27559D01*
Y27305D01*
X61619Y27051D01*
X61365D01*
X61619D01*
X61873Y26797D01*
Y26543D01*
X61619Y26289D01*
X61111D01*
X60857Y26543D01*
X115214Y46863D02*
Y45339D01*
Y45847D01*
X116230Y46863D01*
X115468Y46101D01*
X116230Y45339D01*
X116738D02*
X117246D01*
X116992D01*
Y46863D01*
X116738Y46609D01*
X119023Y45339D02*
X118007D01*
X119023Y46355D01*
Y46609D01*
X118769Y46863D01*
X118261D01*
X118007Y46609D01*
X96164Y46863D02*
Y45339D01*
Y45847D01*
X97180Y46863D01*
X96418Y46101D01*
X97180Y45339D01*
X97688D02*
X98196D01*
X97942D01*
Y46863D01*
X97688Y46609D01*
X98957Y45339D02*
X99465D01*
X99211D01*
Y46863D01*
X98957Y46609D01*
X77114Y46863D02*
Y45339D01*
Y45847D01*
X78130Y46863D01*
X77368Y46101D01*
X78130Y45339D01*
X78638D02*
X79146D01*
X78892D01*
Y46863D01*
X78638Y46609D01*
X79908D02*
X80161Y46863D01*
X80669D01*
X80923Y46609D01*
Y45593D01*
X80669Y45339D01*
X80161D01*
X79908Y45593D01*
Y46609D01*
X58064Y46863D02*
Y45339D01*
Y45847D01*
X59080Y46863D01*
X58318Y46101D01*
X59080Y45339D01*
X59588Y45593D02*
X59842Y45339D01*
X60350D01*
X60604Y45593D01*
Y46609D01*
X60350Y46863D01*
X59842D01*
X59588Y46609D01*
Y46355D01*
X59842Y46101D01*
X60604D01*
X115214Y65913D02*
Y64389D01*
Y64897D01*
X116230Y65913D01*
X115468Y65151D01*
X116230Y64389D01*
X116738Y65659D02*
X116992Y65913D01*
X117500D01*
X117754Y65659D01*
Y65405D01*
X117500Y65151D01*
X117754Y64897D01*
Y64643D01*
X117500Y64389D01*
X116992D01*
X116738Y64643D01*
Y64897D01*
X116992Y65151D01*
X116738Y65405D01*
Y65659D01*
X116992Y65151D02*
X117500D01*
X96164Y65913D02*
Y64389D01*
Y64897D01*
X97180Y65913D01*
X96418Y65151D01*
X97180Y64389D01*
X97688Y65913D02*
X98704D01*
Y65659D01*
X97688Y64643D01*
Y64389D01*
X77114Y65913D02*
Y64389D01*
Y64897D01*
X78130Y65913D01*
X77368Y65151D01*
X78130Y64389D01*
X79654Y65913D02*
X79146Y65659D01*
X78638Y65151D01*
Y64643D01*
X78892Y64389D01*
X79400D01*
X79654Y64643D01*
Y64897D01*
X79400Y65151D01*
X78638D01*
X58064Y65913D02*
Y64389D01*
Y64897D01*
X59080Y65913D01*
X58318Y65151D01*
X59080Y64389D01*
X60604Y65913D02*
X59588D01*
Y65151D01*
X60096Y65405D01*
X60350D01*
X60604Y65151D01*
Y64643D01*
X60350Y64389D01*
X59842D01*
X59588Y64643D01*
X115930Y81262D02*
Y79738D01*
Y80246D01*
X116946Y81262D01*
X116184Y80500D01*
X116946Y79738D01*
X118216D02*
Y81262D01*
X117454Y80500D01*
X118470D01*
X96164Y84963D02*
Y83439D01*
Y83947D01*
X97180Y84963D01*
X96418Y84201D01*
X97180Y83439D01*
X97688Y84709D02*
X97942Y84963D01*
X98450D01*
X98704Y84709D01*
Y84455D01*
X98450Y84201D01*
X98196D01*
X98450D01*
X98704Y83947D01*
Y83693D01*
X98450Y83439D01*
X97942D01*
X97688Y83693D01*
X77114Y84963D02*
Y83439D01*
Y83947D01*
X78130Y84963D01*
X77368Y84201D01*
X78130Y83439D01*
X79654D02*
X78638D01*
X79654Y84455D01*
Y84709D01*
X79400Y84963D01*
X78892D01*
X78638Y84709D01*
X58064Y84963D02*
Y83439D01*
Y83947D01*
X59080Y84963D01*
X58318Y84201D01*
X59080Y83439D01*
X59588D02*
X60096D01*
X59842D01*
Y84963D01*
X59588Y84709D01*
X84099Y93624D02*
X83845Y93878D01*
X83337D01*
X83083Y93624D01*
Y92608D01*
X83337Y92354D01*
X83845D01*
X84099Y92608D01*
X85623Y93878D02*
X85115Y93624D01*
X84607Y93116D01*
Y92608D01*
X84861Y92354D01*
X85369D01*
X85623Y92608D01*
Y92862D01*
X85369Y93116D01*
X84607D01*
X89054Y90492D02*
X89308Y90238D01*
X89816D01*
X90070Y90492D01*
Y91508D01*
X89816Y91762D01*
X89308D01*
X89054Y91508D01*
X88546Y90492D02*
X88292Y90238D01*
X87784D01*
X87530Y90492D01*
Y90746D01*
X87784Y91000D01*
X88038D01*
X87784D01*
X87530Y91254D01*
Y91508D01*
X87784Y91762D01*
X88292D01*
X88546Y91508D01*
M02*
