%TF.GenerationSoftware,KiCad,Pcbnew,5.99.0-unknown-48521774cd~131~ubuntu20.04.1*%
%TF.CreationDate,2021-08-15T22:43:00-07:00*%
%TF.ProjectId,keyboard MKI,6b657962-6f61-4726-9420-4d4b492e6b69,rev?*%
%TF.SameCoordinates,Original*%
%TF.FileFunction,Paste,Bot*%
%TF.FilePolarity,Positive*%
%FSLAX46Y46*%
G04 Gerber Fmt 4.6, Leading zero omitted, Abs format (unit mm)*
G04 Created by KiCad (PCBNEW 5.99.0-unknown-48521774cd~131~ubuntu20.04.1) date 2021-08-15 22:43:00*
%MOMM*%
%LPD*%
G01*
G04 APERTURE LIST*
G04 Aperture macros list*
%AMRoundRect*
0 Rectangle with rounded corners*
0 $1 Rounding radius*
0 $2 $3 $4 $5 $6 $7 $8 $9 X,Y pos of 4 corners*
0 Add a 4 corners polygon primitive as box body*
4,1,4,$2,$3,$4,$5,$6,$7,$8,$9,$2,$3,0*
0 Add four circle primitives for the rounded corners*
1,1,$1+$1,$2,$3*
1,1,$1+$1,$4,$5*
1,1,$1+$1,$6,$7*
1,1,$1+$1,$8,$9*
0 Add four rect primitives between the rounded corners*
20,1,$1+$1,$2,$3,$4,$5,0*
20,1,$1+$1,$4,$5,$6,$7,0*
20,1,$1+$1,$6,$7,$8,$9,0*
20,1,$1+$1,$8,$9,$2,$3,0*%
G04 Aperture macros list end*
%ADD10R,1.400000X1.200000*%
%ADD11R,0.550000X1.500000*%
%ADD12R,1.500000X0.550000*%
%ADD13RoundRect,0.250000X0.450000X-0.262500X0.450000X0.262500X-0.450000X0.262500X-0.450000X-0.262500X0*%
%ADD14R,0.600000X1.150000*%
%ADD15R,0.300000X1.150000*%
%ADD16R,2.180000X2.000000*%
%ADD17R,1.200000X1.200000*%
%ADD18RoundRect,0.250000X-0.250000X-0.475000X0.250000X-0.475000X0.250000X0.475000X-0.250000X0.475000X0*%
%ADD19RoundRect,0.250000X-0.475000X0.250000X-0.475000X-0.250000X0.475000X-0.250000X0.475000X0.250000X0*%
%ADD20RoundRect,0.250000X0.250000X0.475000X-0.250000X0.475000X-0.250000X-0.475000X0.250000X-0.475000X0*%
%ADD21RoundRect,0.250000X0.475000X-0.250000X0.475000X0.250000X-0.475000X0.250000X-0.475000X-0.250000X0*%
G04 APERTURE END LIST*
D10*
%TO.C,X1*%
X85600000Y-41300000D03*
X83400000Y-41300000D03*
X83400000Y-39700000D03*
X85600000Y-39700000D03*
%TD*%
D11*
%TO.C,U1*%
X79000000Y-59200000D03*
X79800000Y-59200000D03*
X80600000Y-59200000D03*
X81400000Y-59200000D03*
X82200000Y-59200000D03*
X83000000Y-59200000D03*
X83800000Y-59200000D03*
X84600000Y-59200000D03*
X85400000Y-59200000D03*
X86200000Y-59200000D03*
X87000000Y-59200000D03*
X87800000Y-59200000D03*
X88600000Y-59200000D03*
X89400000Y-59200000D03*
X90200000Y-59200000D03*
X91000000Y-59200000D03*
D12*
X92700000Y-57500000D03*
X92700000Y-56700000D03*
X92700000Y-55900000D03*
X92700000Y-55100000D03*
X92700000Y-54300000D03*
X92700000Y-53500000D03*
X92700000Y-52700000D03*
X92700000Y-51900000D03*
X92700000Y-51100000D03*
X92700000Y-50300000D03*
X92700000Y-49500000D03*
X92700000Y-48700000D03*
X92700000Y-47900000D03*
X92700000Y-47100000D03*
X92700000Y-46300000D03*
X92700000Y-45500000D03*
D11*
X91000000Y-43800000D03*
X90200000Y-43800000D03*
X89400000Y-43800000D03*
X88600000Y-43800000D03*
X87800000Y-43800000D03*
X87000000Y-43800000D03*
X86200000Y-43800000D03*
X85400000Y-43800000D03*
X84600000Y-43800000D03*
X83800000Y-43800000D03*
X83000000Y-43800000D03*
X82200000Y-43800000D03*
X81400000Y-43800000D03*
X80600000Y-43800000D03*
X79800000Y-43800000D03*
X79000000Y-43800000D03*
D12*
X77300000Y-45500000D03*
X77300000Y-46300000D03*
X77300000Y-47100000D03*
X77300000Y-47900000D03*
X77300000Y-48700000D03*
X77300000Y-49500000D03*
X77300000Y-50300000D03*
X77300000Y-51100000D03*
X77300000Y-51900000D03*
X77300000Y-52700000D03*
X77300000Y-53500000D03*
X77300000Y-54300000D03*
X77300000Y-55100000D03*
X77300000Y-55900000D03*
X77300000Y-56700000D03*
X77300000Y-57500000D03*
%TD*%
D13*
%TO.C,R4*%
X96842750Y-53868550D03*
X96842750Y-55693550D03*
%TD*%
%TO.C,R3*%
X140500000Y-44650000D03*
X140500000Y-46475000D03*
%TD*%
%TO.C,R2*%
X124000000Y-46475000D03*
X124000000Y-44650000D03*
%TD*%
%TO.C,R1*%
X98250000Y-45325000D03*
X98250000Y-43500000D03*
%TD*%
D14*
%TO.C,J1*%
X128800000Y-44637500D03*
X129600000Y-44637500D03*
X134400000Y-44637500D03*
X135200000Y-44637500D03*
D15*
X130250000Y-44637500D03*
X133750000Y-44637500D03*
X130750000Y-44637500D03*
X133250000Y-44637500D03*
X131250000Y-44637500D03*
X132750000Y-44637500D03*
X131750000Y-44637500D03*
X132250000Y-44637500D03*
D16*
X126890000Y-44062500D03*
X137110000Y-44062500D03*
X126890000Y-40132500D03*
X137110000Y-40132500D03*
%TD*%
D17*
%TO.C,D16*%
X131373400Y-134396800D03*
X134523400Y-134396800D03*
%TD*%
%TO.C,D15*%
X112425000Y-134396800D03*
X115575000Y-134396800D03*
%TD*%
%TO.C,D14*%
X96626600Y-134396800D03*
X93476600Y-134396800D03*
%TD*%
%TO.C,D13*%
X74528200Y-134396800D03*
X77678200Y-134396800D03*
%TD*%
%TO.C,D12*%
X131373400Y-115448400D03*
X134523400Y-115448400D03*
%TD*%
%TO.C,D11*%
X112425000Y-115448400D03*
X115575000Y-115448400D03*
%TD*%
%TO.C,D10*%
X93476600Y-115448400D03*
X96626600Y-115448400D03*
%TD*%
%TO.C,D9*%
X77678200Y-115448400D03*
X74528200Y-115448400D03*
%TD*%
%TO.C,D8*%
X134523400Y-96500000D03*
X131373400Y-96500000D03*
%TD*%
%TO.C,D7*%
X112425000Y-96500000D03*
X115575000Y-96500000D03*
%TD*%
%TO.C,D6*%
X93476600Y-96500000D03*
X96626600Y-96500000D03*
%TD*%
%TO.C,D5*%
X74528200Y-96500000D03*
X77678200Y-96500000D03*
%TD*%
%TO.C,D4*%
X131373400Y-77551600D03*
X134523400Y-77551600D03*
%TD*%
%TO.C,D3*%
X112425000Y-77551600D03*
X115575000Y-77551600D03*
%TD*%
%TO.C,D2*%
X96626600Y-77551600D03*
X93476600Y-77551600D03*
%TD*%
%TO.C,D1*%
X74528200Y-77551600D03*
X77678200Y-77551600D03*
%TD*%
D18*
%TO.C,C8*%
X73379950Y-52950850D03*
X71479950Y-52950850D03*
%TD*%
D19*
%TO.C,C7*%
X73157250Y-58137100D03*
X73157250Y-56237100D03*
%TD*%
D20*
%TO.C,C6*%
X68500000Y-60912500D03*
X70400000Y-60912500D03*
%TD*%
D18*
%TO.C,C5*%
X97950000Y-60912500D03*
X96050000Y-60912500D03*
%TD*%
D21*
%TO.C,C4*%
X73157250Y-50081450D03*
X73157250Y-48181450D03*
%TD*%
D20*
%TO.C,C3*%
X72207250Y-42025800D03*
X74107250Y-42025800D03*
%TD*%
D21*
%TO.C,C2*%
X80500000Y-41450000D03*
X80500000Y-39550000D03*
%TD*%
%TO.C,C1*%
X89000000Y-39550000D03*
X89000000Y-41450000D03*
%TD*%
M02*
