M48
; DRILL file {KiCad 5.99.0-unknown-48521774cd~131~ubuntu20.04.1} date Sun Aug 15 22:44:04 2021
; FORMAT={-:-/ absolute / metric / decimal}
; #@! TF.CreationDate,2021-08-15T22:44:04-07:00
; #@! TF.GenerationSoftware,Kicad,Pcbnew,5.99.0-unknown-48521774cd~131~ubuntu20.04.1
; #@! TF.FileFunction,NonPlated,1,2,NPTH
FMAT,2
METRIC
; #@! TA.AperFunction,NonPlated,NPTH,ComponentDrill
T1C0.650
; #@! TA.AperFunction,NonPlated,NPTH,ComponentDrill
T2C1.700
; #@! TA.AperFunction,NonPlated,NPTH,ComponentDrill
T3C1.702
; #@! TA.AperFunction,NonPlated,NPTH,ComponentDrill
T4C3.988
%
G90
G05
T1
X129.11Y-43.562
X134.89Y-43.562
T2
X67.5Y-41.0
X67.5Y-138.5
X141.5Y-41.0
X141.5Y-138.5
T3
X71.023Y-72.814
X71.023Y-91.763
X71.023Y-110.711
X71.023Y-129.66
X81.183Y-72.814
X81.183Y-91.763
X81.183Y-110.711
X81.183Y-129.66
X89.972Y-72.814
X89.972Y-91.763
X89.972Y-110.711
X89.972Y-129.66
X100.132Y-72.814
X100.132Y-91.763
X100.132Y-110.711
X100.132Y-129.66
X108.92Y-72.814
X108.92Y-91.763
X108.92Y-110.711
X108.92Y-129.66
X119.08Y-72.814
X119.08Y-91.763
X119.08Y-110.711
X119.08Y-129.66
X127.868Y-72.814
X127.868Y-91.763
X127.868Y-110.711
X127.868Y-129.66
X138.028Y-72.814
X138.028Y-91.763
X138.028Y-110.711
X138.028Y-129.66
T4
X76.103Y-72.814
X76.103Y-91.763
X76.103Y-110.711
X76.103Y-129.66
X95.052Y-72.814
X95.052Y-91.763
X95.052Y-110.711
X95.052Y-129.66
X114.0Y-72.814
X114.0Y-91.763
X114.0Y-110.711
X114.0Y-129.66
X132.948Y-72.814
X132.948Y-91.763
X132.948Y-110.711
X132.948Y-129.66
T0
M30
