M48
; DRILL file {KiCad 5.99.0-unknown-48521774cd~131~ubuntu20.04.1} date Sun Aug 15 22:44:04 2021
; FORMAT={-:-/ absolute / metric / decimal}
; #@! TF.CreationDate,2021-08-15T22:44:04-07:00
; #@! TF.GenerationSoftware,Kicad,Pcbnew,5.99.0-unknown-48521774cd~131~ubuntu20.04.1
; #@! TF.FileFunction,Plated,1,2,PTH
FMAT,2
METRIC
; #@! TA.AperFunction,Plated,PTH,ViaDrill
T1C0.400
; #@! TA.AperFunction,Plated,PTH,ComponentDrill
T2C0.700
; #@! TA.AperFunction,Plated,PTH,ComponentDrill
T3C0.762
; #@! TA.AperFunction,Plated,PTH,ComponentDrill
T4C1.500
%
G90
G05
T1
X75.0Y-54.75
X75.25Y-53.75
X79.0Y-53.026
X80.0Y-51.25
X81.4Y-62.2
X81.435Y-64.0
X82.5Y-45.75
X82.884Y-63.6
X84.0Y-56.4
X84.8Y-67.4
X85.6Y-63.4
X86.5Y-46.5
X86.875Y-57.625
X88.741Y-61.475
X96.5Y-58.0
X99.5Y-58.5
X111.2Y-61.6
X129.5Y-49.25
X130.75Y-50.0
T2
X72.203Y-77.552
X72.203Y-96.5
X72.203Y-115.448
X72.203Y-134.397
X80.003Y-77.552
X80.003Y-96.5
X80.003Y-115.448
X80.003Y-134.397
X91.152Y-77.552
X91.152Y-96.5
X91.152Y-115.448
X91.152Y-134.397
X98.952Y-77.552
X98.952Y-96.5
X98.952Y-115.448
X98.952Y-134.397
X110.1Y-77.552
X110.1Y-96.5
X110.1Y-115.448
X110.1Y-134.397
X117.9Y-77.552
X117.9Y-96.5
X117.9Y-115.448
X117.9Y-134.397
X129.048Y-77.552
X129.048Y-96.5
X129.048Y-115.448
X129.048Y-134.397
X136.848Y-77.552
X136.848Y-96.5
X136.848Y-115.448
X136.848Y-134.397
T3
X104.25Y-43.75
X109.25Y-43.75
T4
G00X73.603Y-68.314
M15
G01X73.563Y-67.735
M16
G05
G00X73.603Y-87.262
M15
G01X73.563Y-86.684
M16
G05
G00X73.603Y-106.211
M15
G01X73.563Y-105.632
M16
G05
G00X73.603Y-125.159
M15
G01X73.563Y-124.58
M16
G05
G00X79.963Y-70.243
M15
G01X78.754Y-68.346
M16
G05
G00X79.963Y-89.192
M15
G01X78.754Y-87.294
M16
G05
G00X79.963Y-108.14
M15
G01X78.754Y-106.242
M16
G05
G00X79.963Y-127.089
M15
G01X78.754Y-125.191
M16
G05
G00X92.551Y-68.314
M15
G01X92.512Y-67.735
M16
G05
G00X92.551Y-87.262
M15
G01X92.512Y-86.684
M16
G05
G00X92.551Y-106.211
M15
G01X92.512Y-105.632
M16
G05
G00X92.551Y-125.159
M15
G01X92.512Y-124.58
M16
G05
G00X98.911Y-70.243
M15
G01X97.702Y-68.346
M16
G05
G00X98.911Y-89.192
M15
G01X97.702Y-87.294
M16
G05
G00X98.911Y-108.14
M15
G01X97.702Y-106.242
M16
G05
G00X98.911Y-127.089
M15
G01X97.702Y-125.191
M16
G05
G00X111.5Y-68.314
M15
G01X111.46Y-67.735
M16
G05
G00X111.5Y-87.262
M15
G01X111.46Y-86.684
M16
G05
G00X111.5Y-106.211
M15
G01X111.46Y-105.632
M16
G05
G00X111.5Y-125.159
M15
G01X111.46Y-124.58
M16
G05
G00X117.859Y-70.243
M15
G01X116.651Y-68.346
M16
G05
G00X117.859Y-89.192
M15
G01X116.651Y-87.294
M16
G05
G00X117.859Y-108.14
M15
G01X116.651Y-106.242
M16
G05
G00X117.859Y-127.089
M15
G01X116.651Y-125.191
M16
G05
G00X130.448Y-68.314
M15
G01X130.409Y-67.735
M16
G05
G00X130.448Y-87.262
M15
G01X130.409Y-86.684
M16
G05
G00X130.448Y-106.211
M15
G01X130.409Y-105.632
M16
G05
G00X130.448Y-125.159
M15
G01X130.409Y-124.58
M16
G05
G00X136.808Y-70.243
M15
G01X135.599Y-68.346
M16
G05
G00X136.808Y-89.192
M15
G01X135.599Y-87.294
M16
G05
G00X136.808Y-108.14
M15
G01X135.599Y-106.242
M16
G05
G00X136.808Y-127.089
M15
G01X135.599Y-125.191
M16
G05
T0
M30
