%TF.GenerationSoftware,KiCad,Pcbnew,5.99.0-unknown-48521774cd~131~ubuntu20.04.1*%
%TF.CreationDate,2021-08-15T22:43:00-07:00*%
%TF.ProjectId,keyboard MKI,6b657962-6f61-4726-9420-4d4b492e6b69,rev?*%
%TF.SameCoordinates,Original*%
%TF.FileFunction,Soldermask,Bot*%
%TF.FilePolarity,Negative*%
%FSLAX46Y46*%
G04 Gerber Fmt 4.6, Leading zero omitted, Abs format (unit mm)*
G04 Created by KiCad (PCBNEW 5.99.0-unknown-48521774cd~131~ubuntu20.04.1) date 2021-08-15 22:43:00*
%MOMM*%
%LPD*%
G01*
G04 APERTURE LIST*
G04 Aperture macros list*
%AMRoundRect*
0 Rectangle with rounded corners*
0 $1 Rounding radius*
0 $2 $3 $4 $5 $6 $7 $8 $9 X,Y pos of 4 corners*
0 Add a 4 corners polygon primitive as box body*
4,1,4,$2,$3,$4,$5,$6,$7,$8,$9,$2,$3,0*
0 Add four circle primitives for the rounded corners*
1,1,$1+$1,$2,$3*
1,1,$1+$1,$4,$5*
1,1,$1+$1,$6,$7*
1,1,$1+$1,$8,$9*
0 Add four rect primitives between the rounded corners*
20,1,$1+$1,$2,$3,$4,$5,0*
20,1,$1+$1,$4,$5,$6,$7,0*
20,1,$1+$1,$6,$7,$8,$9,0*
20,1,$1+$1,$8,$9,$2,$3,0*%
%AMHorizOval*
0 Thick line with rounded ends*
0 $1 width*
0 $2 $3 position (X,Y) of the first rounded end (center of the circle)*
0 $4 $5 position (X,Y) of the second rounded end (center of the circle)*
0 Add line between two ends*
20,1,$1,$2,$3,$4,$5,0*
0 Add two circle primitives to create the rounded ends*
1,1,$1,$2,$3*
1,1,$1,$4,$5*%
G04 Aperture macros list end*
%ADD10C,1.700000*%
%ADD11C,1.524000*%
%ADD12R,1.400000X1.200000*%
%ADD13R,0.550000X1.500000*%
%ADD14R,1.500000X0.550000*%
%ADD15RoundRect,0.250000X0.450000X-0.262500X0.450000X0.262500X-0.450000X0.262500X-0.450000X-0.262500X0*%
%ADD16C,3.987800*%
%ADD17C,1.701800*%
%ADD18HorizOval,2.500000X-0.604462X0.948815X0.604462X-0.948815X0*%
%ADD19HorizOval,2.500000X-0.019724X0.289328X0.019724X-0.289328X0*%
%ADD20R,0.600000X1.150000*%
%ADD21R,0.300000X1.150000*%
%ADD22R,2.180000X2.000000*%
%ADD23C,0.650000*%
%ADD24R,1.200000X1.200000*%
%ADD25R,1.600000X1.600000*%
%ADD26C,1.600000*%
%ADD27RoundRect,0.250000X-0.250000X-0.475000X0.250000X-0.475000X0.250000X0.475000X-0.250000X0.475000X0*%
%ADD28RoundRect,0.250000X-0.475000X0.250000X-0.475000X-0.250000X0.475000X-0.250000X0.475000X0.250000X0*%
%ADD29RoundRect,0.250000X0.250000X0.475000X-0.250000X0.475000X-0.250000X-0.475000X0.250000X-0.475000X0*%
%ADD30RoundRect,0.250000X0.475000X-0.250000X0.475000X0.250000X-0.475000X0.250000X-0.475000X-0.250000X0*%
G04 APERTURE END LIST*
D10*
%TO.C,*%
X141500000Y-138500000D03*
%TD*%
%TO.C,*%
X67500000Y-138500000D03*
%TD*%
%TO.C,REF\u002A\u002A*%
X141500000Y-41000000D03*
%TD*%
%TO.C,*%
X67500000Y-41000000D03*
%TD*%
D11*
%TO.C,SW1*%
X104250000Y-43750000D03*
X109250000Y-43750000D03*
%TD*%
D12*
%TO.C,X1*%
X85600000Y-41300000D03*
X83400000Y-41300000D03*
X83400000Y-39700000D03*
X85600000Y-39700000D03*
%TD*%
D13*
%TO.C,U1*%
X79000000Y-59200000D03*
X79800000Y-59200000D03*
X80600000Y-59200000D03*
X81400000Y-59200000D03*
X82200000Y-59200000D03*
X83000000Y-59200000D03*
X83800000Y-59200000D03*
X84600000Y-59200000D03*
X85400000Y-59200000D03*
X86200000Y-59200000D03*
X87000000Y-59200000D03*
X87800000Y-59200000D03*
X88600000Y-59200000D03*
X89400000Y-59200000D03*
X90200000Y-59200000D03*
X91000000Y-59200000D03*
D14*
X92700000Y-57500000D03*
X92700000Y-56700000D03*
X92700000Y-55900000D03*
X92700000Y-55100000D03*
X92700000Y-54300000D03*
X92700000Y-53500000D03*
X92700000Y-52700000D03*
X92700000Y-51900000D03*
X92700000Y-51100000D03*
X92700000Y-50300000D03*
X92700000Y-49500000D03*
X92700000Y-48700000D03*
X92700000Y-47900000D03*
X92700000Y-47100000D03*
X92700000Y-46300000D03*
X92700000Y-45500000D03*
D13*
X91000000Y-43800000D03*
X90200000Y-43800000D03*
X89400000Y-43800000D03*
X88600000Y-43800000D03*
X87800000Y-43800000D03*
X87000000Y-43800000D03*
X86200000Y-43800000D03*
X85400000Y-43800000D03*
X84600000Y-43800000D03*
X83800000Y-43800000D03*
X83000000Y-43800000D03*
X82200000Y-43800000D03*
X81400000Y-43800000D03*
X80600000Y-43800000D03*
X79800000Y-43800000D03*
X79000000Y-43800000D03*
D14*
X77300000Y-45500000D03*
X77300000Y-46300000D03*
X77300000Y-47100000D03*
X77300000Y-47900000D03*
X77300000Y-48700000D03*
X77300000Y-49500000D03*
X77300000Y-50300000D03*
X77300000Y-51100000D03*
X77300000Y-51900000D03*
X77300000Y-52700000D03*
X77300000Y-53500000D03*
X77300000Y-54300000D03*
X77300000Y-55100000D03*
X77300000Y-55900000D03*
X77300000Y-56700000D03*
X77300000Y-57500000D03*
%TD*%
D15*
%TO.C,R4*%
X96842750Y-53868550D03*
X96842750Y-55693550D03*
%TD*%
%TO.C,R3*%
X140500000Y-44650000D03*
X140500000Y-46475000D03*
%TD*%
%TO.C,R2*%
X124000000Y-46475000D03*
X124000000Y-44650000D03*
%TD*%
%TO.C,R1*%
X98250000Y-45325000D03*
X98250000Y-43500000D03*
%TD*%
D16*
%TO.C,K16*%
X132948400Y-129659700D03*
D17*
X138028400Y-129659700D03*
X127868400Y-129659700D03*
D18*
X136203400Y-126139700D03*
D19*
X130428400Y-124869700D03*
%TD*%
%TO.C,K15*%
X111480000Y-124869700D03*
D18*
X117255000Y-126139700D03*
D17*
X108920000Y-129659700D03*
X119080000Y-129659700D03*
D16*
X114000000Y-129659700D03*
%TD*%
%TO.C,K14*%
X95051600Y-129659700D03*
D17*
X100131600Y-129659700D03*
X89971600Y-129659700D03*
D18*
X98306600Y-126139700D03*
D19*
X92531600Y-124869700D03*
%TD*%
D16*
%TO.C,K13*%
X76103200Y-129659700D03*
D17*
X81183200Y-129659700D03*
X71023200Y-129659700D03*
D18*
X79358200Y-126139700D03*
D19*
X73583200Y-124869700D03*
%TD*%
%TO.C,K12*%
X130428400Y-105921300D03*
D18*
X136203400Y-107191300D03*
D17*
X127868400Y-110711300D03*
X138028400Y-110711300D03*
D16*
X132948400Y-110711300D03*
%TD*%
%TO.C,K11*%
X114000000Y-110711300D03*
D17*
X119080000Y-110711300D03*
X108920000Y-110711300D03*
D18*
X117255000Y-107191300D03*
D19*
X111480000Y-105921300D03*
%TD*%
D16*
%TO.C,K10*%
X95051600Y-110711300D03*
D17*
X100131600Y-110711300D03*
X89971600Y-110711300D03*
D18*
X98306600Y-107191300D03*
D19*
X92531600Y-105921300D03*
%TD*%
%TO.C,K9*%
X73583200Y-105921300D03*
D18*
X79358200Y-107191300D03*
D17*
X71023200Y-110711300D03*
X81183200Y-110711300D03*
D16*
X76103200Y-110711300D03*
%TD*%
%TO.C,K8*%
X132948400Y-91762900D03*
D17*
X138028400Y-91762900D03*
X127868400Y-91762900D03*
D18*
X136203400Y-88242900D03*
D19*
X130428400Y-86972900D03*
%TD*%
D16*
%TO.C,K7*%
X114000000Y-91762900D03*
D17*
X119080000Y-91762900D03*
X108920000Y-91762900D03*
D18*
X117255000Y-88242900D03*
D19*
X111480000Y-86972900D03*
%TD*%
D16*
%TO.C,K6*%
X95051600Y-91762900D03*
D17*
X100131600Y-91762900D03*
X89971600Y-91762900D03*
D18*
X98306600Y-88242900D03*
D19*
X92531600Y-86972900D03*
%TD*%
D16*
%TO.C,K5*%
X76103200Y-91762900D03*
D17*
X81183200Y-91762900D03*
X71023200Y-91762900D03*
D18*
X79358200Y-88242900D03*
D19*
X73583200Y-86972900D03*
%TD*%
D16*
%TO.C,K4*%
X132948400Y-72814500D03*
D17*
X138028400Y-72814500D03*
X127868400Y-72814500D03*
D18*
X136203400Y-69294500D03*
D19*
X130428400Y-68024500D03*
%TD*%
D16*
%TO.C,K3*%
X114000000Y-72814500D03*
D17*
X119080000Y-72814500D03*
X108920000Y-72814500D03*
D18*
X117255000Y-69294500D03*
D19*
X111480000Y-68024500D03*
%TD*%
%TO.C,K2*%
X92531600Y-68024500D03*
D18*
X98306600Y-69294500D03*
D17*
X89971600Y-72814500D03*
X100131600Y-72814500D03*
D16*
X95051600Y-72814500D03*
%TD*%
D19*
%TO.C,K1*%
X73583200Y-68024500D03*
D18*
X79358200Y-69294500D03*
D17*
X71023200Y-72814500D03*
X81183200Y-72814500D03*
D16*
X76103200Y-72814500D03*
%TD*%
D20*
%TO.C,J1*%
X128800000Y-44637500D03*
X129600000Y-44637500D03*
X134400000Y-44637500D03*
X135200000Y-44637500D03*
D21*
X130250000Y-44637500D03*
X133750000Y-44637500D03*
X130750000Y-44637500D03*
X133250000Y-44637500D03*
X131250000Y-44637500D03*
X132750000Y-44637500D03*
X131750000Y-44637500D03*
X132250000Y-44637500D03*
D22*
X126890000Y-44062500D03*
X137110000Y-44062500D03*
X126890000Y-40132500D03*
X137110000Y-40132500D03*
D23*
X129110000Y-43562500D03*
X134890000Y-43562500D03*
%TD*%
D24*
%TO.C,D16*%
X131373400Y-134396800D03*
X134523400Y-134396800D03*
D25*
X136848400Y-134396800D03*
D26*
X129048400Y-134396800D03*
%TD*%
D24*
%TO.C,D15*%
X112425000Y-134396800D03*
X115575000Y-134396800D03*
D25*
X117900000Y-134396800D03*
D26*
X110100000Y-134396800D03*
%TD*%
%TO.C,D14*%
X91151600Y-134396800D03*
D25*
X98951600Y-134396800D03*
D24*
X96626600Y-134396800D03*
X93476600Y-134396800D03*
%TD*%
%TO.C,D13*%
X74528200Y-134396800D03*
X77678200Y-134396800D03*
D25*
X80003200Y-134396800D03*
D26*
X72203200Y-134396800D03*
%TD*%
D24*
%TO.C,D12*%
X131373400Y-115448400D03*
X134523400Y-115448400D03*
D25*
X136848400Y-115448400D03*
D26*
X129048400Y-115448400D03*
%TD*%
D24*
%TO.C,D11*%
X112425000Y-115448400D03*
X115575000Y-115448400D03*
D25*
X117900000Y-115448400D03*
D26*
X110100000Y-115448400D03*
%TD*%
D24*
%TO.C,D10*%
X93476600Y-115448400D03*
X96626600Y-115448400D03*
D25*
X98951600Y-115448400D03*
D26*
X91151600Y-115448400D03*
%TD*%
%TO.C,D9*%
X72203200Y-115448400D03*
D25*
X80003200Y-115448400D03*
D24*
X77678200Y-115448400D03*
X74528200Y-115448400D03*
%TD*%
D26*
%TO.C,D8*%
X129048400Y-96500000D03*
D25*
X136848400Y-96500000D03*
D24*
X134523400Y-96500000D03*
X131373400Y-96500000D03*
%TD*%
%TO.C,D7*%
X112425000Y-96500000D03*
X115575000Y-96500000D03*
D25*
X117900000Y-96500000D03*
D26*
X110100000Y-96500000D03*
%TD*%
D24*
%TO.C,D6*%
X93476600Y-96500000D03*
X96626600Y-96500000D03*
D25*
X98951600Y-96500000D03*
D26*
X91151600Y-96500000D03*
%TD*%
D24*
%TO.C,D5*%
X74528200Y-96500000D03*
X77678200Y-96500000D03*
D25*
X80003200Y-96500000D03*
D26*
X72203200Y-96500000D03*
%TD*%
D24*
%TO.C,D4*%
X131373400Y-77551600D03*
X134523400Y-77551600D03*
D25*
X136848400Y-77551600D03*
D26*
X129048400Y-77551600D03*
%TD*%
D24*
%TO.C,D3*%
X112425000Y-77551600D03*
X115575000Y-77551600D03*
D25*
X117900000Y-77551600D03*
D26*
X110100000Y-77551600D03*
%TD*%
%TO.C,D2*%
X91151600Y-77551600D03*
D25*
X98951600Y-77551600D03*
D24*
X96626600Y-77551600D03*
X93476600Y-77551600D03*
%TD*%
%TO.C,D1*%
X74528200Y-77551600D03*
X77678200Y-77551600D03*
D25*
X80003200Y-77551600D03*
D26*
X72203200Y-77551600D03*
%TD*%
D27*
%TO.C,C8*%
X73379950Y-52950850D03*
X71479950Y-52950850D03*
%TD*%
D28*
%TO.C,C7*%
X73157250Y-58137100D03*
X73157250Y-56237100D03*
%TD*%
D29*
%TO.C,C6*%
X68500000Y-60912500D03*
X70400000Y-60912500D03*
%TD*%
D27*
%TO.C,C5*%
X97950000Y-60912500D03*
X96050000Y-60912500D03*
%TD*%
D30*
%TO.C,C4*%
X73157250Y-50081450D03*
X73157250Y-48181450D03*
%TD*%
D29*
%TO.C,C3*%
X72207250Y-42025800D03*
X74107250Y-42025800D03*
%TD*%
D30*
%TO.C,C2*%
X80500000Y-41450000D03*
X80500000Y-39550000D03*
%TD*%
%TO.C,C1*%
X89000000Y-39550000D03*
X89000000Y-41450000D03*
%TD*%
M02*
