%TF.GenerationSoftware,KiCad,Pcbnew,5.99.0-unknown-48521774cd~131~ubuntu20.04.1*%
%TF.CreationDate,2021-08-15T22:43:00-07:00*%
%TF.ProjectId,keyboard MKI,6b657962-6f61-4726-9420-4d4b492e6b69,rev?*%
%TF.SameCoordinates,Original*%
%TF.FileFunction,Soldermask,Top*%
%TF.FilePolarity,Negative*%
%FSLAX46Y46*%
G04 Gerber Fmt 4.6, Leading zero omitted, Abs format (unit mm)*
G04 Created by KiCad (PCBNEW 5.99.0-unknown-48521774cd~131~ubuntu20.04.1) date 2021-08-15 22:43:00*
%MOMM*%
%LPD*%
G01*
G04 APERTURE LIST*
G04 Aperture macros list*
%AMHorizOval*
0 Thick line with rounded ends*
0 $1 width*
0 $2 $3 position (X,Y) of the first rounded end (center of the circle)*
0 $4 $5 position (X,Y) of the second rounded end (center of the circle)*
0 Add line between two ends*
20,1,$1,$2,$3,$4,$5,0*
0 Add two circle primitives to create the rounded ends*
1,1,$1,$2,$3*
1,1,$1,$4,$5*%
G04 Aperture macros list end*
%ADD10C,1.700000*%
%ADD11C,1.524000*%
%ADD12C,3.987800*%
%ADD13C,1.701800*%
%ADD14HorizOval,2.500000X-0.604462X0.948815X0.604462X-0.948815X0*%
%ADD15HorizOval,2.500000X-0.019724X0.289328X0.019724X-0.289328X0*%
%ADD16C,0.650000*%
%ADD17R,1.600000X1.600000*%
%ADD18C,1.600000*%
G04 APERTURE END LIST*
D10*
%TO.C,*%
X141500000Y-138500000D03*
%TD*%
%TO.C,*%
X67500000Y-138500000D03*
%TD*%
%TO.C,REF\u002A\u002A*%
X141500000Y-41000000D03*
%TD*%
%TO.C,*%
X67500000Y-41000000D03*
%TD*%
D11*
%TO.C,SW1*%
X104250000Y-43750000D03*
X109250000Y-43750000D03*
%TD*%
D12*
%TO.C,K16*%
X132948400Y-129659700D03*
D13*
X138028400Y-129659700D03*
X127868400Y-129659700D03*
D14*
X136203400Y-126139700D03*
D15*
X130428400Y-124869700D03*
%TD*%
%TO.C,K15*%
X111480000Y-124869700D03*
D14*
X117255000Y-126139700D03*
D13*
X108920000Y-129659700D03*
X119080000Y-129659700D03*
D12*
X114000000Y-129659700D03*
%TD*%
%TO.C,K14*%
X95051600Y-129659700D03*
D13*
X100131600Y-129659700D03*
X89971600Y-129659700D03*
D14*
X98306600Y-126139700D03*
D15*
X92531600Y-124869700D03*
%TD*%
D12*
%TO.C,K13*%
X76103200Y-129659700D03*
D13*
X81183200Y-129659700D03*
X71023200Y-129659700D03*
D14*
X79358200Y-126139700D03*
D15*
X73583200Y-124869700D03*
%TD*%
%TO.C,K12*%
X130428400Y-105921300D03*
D14*
X136203400Y-107191300D03*
D13*
X127868400Y-110711300D03*
X138028400Y-110711300D03*
D12*
X132948400Y-110711300D03*
%TD*%
%TO.C,K11*%
X114000000Y-110711300D03*
D13*
X119080000Y-110711300D03*
X108920000Y-110711300D03*
D14*
X117255000Y-107191300D03*
D15*
X111480000Y-105921300D03*
%TD*%
D12*
%TO.C,K10*%
X95051600Y-110711300D03*
D13*
X100131600Y-110711300D03*
X89971600Y-110711300D03*
D14*
X98306600Y-107191300D03*
D15*
X92531600Y-105921300D03*
%TD*%
%TO.C,K9*%
X73583200Y-105921300D03*
D14*
X79358200Y-107191300D03*
D13*
X71023200Y-110711300D03*
X81183200Y-110711300D03*
D12*
X76103200Y-110711300D03*
%TD*%
%TO.C,K8*%
X132948400Y-91762900D03*
D13*
X138028400Y-91762900D03*
X127868400Y-91762900D03*
D14*
X136203400Y-88242900D03*
D15*
X130428400Y-86972900D03*
%TD*%
D12*
%TO.C,K7*%
X114000000Y-91762900D03*
D13*
X119080000Y-91762900D03*
X108920000Y-91762900D03*
D14*
X117255000Y-88242900D03*
D15*
X111480000Y-86972900D03*
%TD*%
D12*
%TO.C,K6*%
X95051600Y-91762900D03*
D13*
X100131600Y-91762900D03*
X89971600Y-91762900D03*
D14*
X98306600Y-88242900D03*
D15*
X92531600Y-86972900D03*
%TD*%
D12*
%TO.C,K5*%
X76103200Y-91762900D03*
D13*
X81183200Y-91762900D03*
X71023200Y-91762900D03*
D14*
X79358200Y-88242900D03*
D15*
X73583200Y-86972900D03*
%TD*%
D12*
%TO.C,K4*%
X132948400Y-72814500D03*
D13*
X138028400Y-72814500D03*
X127868400Y-72814500D03*
D14*
X136203400Y-69294500D03*
D15*
X130428400Y-68024500D03*
%TD*%
D12*
%TO.C,K3*%
X114000000Y-72814500D03*
D13*
X119080000Y-72814500D03*
X108920000Y-72814500D03*
D14*
X117255000Y-69294500D03*
D15*
X111480000Y-68024500D03*
%TD*%
%TO.C,K2*%
X92531600Y-68024500D03*
D14*
X98306600Y-69294500D03*
D13*
X89971600Y-72814500D03*
X100131600Y-72814500D03*
D12*
X95051600Y-72814500D03*
%TD*%
D15*
%TO.C,K1*%
X73583200Y-68024500D03*
D14*
X79358200Y-69294500D03*
D13*
X71023200Y-72814500D03*
X81183200Y-72814500D03*
D12*
X76103200Y-72814500D03*
%TD*%
D16*
%TO.C,J1*%
X129110000Y-43562500D03*
X134890000Y-43562500D03*
%TD*%
D17*
%TO.C,D16*%
X136848400Y-134396800D03*
D18*
X129048400Y-134396800D03*
%TD*%
D17*
%TO.C,D15*%
X117900000Y-134396800D03*
D18*
X110100000Y-134396800D03*
%TD*%
%TO.C,D14*%
X91151600Y-134396800D03*
D17*
X98951600Y-134396800D03*
%TD*%
%TO.C,D13*%
X80003200Y-134396800D03*
D18*
X72203200Y-134396800D03*
%TD*%
D17*
%TO.C,D12*%
X136848400Y-115448400D03*
D18*
X129048400Y-115448400D03*
%TD*%
D17*
%TO.C,D11*%
X117900000Y-115448400D03*
D18*
X110100000Y-115448400D03*
%TD*%
D17*
%TO.C,D10*%
X98951600Y-115448400D03*
D18*
X91151600Y-115448400D03*
%TD*%
%TO.C,D9*%
X72203200Y-115448400D03*
D17*
X80003200Y-115448400D03*
%TD*%
D18*
%TO.C,D8*%
X129048400Y-96500000D03*
D17*
X136848400Y-96500000D03*
%TD*%
%TO.C,D7*%
X117900000Y-96500000D03*
D18*
X110100000Y-96500000D03*
%TD*%
D17*
%TO.C,D6*%
X98951600Y-96500000D03*
D18*
X91151600Y-96500000D03*
%TD*%
D17*
%TO.C,D5*%
X80003200Y-96500000D03*
D18*
X72203200Y-96500000D03*
%TD*%
D17*
%TO.C,D4*%
X136848400Y-77551600D03*
D18*
X129048400Y-77551600D03*
%TD*%
D17*
%TO.C,D3*%
X117900000Y-77551600D03*
D18*
X110100000Y-77551600D03*
%TD*%
%TO.C,D2*%
X91151600Y-77551600D03*
D17*
X98951600Y-77551600D03*
%TD*%
%TO.C,D1*%
X80003200Y-77551600D03*
D18*
X72203200Y-77551600D03*
%TD*%
M02*
