%TF.GenerationSoftware,KiCad,Pcbnew,5.99.0-unknown-48521774cd~131~ubuntu20.04.1*%
%TF.CreationDate,2021-08-15T22:43:00-07:00*%
%TF.ProjectId,keyboard MKI,6b657962-6f61-4726-9420-4d4b492e6b69,rev?*%
%TF.SameCoordinates,Original*%
%TF.FileFunction,Legend,Top*%
%TF.FilePolarity,Positive*%
%FSLAX46Y46*%
G04 Gerber Fmt 4.6, Leading zero omitted, Abs format (unit mm)*
G04 Created by KiCad (PCBNEW 5.99.0-unknown-48521774cd~131~ubuntu20.04.1) date 2021-08-15 22:43:00*
%MOMM*%
%LPD*%
G01*
G04 APERTURE LIST*
%ADD10C,0.150000*%
%ADD11C,0.200000*%
%ADD12C,0.120000*%
G04 APERTURE END LIST*
D10*
%TO.C,*%
D11*
%TO.C,K16*%
X132725714Y-133857580D02*
X132725714Y-132857580D01*
X133297142Y-133857580D02*
X132868571Y-133286152D01*
X133297142Y-132857580D02*
X132725714Y-133429009D01*
X134249523Y-133857580D02*
X133678095Y-133857580D01*
X133963809Y-133857580D02*
X133963809Y-132857580D01*
X133868571Y-133000438D01*
X133773333Y-133095676D01*
X133678095Y-133143295D01*
X135106666Y-132857580D02*
X134916190Y-132857580D01*
X134820952Y-132905200D01*
X134773333Y-132952819D01*
X134678095Y-133095676D01*
X134630476Y-133286152D01*
X134630476Y-133667104D01*
X134678095Y-133762342D01*
X134725714Y-133809961D01*
X134820952Y-133857580D01*
X135011428Y-133857580D01*
X135106666Y-133809961D01*
X135154285Y-133762342D01*
X135201904Y-133667104D01*
X135201904Y-133429009D01*
X135154285Y-133333771D01*
X135106666Y-133286152D01*
X135011428Y-133238533D01*
X134820952Y-133238533D01*
X134725714Y-133286152D01*
X134678095Y-133333771D01*
X134630476Y-133429009D01*
%TO.C,K15*%
X112785714Y-134430080D02*
X112785714Y-133430080D01*
X113357142Y-134430080D02*
X112928571Y-133858652D01*
X113357142Y-133430080D02*
X112785714Y-134001509D01*
X114309523Y-134430080D02*
X113738095Y-134430080D01*
X114023809Y-134430080D02*
X114023809Y-133430080D01*
X113928571Y-133572938D01*
X113833333Y-133668176D01*
X113738095Y-133715795D01*
X115214285Y-133430080D02*
X114738095Y-133430080D01*
X114690476Y-133906271D01*
X114738095Y-133858652D01*
X114833333Y-133811033D01*
X115071428Y-133811033D01*
X115166666Y-133858652D01*
X115214285Y-133906271D01*
X115261904Y-134001509D01*
X115261904Y-134239604D01*
X115214285Y-134334842D01*
X115166666Y-134382461D01*
X115071428Y-134430080D01*
X114833333Y-134430080D01*
X114738095Y-134382461D01*
X114690476Y-134334842D01*
%TO.C,K14*%
X93837314Y-134430080D02*
X93837314Y-133430080D01*
X94408742Y-134430080D02*
X93980171Y-133858652D01*
X94408742Y-133430080D02*
X93837314Y-134001509D01*
X95361123Y-134430080D02*
X94789695Y-134430080D01*
X95075409Y-134430080D02*
X95075409Y-133430080D01*
X94980171Y-133572938D01*
X94884933Y-133668176D01*
X94789695Y-133715795D01*
X96218266Y-133763414D02*
X96218266Y-134430080D01*
X95980171Y-133382461D02*
X95742076Y-134096747D01*
X96361123Y-134096747D01*
%TO.C,K13*%
X74888914Y-134430080D02*
X74888914Y-133430080D01*
X75460342Y-134430080D02*
X75031771Y-133858652D01*
X75460342Y-133430080D02*
X74888914Y-134001509D01*
X76412723Y-134430080D02*
X75841295Y-134430080D01*
X76127009Y-134430080D02*
X76127009Y-133430080D01*
X76031771Y-133572938D01*
X75936533Y-133668176D01*
X75841295Y-133715795D01*
X76746057Y-133430080D02*
X77365104Y-133430080D01*
X77031771Y-133811033D01*
X77174628Y-133811033D01*
X77269866Y-133858652D01*
X77317485Y-133906271D01*
X77365104Y-134001509D01*
X77365104Y-134239604D01*
X77317485Y-134334842D01*
X77269866Y-134382461D01*
X77174628Y-134430080D01*
X76888914Y-134430080D01*
X76793676Y-134382461D01*
X76746057Y-134334842D01*
%TO.C,K12*%
X131734114Y-115481680D02*
X131734114Y-114481680D01*
X132305542Y-115481680D02*
X131876971Y-114910252D01*
X132305542Y-114481680D02*
X131734114Y-115053109D01*
X133257923Y-115481680D02*
X132686495Y-115481680D01*
X132972209Y-115481680D02*
X132972209Y-114481680D01*
X132876971Y-114624538D01*
X132781733Y-114719776D01*
X132686495Y-114767395D01*
X133638876Y-114576919D02*
X133686495Y-114529300D01*
X133781733Y-114481680D01*
X134019828Y-114481680D01*
X134115066Y-114529300D01*
X134162685Y-114576919D01*
X134210304Y-114672157D01*
X134210304Y-114767395D01*
X134162685Y-114910252D01*
X133591257Y-115481680D01*
X134210304Y-115481680D01*
%TO.C,K11*%
X112785714Y-115481680D02*
X112785714Y-114481680D01*
X113357142Y-115481680D02*
X112928571Y-114910252D01*
X113357142Y-114481680D02*
X112785714Y-115053109D01*
X114309523Y-115481680D02*
X113738095Y-115481680D01*
X114023809Y-115481680D02*
X114023809Y-114481680D01*
X113928571Y-114624538D01*
X113833333Y-114719776D01*
X113738095Y-114767395D01*
X115261904Y-115481680D02*
X114690476Y-115481680D01*
X114976190Y-115481680D02*
X114976190Y-114481680D01*
X114880952Y-114624538D01*
X114785714Y-114719776D01*
X114690476Y-114767395D01*
%TO.C,K10*%
X93837314Y-115481680D02*
X93837314Y-114481680D01*
X94408742Y-115481680D02*
X93980171Y-114910252D01*
X94408742Y-114481680D02*
X93837314Y-115053109D01*
X95361123Y-115481680D02*
X94789695Y-115481680D01*
X95075409Y-115481680D02*
X95075409Y-114481680D01*
X94980171Y-114624538D01*
X94884933Y-114719776D01*
X94789695Y-114767395D01*
X95980171Y-114481680D02*
X96075409Y-114481680D01*
X96170647Y-114529300D01*
X96218266Y-114576919D01*
X96265885Y-114672157D01*
X96313504Y-114862633D01*
X96313504Y-115100728D01*
X96265885Y-115291204D01*
X96218266Y-115386442D01*
X96170647Y-115434061D01*
X96075409Y-115481680D01*
X95980171Y-115481680D01*
X95884933Y-115434061D01*
X95837314Y-115386442D01*
X95789695Y-115291204D01*
X95742076Y-115100728D01*
X95742076Y-114862633D01*
X95789695Y-114672157D01*
X95837314Y-114576919D01*
X95884933Y-114529300D01*
X95980171Y-114481680D01*
%TO.C,K9*%
X75365104Y-115481680D02*
X75365104Y-114481680D01*
X75936533Y-115481680D02*
X75507961Y-114910252D01*
X75936533Y-114481680D02*
X75365104Y-115053109D01*
X76412723Y-115481680D02*
X76603200Y-115481680D01*
X76698438Y-115434061D01*
X76746057Y-115386442D01*
X76841295Y-115243585D01*
X76888914Y-115053109D01*
X76888914Y-114672157D01*
X76841295Y-114576919D01*
X76793676Y-114529300D01*
X76698438Y-114481680D01*
X76507961Y-114481680D01*
X76412723Y-114529300D01*
X76365104Y-114576919D01*
X76317485Y-114672157D01*
X76317485Y-114910252D01*
X76365104Y-115005490D01*
X76412723Y-115053109D01*
X76507961Y-115100728D01*
X76698438Y-115100728D01*
X76793676Y-115053109D01*
X76841295Y-115005490D01*
X76888914Y-114910252D01*
%TO.C,K8*%
X132210304Y-96533280D02*
X132210304Y-95533280D01*
X132781733Y-96533280D02*
X132353161Y-95961852D01*
X132781733Y-95533280D02*
X132210304Y-96104709D01*
X133353161Y-95961852D02*
X133257923Y-95914233D01*
X133210304Y-95866614D01*
X133162685Y-95771376D01*
X133162685Y-95723757D01*
X133210304Y-95628519D01*
X133257923Y-95580900D01*
X133353161Y-95533280D01*
X133543638Y-95533280D01*
X133638876Y-95580900D01*
X133686495Y-95628519D01*
X133734114Y-95723757D01*
X133734114Y-95771376D01*
X133686495Y-95866614D01*
X133638876Y-95914233D01*
X133543638Y-95961852D01*
X133353161Y-95961852D01*
X133257923Y-96009471D01*
X133210304Y-96057090D01*
X133162685Y-96152328D01*
X133162685Y-96342804D01*
X133210304Y-96438042D01*
X133257923Y-96485661D01*
X133353161Y-96533280D01*
X133543638Y-96533280D01*
X133638876Y-96485661D01*
X133686495Y-96438042D01*
X133734114Y-96342804D01*
X133734114Y-96152328D01*
X133686495Y-96057090D01*
X133638876Y-96009471D01*
X133543638Y-95961852D01*
%TO.C,K7*%
X113261904Y-96533280D02*
X113261904Y-95533280D01*
X113833333Y-96533280D02*
X113404761Y-95961852D01*
X113833333Y-95533280D02*
X113261904Y-96104709D01*
X114166666Y-95533280D02*
X114833333Y-95533280D01*
X114404761Y-96533280D01*
%TO.C,K6*%
X94313504Y-96533280D02*
X94313504Y-95533280D01*
X94884933Y-96533280D02*
X94456361Y-95961852D01*
X94884933Y-95533280D02*
X94313504Y-96104709D01*
X95742076Y-95533280D02*
X95551600Y-95533280D01*
X95456361Y-95580900D01*
X95408742Y-95628519D01*
X95313504Y-95771376D01*
X95265885Y-95961852D01*
X95265885Y-96342804D01*
X95313504Y-96438042D01*
X95361123Y-96485661D01*
X95456361Y-96533280D01*
X95646838Y-96533280D01*
X95742076Y-96485661D01*
X95789695Y-96438042D01*
X95837314Y-96342804D01*
X95837314Y-96104709D01*
X95789695Y-96009471D01*
X95742076Y-95961852D01*
X95646838Y-95914233D01*
X95456361Y-95914233D01*
X95361123Y-95961852D01*
X95313504Y-96009471D01*
X95265885Y-96104709D01*
%TO.C,K5*%
X75365104Y-96533280D02*
X75365104Y-95533280D01*
X75936533Y-96533280D02*
X75507961Y-95961852D01*
X75936533Y-95533280D02*
X75365104Y-96104709D01*
X76841295Y-95533280D02*
X76365104Y-95533280D01*
X76317485Y-96009471D01*
X76365104Y-95961852D01*
X76460342Y-95914233D01*
X76698438Y-95914233D01*
X76793676Y-95961852D01*
X76841295Y-96009471D01*
X76888914Y-96104709D01*
X76888914Y-96342804D01*
X76841295Y-96438042D01*
X76793676Y-96485661D01*
X76698438Y-96533280D01*
X76460342Y-96533280D01*
X76365104Y-96485661D01*
X76317485Y-96438042D01*
%TO.C,K4*%
X132210304Y-77584880D02*
X132210304Y-76584880D01*
X132781733Y-77584880D02*
X132353161Y-77013452D01*
X132781733Y-76584880D02*
X132210304Y-77156309D01*
X133638876Y-76918214D02*
X133638876Y-77584880D01*
X133400780Y-76537261D02*
X133162685Y-77251547D01*
X133781733Y-77251547D01*
%TO.C,K3*%
X113261904Y-77584880D02*
X113261904Y-76584880D01*
X113833333Y-77584880D02*
X113404761Y-77013452D01*
X113833333Y-76584880D02*
X113261904Y-77156309D01*
X114166666Y-76584880D02*
X114785714Y-76584880D01*
X114452380Y-76965833D01*
X114595238Y-76965833D01*
X114690476Y-77013452D01*
X114738095Y-77061071D01*
X114785714Y-77156309D01*
X114785714Y-77394404D01*
X114738095Y-77489642D01*
X114690476Y-77537261D01*
X114595238Y-77584880D01*
X114309523Y-77584880D01*
X114214285Y-77537261D01*
X114166666Y-77489642D01*
%TO.C,K2*%
X94313504Y-77584880D02*
X94313504Y-76584880D01*
X94884933Y-77584880D02*
X94456361Y-77013452D01*
X94884933Y-76584880D02*
X94313504Y-77156309D01*
X95265885Y-76680119D02*
X95313504Y-76632500D01*
X95408742Y-76584880D01*
X95646838Y-76584880D01*
X95742076Y-76632500D01*
X95789695Y-76680119D01*
X95837314Y-76775357D01*
X95837314Y-76870595D01*
X95789695Y-77013452D01*
X95218266Y-77584880D01*
X95837314Y-77584880D01*
%TO.C,K1*%
X75661904Y-70252380D02*
X75661904Y-69252380D01*
X76233333Y-70252380D02*
X75804761Y-69680952D01*
X76233333Y-69252380D02*
X75661904Y-69823809D01*
X77185714Y-70252380D02*
X76614285Y-70252380D01*
X76900000Y-70252380D02*
X76900000Y-69252380D01*
X76804761Y-69395238D01*
X76709523Y-69490476D01*
X76614285Y-69538095D01*
D12*
%TO.C,REF\u002A\u002A*%
X143200000Y-41000000D02*
G75*
G03*
X143200000Y-41000000I-1700000J0D01*
G01*
%TD*%
M02*
