%TF.GenerationSoftware,KiCad,Pcbnew,5.99.0-unknown-48521774cd~131~ubuntu20.04.1*%
%TF.CreationDate,2021-08-15T22:43:00-07:00*%
%TF.ProjectId,keyboard MKI,6b657962-6f61-4726-9420-4d4b492e6b69,rev?*%
%TF.SameCoordinates,Original*%
%TF.FileFunction,Legend,Bot*%
%TF.FilePolarity,Positive*%
%FSLAX46Y46*%
G04 Gerber Fmt 4.6, Leading zero omitted, Abs format (unit mm)*
G04 Created by KiCad (PCBNEW 5.99.0-unknown-48521774cd~131~ubuntu20.04.1) date 2021-08-15 22:43:00*
%MOMM*%
%LPD*%
G01*
G04 APERTURE LIST*
G04 Aperture macros list*
%AMHorizOval*
0 Thick line with rounded ends*
0 $1 width*
0 $2 $3 position (X,Y) of the first rounded end (center of the circle)*
0 $4 $5 position (X,Y) of the second rounded end (center of the circle)*
0 Add line between two ends*
20,1,$1,$2,$3,$4,$5,0*
0 Add two circle primitives to create the rounded ends*
1,1,$1,$2,$3*
1,1,$1,$4,$5*%
G04 Aperture macros list end*
%ADD10C,0.150000*%
%ADD11C,0.120000*%
%ADD12C,0.200000*%
%ADD13C,0.381000*%
%ADD14HorizOval,2.500000X-0.604462X0.948815X0.604462X-0.948815X0*%
%ADD15HorizOval,2.500000X-0.019724X0.289328X0.019724X-0.289328X0*%
%ADD16R,1.600000X1.600000*%
%ADD17C,1.600000*%
G04 APERTURE END LIST*
D10*
%TO.C,SW1*%
X105416666Y-45845238D02*
X105559523Y-45797619D01*
X105797619Y-45797619D01*
X105892857Y-45845238D01*
X105940476Y-45892857D01*
X105988095Y-45988095D01*
X105988095Y-46083333D01*
X105940476Y-46178571D01*
X105892857Y-46226190D01*
X105797619Y-46273809D01*
X105607142Y-46321428D01*
X105511904Y-46369047D01*
X105464285Y-46416666D01*
X105416666Y-46511904D01*
X105416666Y-46607142D01*
X105464285Y-46702380D01*
X105511904Y-46750000D01*
X105607142Y-46797619D01*
X105845238Y-46797619D01*
X105988095Y-46750000D01*
X106321428Y-46797619D02*
X106559523Y-45797619D01*
X106750000Y-46511904D01*
X106940476Y-45797619D01*
X107178571Y-46797619D01*
X108083333Y-45797619D02*
X107511904Y-45797619D01*
X107797619Y-45797619D02*
X107797619Y-46797619D01*
X107702380Y-46654761D01*
X107607142Y-46559523D01*
X107511904Y-46511904D01*
%TO.C,X1*%
X87768095Y-39899523D02*
X87341428Y-40539523D01*
X87341428Y-39899523D02*
X87768095Y-40539523D01*
X86762380Y-40539523D02*
X87128095Y-40539523D01*
X86945238Y-40539523D02*
X86945238Y-39899523D01*
X87006190Y-39990952D01*
X87067142Y-40051904D01*
X87128095Y-40082380D01*
%TO.C,U1*%
X85761904Y-60402380D02*
X85761904Y-61211904D01*
X85714285Y-61307142D01*
X85666666Y-61354761D01*
X85571428Y-61402380D01*
X85380952Y-61402380D01*
X85285714Y-61354761D01*
X85238095Y-61307142D01*
X85190476Y-61211904D01*
X85190476Y-60402380D01*
X84190476Y-61402380D02*
X84761904Y-61402380D01*
X84476190Y-61402380D02*
X84476190Y-60402380D01*
X84571428Y-60545238D01*
X84666666Y-60640476D01*
X84761904Y-60688095D01*
%TO.C,R4*%
X98945130Y-54614383D02*
X98468940Y-54281050D01*
X98945130Y-54042954D02*
X97945130Y-54042954D01*
X97945130Y-54423907D01*
X97992750Y-54519145D01*
X98040369Y-54566764D01*
X98135607Y-54614383D01*
X98278464Y-54614383D01*
X98373702Y-54566764D01*
X98421321Y-54519145D01*
X98468940Y-54423907D01*
X98468940Y-54042954D01*
X98278464Y-55471526D02*
X98945130Y-55471526D01*
X97897511Y-55233430D02*
X98611797Y-54995335D01*
X98611797Y-55614383D01*
%TO.C,R3*%
X143333630Y-44483333D02*
X142857440Y-44150000D01*
X143333630Y-43911904D02*
X142333630Y-43911904D01*
X142333630Y-44292857D01*
X142381250Y-44388095D01*
X142428869Y-44435714D01*
X142524107Y-44483333D01*
X142666964Y-44483333D01*
X142762202Y-44435714D01*
X142809821Y-44388095D01*
X142857440Y-44292857D01*
X142857440Y-43911904D01*
X142333630Y-44816666D02*
X142333630Y-45435714D01*
X142714583Y-45102380D01*
X142714583Y-45245238D01*
X142762202Y-45340476D01*
X142809821Y-45388095D01*
X142905059Y-45435714D01*
X143143154Y-45435714D01*
X143238392Y-45388095D01*
X143286011Y-45340476D01*
X143333630Y-45245238D01*
X143333630Y-44959523D01*
X143286011Y-44864285D01*
X143238392Y-44816666D01*
%TO.C,R2*%
X126102380Y-45395833D02*
X125626190Y-45062500D01*
X126102380Y-44824404D02*
X125102380Y-44824404D01*
X125102380Y-45205357D01*
X125150000Y-45300595D01*
X125197619Y-45348214D01*
X125292857Y-45395833D01*
X125435714Y-45395833D01*
X125530952Y-45348214D01*
X125578571Y-45300595D01*
X125626190Y-45205357D01*
X125626190Y-44824404D01*
X125197619Y-45776785D02*
X125150000Y-45824404D01*
X125102380Y-45919642D01*
X125102380Y-46157738D01*
X125150000Y-46252976D01*
X125197619Y-46300595D01*
X125292857Y-46348214D01*
X125388095Y-46348214D01*
X125530952Y-46300595D01*
X126102380Y-45729166D01*
X126102380Y-46348214D01*
%TO.C,R1*%
X98416666Y-42452380D02*
X98750000Y-41976190D01*
X98988095Y-42452380D02*
X98988095Y-41452380D01*
X98607142Y-41452380D01*
X98511904Y-41500000D01*
X98464285Y-41547619D01*
X98416666Y-41642857D01*
X98416666Y-41785714D01*
X98464285Y-41880952D01*
X98511904Y-41928571D01*
X98607142Y-41976190D01*
X98988095Y-41976190D01*
X97464285Y-42452380D02*
X98035714Y-42452380D01*
X97750000Y-42452380D02*
X97750000Y-41452380D01*
X97845238Y-41595238D01*
X97940476Y-41690476D01*
X98035714Y-41738095D01*
%TO.C,J1*%
X130908333Y-46149880D02*
X130908333Y-46864166D01*
X130955952Y-47007023D01*
X131051190Y-47102261D01*
X131194047Y-47149880D01*
X131289285Y-47149880D01*
X129908333Y-47149880D02*
X130479761Y-47149880D01*
X130194047Y-47149880D02*
X130194047Y-46149880D01*
X130289285Y-46292738D01*
X130384523Y-46387976D01*
X130479761Y-46435595D01*
%TO.C,D16*%
X133919828Y-136683704D02*
X133919828Y-135883704D01*
X133729352Y-135883704D01*
X133615066Y-135921800D01*
X133538876Y-135997990D01*
X133500780Y-136074180D01*
X133462685Y-136226561D01*
X133462685Y-136340847D01*
X133500780Y-136493228D01*
X133538876Y-136569419D01*
X133615066Y-136645609D01*
X133729352Y-136683704D01*
X133919828Y-136683704D01*
X132700780Y-136683704D02*
X133157923Y-136683704D01*
X132929352Y-136683704D02*
X132929352Y-135883704D01*
X133005542Y-135997990D01*
X133081733Y-136074180D01*
X133157923Y-136112276D01*
X132015066Y-135883704D02*
X132167447Y-135883704D01*
X132243638Y-135921800D01*
X132281733Y-135959895D01*
X132357923Y-136074180D01*
X132396019Y-136226561D01*
X132396019Y-136531323D01*
X132357923Y-136607514D01*
X132319828Y-136645609D01*
X132243638Y-136683704D01*
X132091257Y-136683704D01*
X132015066Y-136645609D01*
X131976971Y-136607514D01*
X131938876Y-136531323D01*
X131938876Y-136340847D01*
X131976971Y-136264657D01*
X132015066Y-136226561D01*
X132091257Y-136188466D01*
X132243638Y-136188466D01*
X132319828Y-136226561D01*
X132357923Y-136264657D01*
X132396019Y-136340847D01*
%TO.C,D15*%
X114971428Y-136683704D02*
X114971428Y-135883704D01*
X114780952Y-135883704D01*
X114666666Y-135921800D01*
X114590476Y-135997990D01*
X114552380Y-136074180D01*
X114514285Y-136226561D01*
X114514285Y-136340847D01*
X114552380Y-136493228D01*
X114590476Y-136569419D01*
X114666666Y-136645609D01*
X114780952Y-136683704D01*
X114971428Y-136683704D01*
X113752380Y-136683704D02*
X114209523Y-136683704D01*
X113980952Y-136683704D02*
X113980952Y-135883704D01*
X114057142Y-135997990D01*
X114133333Y-136074180D01*
X114209523Y-136112276D01*
X113028571Y-135883704D02*
X113409523Y-135883704D01*
X113447619Y-136264657D01*
X113409523Y-136226561D01*
X113333333Y-136188466D01*
X113142857Y-136188466D01*
X113066666Y-136226561D01*
X113028571Y-136264657D01*
X112990476Y-136340847D01*
X112990476Y-136531323D01*
X113028571Y-136607514D01*
X113066666Y-136645609D01*
X113142857Y-136683704D01*
X113333333Y-136683704D01*
X113409523Y-136645609D01*
X113447619Y-136607514D01*
%TO.C,D14*%
X96023028Y-136683704D02*
X96023028Y-135883704D01*
X95832552Y-135883704D01*
X95718266Y-135921800D01*
X95642076Y-135997990D01*
X95603980Y-136074180D01*
X95565885Y-136226561D01*
X95565885Y-136340847D01*
X95603980Y-136493228D01*
X95642076Y-136569419D01*
X95718266Y-136645609D01*
X95832552Y-136683704D01*
X96023028Y-136683704D01*
X94803980Y-136683704D02*
X95261123Y-136683704D01*
X95032552Y-136683704D02*
X95032552Y-135883704D01*
X95108742Y-135997990D01*
X95184933Y-136074180D01*
X95261123Y-136112276D01*
X94118266Y-136150371D02*
X94118266Y-136683704D01*
X94308742Y-135845609D02*
X94499219Y-136417038D01*
X94003980Y-136417038D01*
%TO.C,D13*%
X77074628Y-136683704D02*
X77074628Y-135883704D01*
X76884152Y-135883704D01*
X76769866Y-135921800D01*
X76693676Y-135997990D01*
X76655580Y-136074180D01*
X76617485Y-136226561D01*
X76617485Y-136340847D01*
X76655580Y-136493228D01*
X76693676Y-136569419D01*
X76769866Y-136645609D01*
X76884152Y-136683704D01*
X77074628Y-136683704D01*
X75855580Y-136683704D02*
X76312723Y-136683704D01*
X76084152Y-136683704D02*
X76084152Y-135883704D01*
X76160342Y-135997990D01*
X76236533Y-136074180D01*
X76312723Y-136112276D01*
X75588914Y-135883704D02*
X75093676Y-135883704D01*
X75360342Y-136188466D01*
X75246057Y-136188466D01*
X75169866Y-136226561D01*
X75131771Y-136264657D01*
X75093676Y-136340847D01*
X75093676Y-136531323D01*
X75131771Y-136607514D01*
X75169866Y-136645609D01*
X75246057Y-136683704D01*
X75474628Y-136683704D01*
X75550819Y-136645609D01*
X75588914Y-136607514D01*
%TO.C,D12*%
X133919828Y-117735304D02*
X133919828Y-116935304D01*
X133729352Y-116935304D01*
X133615066Y-116973400D01*
X133538876Y-117049590D01*
X133500780Y-117125780D01*
X133462685Y-117278161D01*
X133462685Y-117392447D01*
X133500780Y-117544828D01*
X133538876Y-117621019D01*
X133615066Y-117697209D01*
X133729352Y-117735304D01*
X133919828Y-117735304D01*
X132700780Y-117735304D02*
X133157923Y-117735304D01*
X132929352Y-117735304D02*
X132929352Y-116935304D01*
X133005542Y-117049590D01*
X133081733Y-117125780D01*
X133157923Y-117163876D01*
X132396019Y-117011495D02*
X132357923Y-116973400D01*
X132281733Y-116935304D01*
X132091257Y-116935304D01*
X132015066Y-116973400D01*
X131976971Y-117011495D01*
X131938876Y-117087685D01*
X131938876Y-117163876D01*
X131976971Y-117278161D01*
X132434114Y-117735304D01*
X131938876Y-117735304D01*
%TO.C,D11*%
X114971428Y-117735304D02*
X114971428Y-116935304D01*
X114780952Y-116935304D01*
X114666666Y-116973400D01*
X114590476Y-117049590D01*
X114552380Y-117125780D01*
X114514285Y-117278161D01*
X114514285Y-117392447D01*
X114552380Y-117544828D01*
X114590476Y-117621019D01*
X114666666Y-117697209D01*
X114780952Y-117735304D01*
X114971428Y-117735304D01*
X113752380Y-117735304D02*
X114209523Y-117735304D01*
X113980952Y-117735304D02*
X113980952Y-116935304D01*
X114057142Y-117049590D01*
X114133333Y-117125780D01*
X114209523Y-117163876D01*
X112990476Y-117735304D02*
X113447619Y-117735304D01*
X113219047Y-117735304D02*
X113219047Y-116935304D01*
X113295238Y-117049590D01*
X113371428Y-117125780D01*
X113447619Y-117163876D01*
%TO.C,D10*%
X96023028Y-117735304D02*
X96023028Y-116935304D01*
X95832552Y-116935304D01*
X95718266Y-116973400D01*
X95642076Y-117049590D01*
X95603980Y-117125780D01*
X95565885Y-117278161D01*
X95565885Y-117392447D01*
X95603980Y-117544828D01*
X95642076Y-117621019D01*
X95718266Y-117697209D01*
X95832552Y-117735304D01*
X96023028Y-117735304D01*
X94803980Y-117735304D02*
X95261123Y-117735304D01*
X95032552Y-117735304D02*
X95032552Y-116935304D01*
X95108742Y-117049590D01*
X95184933Y-117125780D01*
X95261123Y-117163876D01*
X94308742Y-116935304D02*
X94232552Y-116935304D01*
X94156361Y-116973400D01*
X94118266Y-117011495D01*
X94080171Y-117087685D01*
X94042076Y-117240066D01*
X94042076Y-117430542D01*
X94080171Y-117582923D01*
X94118266Y-117659114D01*
X94156361Y-117697209D01*
X94232552Y-117735304D01*
X94308742Y-117735304D01*
X94384933Y-117697209D01*
X94423028Y-117659114D01*
X94461123Y-117582923D01*
X94499219Y-117430542D01*
X94499219Y-117240066D01*
X94461123Y-117087685D01*
X94423028Y-117011495D01*
X94384933Y-116973400D01*
X94308742Y-116935304D01*
%TO.C,D9*%
X76693676Y-117735304D02*
X76693676Y-116935304D01*
X76503200Y-116935304D01*
X76388914Y-116973400D01*
X76312723Y-117049590D01*
X76274628Y-117125780D01*
X76236533Y-117278161D01*
X76236533Y-117392447D01*
X76274628Y-117544828D01*
X76312723Y-117621019D01*
X76388914Y-117697209D01*
X76503200Y-117735304D01*
X76693676Y-117735304D01*
X75855580Y-117735304D02*
X75703200Y-117735304D01*
X75627009Y-117697209D01*
X75588914Y-117659114D01*
X75512723Y-117544828D01*
X75474628Y-117392447D01*
X75474628Y-117087685D01*
X75512723Y-117011495D01*
X75550819Y-116973400D01*
X75627009Y-116935304D01*
X75779390Y-116935304D01*
X75855580Y-116973400D01*
X75893676Y-117011495D01*
X75931771Y-117087685D01*
X75931771Y-117278161D01*
X75893676Y-117354352D01*
X75855580Y-117392447D01*
X75779390Y-117430542D01*
X75627009Y-117430542D01*
X75550819Y-117392447D01*
X75512723Y-117354352D01*
X75474628Y-117278161D01*
%TO.C,D8*%
X133538876Y-98786904D02*
X133538876Y-97986904D01*
X133348400Y-97986904D01*
X133234114Y-98025000D01*
X133157923Y-98101190D01*
X133119828Y-98177380D01*
X133081733Y-98329761D01*
X133081733Y-98444047D01*
X133119828Y-98596428D01*
X133157923Y-98672619D01*
X133234114Y-98748809D01*
X133348400Y-98786904D01*
X133538876Y-98786904D01*
X132624590Y-98329761D02*
X132700780Y-98291666D01*
X132738876Y-98253571D01*
X132776971Y-98177380D01*
X132776971Y-98139285D01*
X132738876Y-98063095D01*
X132700780Y-98025000D01*
X132624590Y-97986904D01*
X132472209Y-97986904D01*
X132396019Y-98025000D01*
X132357923Y-98063095D01*
X132319828Y-98139285D01*
X132319828Y-98177380D01*
X132357923Y-98253571D01*
X132396019Y-98291666D01*
X132472209Y-98329761D01*
X132624590Y-98329761D01*
X132700780Y-98367857D01*
X132738876Y-98405952D01*
X132776971Y-98482142D01*
X132776971Y-98634523D01*
X132738876Y-98710714D01*
X132700780Y-98748809D01*
X132624590Y-98786904D01*
X132472209Y-98786904D01*
X132396019Y-98748809D01*
X132357923Y-98710714D01*
X132319828Y-98634523D01*
X132319828Y-98482142D01*
X132357923Y-98405952D01*
X132396019Y-98367857D01*
X132472209Y-98329761D01*
%TO.C,D7*%
X114590476Y-98786904D02*
X114590476Y-97986904D01*
X114400000Y-97986904D01*
X114285714Y-98025000D01*
X114209523Y-98101190D01*
X114171428Y-98177380D01*
X114133333Y-98329761D01*
X114133333Y-98444047D01*
X114171428Y-98596428D01*
X114209523Y-98672619D01*
X114285714Y-98748809D01*
X114400000Y-98786904D01*
X114590476Y-98786904D01*
X113866666Y-97986904D02*
X113333333Y-97986904D01*
X113676190Y-98786904D01*
%TO.C,D6*%
X95642076Y-98786904D02*
X95642076Y-97986904D01*
X95451600Y-97986904D01*
X95337314Y-98025000D01*
X95261123Y-98101190D01*
X95223028Y-98177380D01*
X95184933Y-98329761D01*
X95184933Y-98444047D01*
X95223028Y-98596428D01*
X95261123Y-98672619D01*
X95337314Y-98748809D01*
X95451600Y-98786904D01*
X95642076Y-98786904D01*
X94499219Y-97986904D02*
X94651600Y-97986904D01*
X94727790Y-98025000D01*
X94765885Y-98063095D01*
X94842076Y-98177380D01*
X94880171Y-98329761D01*
X94880171Y-98634523D01*
X94842076Y-98710714D01*
X94803980Y-98748809D01*
X94727790Y-98786904D01*
X94575409Y-98786904D01*
X94499219Y-98748809D01*
X94461123Y-98710714D01*
X94423028Y-98634523D01*
X94423028Y-98444047D01*
X94461123Y-98367857D01*
X94499219Y-98329761D01*
X94575409Y-98291666D01*
X94727790Y-98291666D01*
X94803980Y-98329761D01*
X94842076Y-98367857D01*
X94880171Y-98444047D01*
%TO.C,D5*%
X76693676Y-98786904D02*
X76693676Y-97986904D01*
X76503200Y-97986904D01*
X76388914Y-98025000D01*
X76312723Y-98101190D01*
X76274628Y-98177380D01*
X76236533Y-98329761D01*
X76236533Y-98444047D01*
X76274628Y-98596428D01*
X76312723Y-98672619D01*
X76388914Y-98748809D01*
X76503200Y-98786904D01*
X76693676Y-98786904D01*
X75512723Y-97986904D02*
X75893676Y-97986904D01*
X75931771Y-98367857D01*
X75893676Y-98329761D01*
X75817485Y-98291666D01*
X75627009Y-98291666D01*
X75550819Y-98329761D01*
X75512723Y-98367857D01*
X75474628Y-98444047D01*
X75474628Y-98634523D01*
X75512723Y-98710714D01*
X75550819Y-98748809D01*
X75627009Y-98786904D01*
X75817485Y-98786904D01*
X75893676Y-98748809D01*
X75931771Y-98710714D01*
%TO.C,D4*%
X133538876Y-79838504D02*
X133538876Y-79038504D01*
X133348400Y-79038504D01*
X133234114Y-79076600D01*
X133157923Y-79152790D01*
X133119828Y-79228980D01*
X133081733Y-79381361D01*
X133081733Y-79495647D01*
X133119828Y-79648028D01*
X133157923Y-79724219D01*
X133234114Y-79800409D01*
X133348400Y-79838504D01*
X133538876Y-79838504D01*
X132396019Y-79305171D02*
X132396019Y-79838504D01*
X132586495Y-79000409D02*
X132776971Y-79571838D01*
X132281733Y-79571838D01*
%TO.C,D3*%
X114590476Y-79838504D02*
X114590476Y-79038504D01*
X114400000Y-79038504D01*
X114285714Y-79076600D01*
X114209523Y-79152790D01*
X114171428Y-79228980D01*
X114133333Y-79381361D01*
X114133333Y-79495647D01*
X114171428Y-79648028D01*
X114209523Y-79724219D01*
X114285714Y-79800409D01*
X114400000Y-79838504D01*
X114590476Y-79838504D01*
X113866666Y-79038504D02*
X113371428Y-79038504D01*
X113638095Y-79343266D01*
X113523809Y-79343266D01*
X113447619Y-79381361D01*
X113409523Y-79419457D01*
X113371428Y-79495647D01*
X113371428Y-79686123D01*
X113409523Y-79762314D01*
X113447619Y-79800409D01*
X113523809Y-79838504D01*
X113752380Y-79838504D01*
X113828571Y-79800409D01*
X113866666Y-79762314D01*
%TO.C,D2*%
X95642076Y-79838504D02*
X95642076Y-79038504D01*
X95451600Y-79038504D01*
X95337314Y-79076600D01*
X95261123Y-79152790D01*
X95223028Y-79228980D01*
X95184933Y-79381361D01*
X95184933Y-79495647D01*
X95223028Y-79648028D01*
X95261123Y-79724219D01*
X95337314Y-79800409D01*
X95451600Y-79838504D01*
X95642076Y-79838504D01*
X94880171Y-79114695D02*
X94842076Y-79076600D01*
X94765885Y-79038504D01*
X94575409Y-79038504D01*
X94499219Y-79076600D01*
X94461123Y-79114695D01*
X94423028Y-79190885D01*
X94423028Y-79267076D01*
X94461123Y-79381361D01*
X94918266Y-79838504D01*
X94423028Y-79838504D01*
%TO.C,D1*%
X76693676Y-79838504D02*
X76693676Y-79038504D01*
X76503200Y-79038504D01*
X76388914Y-79076600D01*
X76312723Y-79152790D01*
X76274628Y-79228980D01*
X76236533Y-79381361D01*
X76236533Y-79495647D01*
X76274628Y-79648028D01*
X76312723Y-79724219D01*
X76388914Y-79800409D01*
X76503200Y-79838504D01*
X76693676Y-79838504D01*
X75474628Y-79838504D02*
X75931771Y-79838504D01*
X75703200Y-79838504D02*
X75703200Y-79038504D01*
X75779390Y-79152790D01*
X75855580Y-79228980D01*
X75931771Y-79267076D01*
%TO.C,C8*%
X72596616Y-54807992D02*
X72644235Y-54855611D01*
X72787092Y-54903230D01*
X72882330Y-54903230D01*
X73025188Y-54855611D01*
X73120426Y-54760373D01*
X73168045Y-54665135D01*
X73215664Y-54474659D01*
X73215664Y-54331802D01*
X73168045Y-54141326D01*
X73120426Y-54046088D01*
X73025188Y-53950850D01*
X72882330Y-53903230D01*
X72787092Y-53903230D01*
X72644235Y-53950850D01*
X72596616Y-53998469D01*
X72025188Y-54331802D02*
X72120426Y-54284183D01*
X72168045Y-54236564D01*
X72215664Y-54141326D01*
X72215664Y-54093707D01*
X72168045Y-53998469D01*
X72120426Y-53950850D01*
X72025188Y-53903230D01*
X71834711Y-53903230D01*
X71739473Y-53950850D01*
X71691854Y-53998469D01*
X71644235Y-54093707D01*
X71644235Y-54141326D01*
X71691854Y-54236564D01*
X71739473Y-54284183D01*
X71834711Y-54331802D01*
X72025188Y-54331802D01*
X72120426Y-54379421D01*
X72168045Y-54427040D01*
X72215664Y-54522278D01*
X72215664Y-54712754D01*
X72168045Y-54807992D01*
X72120426Y-54855611D01*
X72025188Y-54903230D01*
X71834711Y-54903230D01*
X71739473Y-54855611D01*
X71691854Y-54807992D01*
X71644235Y-54712754D01*
X71644235Y-54522278D01*
X71691854Y-54427040D01*
X71739473Y-54379421D01*
X71834711Y-54331802D01*
%TO.C,C7*%
X71834392Y-57020433D02*
X71882011Y-56972814D01*
X71929630Y-56829957D01*
X71929630Y-56734719D01*
X71882011Y-56591861D01*
X71786773Y-56496623D01*
X71691535Y-56449004D01*
X71501059Y-56401385D01*
X71358202Y-56401385D01*
X71167726Y-56449004D01*
X71072488Y-56496623D01*
X70977250Y-56591861D01*
X70929630Y-56734719D01*
X70929630Y-56829957D01*
X70977250Y-56972814D01*
X71024869Y-57020433D01*
X70929630Y-57353766D02*
X70929630Y-58020433D01*
X71929630Y-57591861D01*
%TO.C,C6*%
X69616666Y-59589642D02*
X69664285Y-59637261D01*
X69807142Y-59684880D01*
X69902380Y-59684880D01*
X70045238Y-59637261D01*
X70140476Y-59542023D01*
X70188095Y-59446785D01*
X70235714Y-59256309D01*
X70235714Y-59113452D01*
X70188095Y-58922976D01*
X70140476Y-58827738D01*
X70045238Y-58732500D01*
X69902380Y-58684880D01*
X69807142Y-58684880D01*
X69664285Y-58732500D01*
X69616666Y-58780119D01*
X68759523Y-58684880D02*
X68950000Y-58684880D01*
X69045238Y-58732500D01*
X69092857Y-58780119D01*
X69188095Y-58922976D01*
X69235714Y-59113452D01*
X69235714Y-59494404D01*
X69188095Y-59589642D01*
X69140476Y-59637261D01*
X69045238Y-59684880D01*
X68854761Y-59684880D01*
X68759523Y-59637261D01*
X68711904Y-59589642D01*
X68664285Y-59494404D01*
X68664285Y-59256309D01*
X68711904Y-59161071D01*
X68759523Y-59113452D01*
X68854761Y-59065833D01*
X69045238Y-59065833D01*
X69140476Y-59113452D01*
X69188095Y-59161071D01*
X69235714Y-59256309D01*
%TO.C,C5*%
X97166666Y-62949642D02*
X97214285Y-62997261D01*
X97357142Y-63044880D01*
X97452380Y-63044880D01*
X97595238Y-62997261D01*
X97690476Y-62902023D01*
X97738095Y-62806785D01*
X97785714Y-62616309D01*
X97785714Y-62473452D01*
X97738095Y-62282976D01*
X97690476Y-62187738D01*
X97595238Y-62092500D01*
X97452380Y-62044880D01*
X97357142Y-62044880D01*
X97214285Y-62092500D01*
X97166666Y-62140119D01*
X96261904Y-62044880D02*
X96738095Y-62044880D01*
X96785714Y-62521071D01*
X96738095Y-62473452D01*
X96642857Y-62425833D01*
X96404761Y-62425833D01*
X96309523Y-62473452D01*
X96261904Y-62521071D01*
X96214285Y-62616309D01*
X96214285Y-62854404D01*
X96261904Y-62949642D01*
X96309523Y-62997261D01*
X96404761Y-63044880D01*
X96642857Y-63044880D01*
X96738095Y-62997261D01*
X96785714Y-62949642D01*
%TO.C,C4*%
X75194392Y-48964783D02*
X75242011Y-48917164D01*
X75289630Y-48774307D01*
X75289630Y-48679069D01*
X75242011Y-48536211D01*
X75146773Y-48440973D01*
X75051535Y-48393354D01*
X74861059Y-48345735D01*
X74718202Y-48345735D01*
X74527726Y-48393354D01*
X74432488Y-48440973D01*
X74337250Y-48536211D01*
X74289630Y-48679069D01*
X74289630Y-48774307D01*
X74337250Y-48917164D01*
X74384869Y-48964783D01*
X74622964Y-49821926D02*
X75289630Y-49821926D01*
X74242011Y-49583830D02*
X74956297Y-49345735D01*
X74956297Y-49964783D01*
%TO.C,C3*%
X73323916Y-40702942D02*
X73371535Y-40750561D01*
X73514392Y-40798180D01*
X73609630Y-40798180D01*
X73752488Y-40750561D01*
X73847726Y-40655323D01*
X73895345Y-40560085D01*
X73942964Y-40369609D01*
X73942964Y-40226752D01*
X73895345Y-40036276D01*
X73847726Y-39941038D01*
X73752488Y-39845800D01*
X73609630Y-39798180D01*
X73514392Y-39798180D01*
X73371535Y-39845800D01*
X73323916Y-39893419D01*
X72990583Y-39798180D02*
X72371535Y-39798180D01*
X72704869Y-40179133D01*
X72562011Y-40179133D01*
X72466773Y-40226752D01*
X72419154Y-40274371D01*
X72371535Y-40369609D01*
X72371535Y-40607704D01*
X72419154Y-40702942D01*
X72466773Y-40750561D01*
X72562011Y-40798180D01*
X72847726Y-40798180D01*
X72942964Y-40750561D01*
X72990583Y-40702942D01*
%TO.C,C2*%
X77857142Y-40333333D02*
X77904761Y-40285714D01*
X77952380Y-40142857D01*
X77952380Y-40047619D01*
X77904761Y-39904761D01*
X77809523Y-39809523D01*
X77714285Y-39761904D01*
X77523809Y-39714285D01*
X77380952Y-39714285D01*
X77190476Y-39761904D01*
X77095238Y-39809523D01*
X77000000Y-39904761D01*
X76952380Y-40047619D01*
X76952380Y-40142857D01*
X77000000Y-40285714D01*
X77047619Y-40333333D01*
X77047619Y-40714285D02*
X77000000Y-40761904D01*
X76952380Y-40857142D01*
X76952380Y-41095238D01*
X77000000Y-41190476D01*
X77047619Y-41238095D01*
X77142857Y-41285714D01*
X77238095Y-41285714D01*
X77380952Y-41238095D01*
X77952380Y-40666666D01*
X77952380Y-41285714D01*
%TO.C,C1*%
X91037142Y-40333333D02*
X91084761Y-40285714D01*
X91132380Y-40142857D01*
X91132380Y-40047619D01*
X91084761Y-39904761D01*
X90989523Y-39809523D01*
X90894285Y-39761904D01*
X90703809Y-39714285D01*
X90560952Y-39714285D01*
X90370476Y-39761904D01*
X90275238Y-39809523D01*
X90180000Y-39904761D01*
X90132380Y-40047619D01*
X90132380Y-40142857D01*
X90180000Y-40285714D01*
X90227619Y-40333333D01*
X91132380Y-41285714D02*
X91132380Y-40714285D01*
X91132380Y-41000000D02*
X90132380Y-41000000D01*
X90275238Y-40904761D01*
X90370476Y-40809523D01*
X90418095Y-40714285D01*
D11*
%TO.C,SW1*%
X102750000Y-47250000D02*
X110750000Y-47250000D01*
X110750000Y-47250000D02*
X110750000Y-40250000D01*
X110750000Y-40250000D02*
X102750000Y-40250000D01*
X102750000Y-40250000D02*
X102750000Y-47250000D01*
X110250000Y-43750000D02*
G75*
G03*
X110250000Y-43750000I-1000000J0D01*
G01*
X105250000Y-43750000D02*
G75*
G03*
X105250000Y-43750000I-1000000J0D01*
G01*
D12*
%TO.C,X1*%
X86900000Y-41300000D02*
G75*
G03*
X86900000Y-41300000I-100000J0D01*
G01*
D10*
%TO.C,U1*%
X77825000Y-58100000D02*
X76550000Y-58100000D01*
X92175000Y-58675000D02*
X91500000Y-58675000D01*
X92175000Y-44325000D02*
X91500000Y-44325000D01*
X77825000Y-44325000D02*
X78500000Y-44325000D01*
X77825000Y-58675000D02*
X78500000Y-58675000D01*
X77825000Y-44325000D02*
X77825000Y-45000000D01*
X92175000Y-44325000D02*
X92175000Y-45000000D01*
X92175000Y-58675000D02*
X92175000Y-58000000D01*
X77825000Y-58675000D02*
X77825000Y-58100000D01*
D11*
%TO.C,R4*%
X96107750Y-55008114D02*
X96107750Y-54553986D01*
X97577750Y-55008114D02*
X97577750Y-54553986D01*
%TO.C,R3*%
X139765000Y-45789564D02*
X139765000Y-45335436D01*
X141235000Y-45789564D02*
X141235000Y-45335436D01*
%TO.C,R2*%
X124735000Y-45789564D02*
X124735000Y-45335436D01*
X123265000Y-45789564D02*
X123265000Y-45335436D01*
%TO.C,R1*%
X98985000Y-44639564D02*
X98985000Y-44185436D01*
X97515000Y-44639564D02*
X97515000Y-44185436D01*
D13*
%TO.C,K16*%
X139298400Y-125087700D02*
X139298400Y-123309700D01*
X139298400Y-136009700D02*
X139298400Y-134231700D01*
X137520400Y-136009700D02*
X139298400Y-136009700D01*
X126598400Y-136009700D02*
X128376400Y-136009700D01*
X126598400Y-134231700D02*
X126598400Y-136009700D01*
X126598400Y-123309700D02*
X126598400Y-125087700D01*
X128376400Y-123309700D02*
X126598400Y-123309700D01*
X139298400Y-123309700D02*
X137520400Y-123309700D01*
%TO.C,K15*%
X120350000Y-123309700D02*
X118572000Y-123309700D01*
X109428000Y-123309700D02*
X107650000Y-123309700D01*
X107650000Y-123309700D02*
X107650000Y-125087700D01*
X107650000Y-134231700D02*
X107650000Y-136009700D01*
X107650000Y-136009700D02*
X109428000Y-136009700D01*
X118572000Y-136009700D02*
X120350000Y-136009700D01*
X120350000Y-136009700D02*
X120350000Y-134231700D01*
X120350000Y-125087700D02*
X120350000Y-123309700D01*
%TO.C,K14*%
X101401600Y-125087700D02*
X101401600Y-123309700D01*
X101401600Y-136009700D02*
X101401600Y-134231700D01*
X99623600Y-136009700D02*
X101401600Y-136009700D01*
X88701600Y-136009700D02*
X90479600Y-136009700D01*
X88701600Y-134231700D02*
X88701600Y-136009700D01*
X88701600Y-123309700D02*
X88701600Y-125087700D01*
X90479600Y-123309700D02*
X88701600Y-123309700D01*
X101401600Y-123309700D02*
X99623600Y-123309700D01*
%TO.C,K13*%
X82453200Y-125087700D02*
X82453200Y-123309700D01*
X82453200Y-136009700D02*
X82453200Y-134231700D01*
X80675200Y-136009700D02*
X82453200Y-136009700D01*
X69753200Y-136009700D02*
X71531200Y-136009700D01*
X69753200Y-134231700D02*
X69753200Y-136009700D01*
X69753200Y-123309700D02*
X69753200Y-125087700D01*
X71531200Y-123309700D02*
X69753200Y-123309700D01*
X82453200Y-123309700D02*
X80675200Y-123309700D01*
%TO.C,K12*%
X139298400Y-104361300D02*
X137520400Y-104361300D01*
X128376400Y-104361300D02*
X126598400Y-104361300D01*
X126598400Y-104361300D02*
X126598400Y-106139300D01*
X126598400Y-115283300D02*
X126598400Y-117061300D01*
X126598400Y-117061300D02*
X128376400Y-117061300D01*
X137520400Y-117061300D02*
X139298400Y-117061300D01*
X139298400Y-117061300D02*
X139298400Y-115283300D01*
X139298400Y-106139300D02*
X139298400Y-104361300D01*
%TO.C,K11*%
X120350000Y-106139300D02*
X120350000Y-104361300D01*
X120350000Y-117061300D02*
X120350000Y-115283300D01*
X118572000Y-117061300D02*
X120350000Y-117061300D01*
X107650000Y-117061300D02*
X109428000Y-117061300D01*
X107650000Y-115283300D02*
X107650000Y-117061300D01*
X107650000Y-104361300D02*
X107650000Y-106139300D01*
X109428000Y-104361300D02*
X107650000Y-104361300D01*
X120350000Y-104361300D02*
X118572000Y-104361300D01*
%TO.C,K10*%
X101401600Y-106139300D02*
X101401600Y-104361300D01*
X101401600Y-117061300D02*
X101401600Y-115283300D01*
X99623600Y-117061300D02*
X101401600Y-117061300D01*
X88701600Y-117061300D02*
X90479600Y-117061300D01*
X88701600Y-115283300D02*
X88701600Y-117061300D01*
X88701600Y-104361300D02*
X88701600Y-106139300D01*
X90479600Y-104361300D02*
X88701600Y-104361300D01*
X101401600Y-104361300D02*
X99623600Y-104361300D01*
%TO.C,K9*%
X82453200Y-104361300D02*
X80675200Y-104361300D01*
X71531200Y-104361300D02*
X69753200Y-104361300D01*
X69753200Y-104361300D02*
X69753200Y-106139300D01*
X69753200Y-115283300D02*
X69753200Y-117061300D01*
X69753200Y-117061300D02*
X71531200Y-117061300D01*
X80675200Y-117061300D02*
X82453200Y-117061300D01*
X82453200Y-117061300D02*
X82453200Y-115283300D01*
X82453200Y-106139300D02*
X82453200Y-104361300D01*
%TO.C,K8*%
X139298400Y-87190900D02*
X139298400Y-85412900D01*
X139298400Y-98112900D02*
X139298400Y-96334900D01*
X137520400Y-98112900D02*
X139298400Y-98112900D01*
X126598400Y-98112900D02*
X128376400Y-98112900D01*
X126598400Y-96334900D02*
X126598400Y-98112900D01*
X126598400Y-85412900D02*
X126598400Y-87190900D01*
X128376400Y-85412900D02*
X126598400Y-85412900D01*
X139298400Y-85412900D02*
X137520400Y-85412900D01*
%TO.C,K7*%
X120350000Y-87190900D02*
X120350000Y-85412900D01*
X120350000Y-98112900D02*
X120350000Y-96334900D01*
X118572000Y-98112900D02*
X120350000Y-98112900D01*
X107650000Y-98112900D02*
X109428000Y-98112900D01*
X107650000Y-96334900D02*
X107650000Y-98112900D01*
X107650000Y-85412900D02*
X107650000Y-87190900D01*
X109428000Y-85412900D02*
X107650000Y-85412900D01*
X120350000Y-85412900D02*
X118572000Y-85412900D01*
%TO.C,K6*%
X101401600Y-87190900D02*
X101401600Y-85412900D01*
X101401600Y-98112900D02*
X101401600Y-96334900D01*
X99623600Y-98112900D02*
X101401600Y-98112900D01*
X88701600Y-98112900D02*
X90479600Y-98112900D01*
X88701600Y-96334900D02*
X88701600Y-98112900D01*
X88701600Y-85412900D02*
X88701600Y-87190900D01*
X90479600Y-85412900D02*
X88701600Y-85412900D01*
X101401600Y-85412900D02*
X99623600Y-85412900D01*
%TO.C,K5*%
X82453200Y-87190900D02*
X82453200Y-85412900D01*
X82453200Y-98112900D02*
X82453200Y-96334900D01*
X80675200Y-98112900D02*
X82453200Y-98112900D01*
X69753200Y-98112900D02*
X71531200Y-98112900D01*
X69753200Y-96334900D02*
X69753200Y-98112900D01*
X69753200Y-85412900D02*
X69753200Y-87190900D01*
X71531200Y-85412900D02*
X69753200Y-85412900D01*
X82453200Y-85412900D02*
X80675200Y-85412900D01*
%TO.C,K4*%
X139298400Y-68242500D02*
X139298400Y-66464500D01*
X139298400Y-79164500D02*
X139298400Y-77386500D01*
X137520400Y-79164500D02*
X139298400Y-79164500D01*
X126598400Y-79164500D02*
X128376400Y-79164500D01*
X126598400Y-77386500D02*
X126598400Y-79164500D01*
X126598400Y-66464500D02*
X126598400Y-68242500D01*
X128376400Y-66464500D02*
X126598400Y-66464500D01*
X139298400Y-66464500D02*
X137520400Y-66464500D01*
%TO.C,K3*%
X120350000Y-68242500D02*
X120350000Y-66464500D01*
X120350000Y-79164500D02*
X120350000Y-77386500D01*
X118572000Y-79164500D02*
X120350000Y-79164500D01*
X107650000Y-79164500D02*
X109428000Y-79164500D01*
X107650000Y-77386500D02*
X107650000Y-79164500D01*
X107650000Y-66464500D02*
X107650000Y-68242500D01*
X109428000Y-66464500D02*
X107650000Y-66464500D01*
X120350000Y-66464500D02*
X118572000Y-66464500D01*
%TO.C,K2*%
X101401600Y-66464500D02*
X99623600Y-66464500D01*
X90479600Y-66464500D02*
X88701600Y-66464500D01*
X88701600Y-66464500D02*
X88701600Y-68242500D01*
X88701600Y-77386500D02*
X88701600Y-79164500D01*
X88701600Y-79164500D02*
X90479600Y-79164500D01*
X99623600Y-79164500D02*
X101401600Y-79164500D01*
X101401600Y-79164500D02*
X101401600Y-77386500D01*
X101401600Y-68242500D02*
X101401600Y-66464500D01*
%TO.C,K1*%
X82453200Y-66464500D02*
X80675200Y-66464500D01*
X71531200Y-66464500D02*
X69753200Y-66464500D01*
X69753200Y-66464500D02*
X69753200Y-68242500D01*
X69753200Y-77386500D02*
X69753200Y-79164500D01*
X69753200Y-79164500D02*
X71531200Y-79164500D01*
X80675200Y-79164500D02*
X82453200Y-79164500D01*
X82453200Y-79164500D02*
X82453200Y-77386500D01*
X82453200Y-68242500D02*
X82453200Y-66464500D01*
D12*
%TO.C,J1*%
X127530000Y-38772500D02*
X127530000Y-37282500D01*
X127530000Y-37282500D02*
X136470000Y-37282500D01*
X136470000Y-37282500D02*
X136470000Y-38772500D01*
X127530000Y-42702500D02*
X127530000Y-41492500D01*
X136470000Y-42702500D02*
X136470000Y-41492500D01*
X128320000Y-45792500D02*
G75*
G03*
X128320000Y-45792500I-100000J0D01*
G01*
%TO.C,D16*%
X135223400Y-133196800D02*
X135223400Y-135596800D01*
X135398400Y-133196800D02*
X135398400Y-135596800D01*
X135573400Y-133196800D02*
X135573400Y-135596800D01*
X135973400Y-135596800D02*
X135973400Y-133196800D01*
X135748400Y-133196800D02*
X135748400Y-135596800D01*
X135873400Y-133196800D02*
X135873400Y-135596800D01*
X135948400Y-133196800D02*
X130148400Y-133196800D01*
X130148400Y-133196800D02*
X130148400Y-135596800D01*
X130148400Y-135596800D02*
X135948400Y-135596800D01*
%TO.C,D15*%
X116275000Y-133196800D02*
X116275000Y-135596800D01*
X116450000Y-133196800D02*
X116450000Y-135596800D01*
X116625000Y-133196800D02*
X116625000Y-135596800D01*
X117025000Y-135596800D02*
X117025000Y-133196800D01*
X116800000Y-133196800D02*
X116800000Y-135596800D01*
X116925000Y-133196800D02*
X116925000Y-135596800D01*
X117000000Y-133196800D02*
X111200000Y-133196800D01*
X111200000Y-133196800D02*
X111200000Y-135596800D01*
X111200000Y-135596800D02*
X117000000Y-135596800D01*
%TO.C,D14*%
X92251600Y-135596800D02*
X98051600Y-135596800D01*
X92251600Y-133196800D02*
X92251600Y-135596800D01*
X98051600Y-133196800D02*
X92251600Y-133196800D01*
X97976600Y-133196800D02*
X97976600Y-135596800D01*
X97851600Y-133196800D02*
X97851600Y-135596800D01*
X98076600Y-135596800D02*
X98076600Y-133196800D01*
X97676600Y-133196800D02*
X97676600Y-135596800D01*
X97501600Y-133196800D02*
X97501600Y-135596800D01*
X97326600Y-133196800D02*
X97326600Y-135596800D01*
%TO.C,D13*%
X78378200Y-133196800D02*
X78378200Y-135596800D01*
X78553200Y-133196800D02*
X78553200Y-135596800D01*
X78728200Y-133196800D02*
X78728200Y-135596800D01*
X79128200Y-135596800D02*
X79128200Y-133196800D01*
X78903200Y-133196800D02*
X78903200Y-135596800D01*
X79028200Y-133196800D02*
X79028200Y-135596800D01*
X79103200Y-133196800D02*
X73303200Y-133196800D01*
X73303200Y-133196800D02*
X73303200Y-135596800D01*
X73303200Y-135596800D02*
X79103200Y-135596800D01*
%TO.C,D12*%
X135223400Y-114248400D02*
X135223400Y-116648400D01*
X135398400Y-114248400D02*
X135398400Y-116648400D01*
X135573400Y-114248400D02*
X135573400Y-116648400D01*
X135973400Y-116648400D02*
X135973400Y-114248400D01*
X135748400Y-114248400D02*
X135748400Y-116648400D01*
X135873400Y-114248400D02*
X135873400Y-116648400D01*
X135948400Y-114248400D02*
X130148400Y-114248400D01*
X130148400Y-114248400D02*
X130148400Y-116648400D01*
X130148400Y-116648400D02*
X135948400Y-116648400D01*
%TO.C,D11*%
X116275000Y-114248400D02*
X116275000Y-116648400D01*
X116450000Y-114248400D02*
X116450000Y-116648400D01*
X116625000Y-114248400D02*
X116625000Y-116648400D01*
X117025000Y-116648400D02*
X117025000Y-114248400D01*
X116800000Y-114248400D02*
X116800000Y-116648400D01*
X116925000Y-114248400D02*
X116925000Y-116648400D01*
X117000000Y-114248400D02*
X111200000Y-114248400D01*
X111200000Y-114248400D02*
X111200000Y-116648400D01*
X111200000Y-116648400D02*
X117000000Y-116648400D01*
%TO.C,D10*%
X97326600Y-114248400D02*
X97326600Y-116648400D01*
X97501600Y-114248400D02*
X97501600Y-116648400D01*
X97676600Y-114248400D02*
X97676600Y-116648400D01*
X98076600Y-116648400D02*
X98076600Y-114248400D01*
X97851600Y-114248400D02*
X97851600Y-116648400D01*
X97976600Y-114248400D02*
X97976600Y-116648400D01*
X98051600Y-114248400D02*
X92251600Y-114248400D01*
X92251600Y-114248400D02*
X92251600Y-116648400D01*
X92251600Y-116648400D02*
X98051600Y-116648400D01*
%TO.C,D9*%
X73303200Y-116648400D02*
X79103200Y-116648400D01*
X73303200Y-114248400D02*
X73303200Y-116648400D01*
X79103200Y-114248400D02*
X73303200Y-114248400D01*
X79028200Y-114248400D02*
X79028200Y-116648400D01*
X78903200Y-114248400D02*
X78903200Y-116648400D01*
X79128200Y-116648400D02*
X79128200Y-114248400D01*
X78728200Y-114248400D02*
X78728200Y-116648400D01*
X78553200Y-114248400D02*
X78553200Y-116648400D01*
X78378200Y-114248400D02*
X78378200Y-116648400D01*
%TO.C,D8*%
X130148400Y-97700000D02*
X135948400Y-97700000D01*
X130148400Y-95300000D02*
X130148400Y-97700000D01*
X135948400Y-95300000D02*
X130148400Y-95300000D01*
X135873400Y-95300000D02*
X135873400Y-97700000D01*
X135748400Y-95300000D02*
X135748400Y-97700000D01*
X135973400Y-97700000D02*
X135973400Y-95300000D01*
X135573400Y-95300000D02*
X135573400Y-97700000D01*
X135398400Y-95300000D02*
X135398400Y-97700000D01*
X135223400Y-95300000D02*
X135223400Y-97700000D01*
%TO.C,D7*%
X116275000Y-95300000D02*
X116275000Y-97700000D01*
X116450000Y-95300000D02*
X116450000Y-97700000D01*
X116625000Y-95300000D02*
X116625000Y-97700000D01*
X117025000Y-97700000D02*
X117025000Y-95300000D01*
X116800000Y-95300000D02*
X116800000Y-97700000D01*
X116925000Y-95300000D02*
X116925000Y-97700000D01*
X117000000Y-95300000D02*
X111200000Y-95300000D01*
X111200000Y-95300000D02*
X111200000Y-97700000D01*
X111200000Y-97700000D02*
X117000000Y-97700000D01*
%TO.C,D6*%
X97326600Y-95300000D02*
X97326600Y-97700000D01*
X97501600Y-95300000D02*
X97501600Y-97700000D01*
X97676600Y-95300000D02*
X97676600Y-97700000D01*
X98076600Y-97700000D02*
X98076600Y-95300000D01*
X97851600Y-95300000D02*
X97851600Y-97700000D01*
X97976600Y-95300000D02*
X97976600Y-97700000D01*
X98051600Y-95300000D02*
X92251600Y-95300000D01*
X92251600Y-95300000D02*
X92251600Y-97700000D01*
X92251600Y-97700000D02*
X98051600Y-97700000D01*
%TO.C,D5*%
X78378200Y-95300000D02*
X78378200Y-97700000D01*
X78553200Y-95300000D02*
X78553200Y-97700000D01*
X78728200Y-95300000D02*
X78728200Y-97700000D01*
X79128200Y-97700000D02*
X79128200Y-95300000D01*
X78903200Y-95300000D02*
X78903200Y-97700000D01*
X79028200Y-95300000D02*
X79028200Y-97700000D01*
X79103200Y-95300000D02*
X73303200Y-95300000D01*
X73303200Y-95300000D02*
X73303200Y-97700000D01*
X73303200Y-97700000D02*
X79103200Y-97700000D01*
%TO.C,D4*%
X135223400Y-76351600D02*
X135223400Y-78751600D01*
X135398400Y-76351600D02*
X135398400Y-78751600D01*
X135573400Y-76351600D02*
X135573400Y-78751600D01*
X135973400Y-78751600D02*
X135973400Y-76351600D01*
X135748400Y-76351600D02*
X135748400Y-78751600D01*
X135873400Y-76351600D02*
X135873400Y-78751600D01*
X135948400Y-76351600D02*
X130148400Y-76351600D01*
X130148400Y-76351600D02*
X130148400Y-78751600D01*
X130148400Y-78751600D02*
X135948400Y-78751600D01*
%TO.C,D3*%
X116275000Y-76351600D02*
X116275000Y-78751600D01*
X116450000Y-76351600D02*
X116450000Y-78751600D01*
X116625000Y-76351600D02*
X116625000Y-78751600D01*
X117025000Y-78751600D02*
X117025000Y-76351600D01*
X116800000Y-76351600D02*
X116800000Y-78751600D01*
X116925000Y-76351600D02*
X116925000Y-78751600D01*
X117000000Y-76351600D02*
X111200000Y-76351600D01*
X111200000Y-76351600D02*
X111200000Y-78751600D01*
X111200000Y-78751600D02*
X117000000Y-78751600D01*
%TO.C,D2*%
X92251600Y-78751600D02*
X98051600Y-78751600D01*
X92251600Y-76351600D02*
X92251600Y-78751600D01*
X98051600Y-76351600D02*
X92251600Y-76351600D01*
X97976600Y-76351600D02*
X97976600Y-78751600D01*
X97851600Y-76351600D02*
X97851600Y-78751600D01*
X98076600Y-78751600D02*
X98076600Y-76351600D01*
X97676600Y-76351600D02*
X97676600Y-78751600D01*
X97501600Y-76351600D02*
X97501600Y-78751600D01*
X97326600Y-76351600D02*
X97326600Y-78751600D01*
%TO.C,D1*%
X78378200Y-76351600D02*
X78378200Y-78751600D01*
X78553200Y-76351600D02*
X78553200Y-78751600D01*
X78728200Y-76351600D02*
X78728200Y-78751600D01*
X79128200Y-78751600D02*
X79128200Y-76351600D01*
X78903200Y-76351600D02*
X78903200Y-78751600D01*
X79028200Y-76351600D02*
X79028200Y-78751600D01*
X79103200Y-76351600D02*
X73303200Y-76351600D01*
X73303200Y-76351600D02*
X73303200Y-78751600D01*
X73303200Y-78751600D02*
X79103200Y-78751600D01*
D11*
%TO.C,C8*%
X72168698Y-52215850D02*
X72691202Y-52215850D01*
X72168698Y-53685850D02*
X72691202Y-53685850D01*
%TO.C,C7*%
X73892250Y-56925848D02*
X73892250Y-57448352D01*
X72422250Y-56925848D02*
X72422250Y-57448352D01*
%TO.C,C6*%
X69711252Y-61647500D02*
X69188748Y-61647500D01*
X69711252Y-60177500D02*
X69188748Y-60177500D01*
%TO.C,C5*%
X96738748Y-60177500D02*
X97261252Y-60177500D01*
X96738748Y-61647500D02*
X97261252Y-61647500D01*
%TO.C,C4*%
X73892250Y-49392702D02*
X73892250Y-48870198D01*
X72422250Y-49392702D02*
X72422250Y-48870198D01*
%TO.C,C3*%
X73418502Y-42760800D02*
X72895998Y-42760800D01*
X73418502Y-41290800D02*
X72895998Y-41290800D01*
%TO.C,C2*%
X81235000Y-40761252D02*
X81235000Y-40238748D01*
X79765000Y-40761252D02*
X79765000Y-40238748D01*
%TO.C,C1*%
X88265000Y-40761252D02*
X88265000Y-40238748D01*
X89735000Y-40761252D02*
X89735000Y-40238748D01*
%TD*%
D14*
%TO.C,K16*%
X136203400Y-126139700D03*
D15*
X130428400Y-124869700D03*
%TD*%
%TO.C,K15*%
X111480000Y-124869700D03*
D14*
X117255000Y-126139700D03*
%TD*%
%TO.C,K14*%
X98306600Y-126139700D03*
D15*
X92531600Y-124869700D03*
%TD*%
D14*
%TO.C,K13*%
X79358200Y-126139700D03*
D15*
X73583200Y-124869700D03*
%TD*%
%TO.C,K12*%
X130428400Y-105921300D03*
D14*
X136203400Y-107191300D03*
%TD*%
%TO.C,K11*%
X117255000Y-107191300D03*
D15*
X111480000Y-105921300D03*
%TD*%
D14*
%TO.C,K10*%
X98306600Y-107191300D03*
D15*
X92531600Y-105921300D03*
%TD*%
%TO.C,K9*%
X73583200Y-105921300D03*
D14*
X79358200Y-107191300D03*
%TD*%
%TO.C,K8*%
X136203400Y-88242900D03*
D15*
X130428400Y-86972900D03*
%TD*%
D14*
%TO.C,K7*%
X117255000Y-88242900D03*
D15*
X111480000Y-86972900D03*
%TD*%
D14*
%TO.C,K6*%
X98306600Y-88242900D03*
D15*
X92531600Y-86972900D03*
%TD*%
D14*
%TO.C,K5*%
X79358200Y-88242900D03*
D15*
X73583200Y-86972900D03*
%TD*%
D14*
%TO.C,K4*%
X136203400Y-69294500D03*
D15*
X130428400Y-68024500D03*
%TD*%
D14*
%TO.C,K3*%
X117255000Y-69294500D03*
D15*
X111480000Y-68024500D03*
%TD*%
%TO.C,K2*%
X92531600Y-68024500D03*
D14*
X98306600Y-69294500D03*
%TD*%
D15*
%TO.C,K1*%
X73583200Y-68024500D03*
D14*
X79358200Y-69294500D03*
%TD*%
D16*
%TO.C,D16*%
X136848400Y-134396800D03*
D17*
X129048400Y-134396800D03*
%TD*%
D16*
%TO.C,D15*%
X117900000Y-134396800D03*
D17*
X110100000Y-134396800D03*
%TD*%
%TO.C,D14*%
X91151600Y-134396800D03*
D16*
X98951600Y-134396800D03*
%TD*%
%TO.C,D13*%
X80003200Y-134396800D03*
D17*
X72203200Y-134396800D03*
%TD*%
D16*
%TO.C,D12*%
X136848400Y-115448400D03*
D17*
X129048400Y-115448400D03*
%TD*%
D16*
%TO.C,D11*%
X117900000Y-115448400D03*
D17*
X110100000Y-115448400D03*
%TD*%
D16*
%TO.C,D10*%
X98951600Y-115448400D03*
D17*
X91151600Y-115448400D03*
%TD*%
%TO.C,D9*%
X72203200Y-115448400D03*
D16*
X80003200Y-115448400D03*
%TD*%
D17*
%TO.C,D8*%
X129048400Y-96500000D03*
D16*
X136848400Y-96500000D03*
%TD*%
%TO.C,D7*%
X117900000Y-96500000D03*
D17*
X110100000Y-96500000D03*
%TD*%
D16*
%TO.C,D6*%
X98951600Y-96500000D03*
D17*
X91151600Y-96500000D03*
%TD*%
D16*
%TO.C,D5*%
X80003200Y-96500000D03*
D17*
X72203200Y-96500000D03*
%TD*%
D16*
%TO.C,D4*%
X136848400Y-77551600D03*
D17*
X129048400Y-77551600D03*
%TD*%
D16*
%TO.C,D3*%
X117900000Y-77551600D03*
D17*
X110100000Y-77551600D03*
%TD*%
%TO.C,D2*%
X91151600Y-77551600D03*
D16*
X98951600Y-77551600D03*
%TD*%
%TO.C,D1*%
X80003200Y-77551600D03*
D17*
X72203200Y-77551600D03*
%TD*%
M02*
