G04*
G04 #@! TF.GenerationSoftware,Altium Limited,Altium Designer,22.4.2 (48)*
G04*
G04 Layer_Color=128*
%FSLAX25Y25*%
%MOIN*%
G70*
G04*
G04 #@! TF.SameCoordinates,D4448EEE-889B-48FB-A541-E9576EB43F8F*
G04*
G04*
G04 #@! TF.FilePolarity,Positive*
G04*
G01*
G75*
%ADD13R,0.05118X0.02756*%
%ADD14R,0.05118X0.03543*%
%ADD15R,0.03543X0.05118*%
%ADD35R,0.08583X0.07874*%
%ADD36R,0.01181X0.04528*%
%ADD37R,0.02362X0.04528*%
G04:AMPARAMS|DCode=38|XSize=57.87mil|YSize=21.65mil|CornerRadius=2.71mil|HoleSize=0mil|Usage=FLASHONLY|Rotation=0.000|XOffset=0mil|YOffset=0mil|HoleType=Round|Shape=RoundedRectangle|*
%AMROUNDEDRECTD38*
21,1,0.05787,0.01624,0,0,0.0*
21,1,0.05246,0.02165,0,0,0.0*
1,1,0.00541,0.02623,-0.00812*
1,1,0.00541,-0.02623,-0.00812*
1,1,0.00541,-0.02623,0.00812*
1,1,0.00541,0.02623,0.00812*
%
%ADD38ROUNDEDRECTD38*%
G04:AMPARAMS|DCode=39|XSize=57.87mil|YSize=21.65mil|CornerRadius=2.71mil|HoleSize=0mil|Usage=FLASHONLY|Rotation=90.000|XOffset=0mil|YOffset=0mil|HoleType=Round|Shape=RoundedRectangle|*
%AMROUNDEDRECTD39*
21,1,0.05787,0.01624,0,0,90.0*
21,1,0.05246,0.02165,0,0,90.0*
1,1,0.00541,0.00812,0.02623*
1,1,0.00541,0.00812,-0.02623*
1,1,0.00541,-0.00812,-0.02623*
1,1,0.00541,-0.00812,0.02623*
%
%ADD39ROUNDEDRECTD39*%
%ADD40R,0.02756X0.05118*%
%ADD41R,0.03583X0.04803*%
%ADD42R,0.06299X0.05512*%
%ADD43R,0.05512X0.04724*%
%ADD44R,0.03937X0.02559*%
D13*
X471654Y337402D02*
D03*
Y344882D02*
D03*
X481676Y337402D02*
D03*
Y344882D02*
D03*
X461417Y337402D02*
D03*
Y344882D02*
D03*
X491339Y337795D02*
D03*
Y345276D02*
D03*
D14*
X498032Y352576D02*
D03*
Y360056D02*
D03*
X272835Y367717D02*
D03*
Y375197D02*
D03*
X381496Y383054D02*
D03*
Y375574D02*
D03*
Y334252D02*
D03*
Y341732D02*
D03*
D15*
X435827Y361811D02*
D03*
X443307D02*
D03*
X291732Y360810D02*
D03*
X299213D02*
D03*
X291732Y369685D02*
D03*
X299213D02*
D03*
D35*
X490453Y394783D02*
D03*
X450216D02*
D03*
X490453Y379311D02*
D03*
X450216D02*
D03*
D36*
X471319Y376358D02*
D03*
X469350D02*
D03*
X473287D02*
D03*
X467382D02*
D03*
X475256D02*
D03*
X465413D02*
D03*
X477224D02*
D03*
X463445D02*
D03*
D37*
X482933D02*
D03*
X479783D02*
D03*
X460886D02*
D03*
X457736D02*
D03*
D38*
X311991Y338976D02*
D03*
Y342126D02*
D03*
Y345276D02*
D03*
Y348425D02*
D03*
Y351575D02*
D03*
Y354724D02*
D03*
Y357874D02*
D03*
Y361024D02*
D03*
Y364173D02*
D03*
Y367323D02*
D03*
Y370472D02*
D03*
Y373622D02*
D03*
Y376772D02*
D03*
Y379921D02*
D03*
Y383071D02*
D03*
Y386221D02*
D03*
X372385D02*
D03*
Y383071D02*
D03*
Y379921D02*
D03*
Y376772D02*
D03*
Y373622D02*
D03*
Y370472D02*
D03*
Y367323D02*
D03*
Y364173D02*
D03*
Y361024D02*
D03*
Y357874D02*
D03*
Y354724D02*
D03*
Y351575D02*
D03*
Y348425D02*
D03*
Y345276D02*
D03*
Y342126D02*
D03*
Y338976D02*
D03*
D39*
X365810Y332402D02*
D03*
X362660D02*
D03*
X359511D02*
D03*
X356361D02*
D03*
X353212D02*
D03*
X350062D02*
D03*
X346912D02*
D03*
X343763D02*
D03*
X340613D02*
D03*
X337464D02*
D03*
X334314D02*
D03*
X331164D02*
D03*
X328015D02*
D03*
X324865D02*
D03*
X321716D02*
D03*
X318566D02*
D03*
Y392795D02*
D03*
X321716D02*
D03*
X324865D02*
D03*
X328015D02*
D03*
X331164D02*
D03*
X334314D02*
D03*
X337464D02*
D03*
X340613D02*
D03*
X343763D02*
D03*
X346912D02*
D03*
X350062D02*
D03*
X353212D02*
D03*
X356361D02*
D03*
X359511D02*
D03*
X362660D02*
D03*
X365810D02*
D03*
D40*
X254724Y362340D02*
D03*
X247244D02*
D03*
X380315Y391732D02*
D03*
X387795D02*
D03*
D41*
X326437Y273622D02*
D03*
X339311D02*
D03*
X489311Y48622D02*
D03*
X476437D02*
D03*
X414311D02*
D03*
X401437D02*
D03*
X339311D02*
D03*
X326437D02*
D03*
X264311D02*
D03*
X251437D02*
D03*
X489311Y123622D02*
D03*
X476437D02*
D03*
X414311D02*
D03*
X401437D02*
D03*
X339311D02*
D03*
X326437D02*
D03*
X264311D02*
D03*
X251437D02*
D03*
X489311Y198622D02*
D03*
X476437D02*
D03*
X414311D02*
D03*
X401437D02*
D03*
X339311D02*
D03*
X326437D02*
D03*
X264311D02*
D03*
X251437D02*
D03*
X264311Y273622D02*
D03*
X251437D02*
D03*
X489311D02*
D03*
X476437D02*
D03*
X414311D02*
D03*
X401437D02*
D03*
D42*
X298031Y337402D02*
D03*
X269685D02*
D03*
X298031Y349213D02*
D03*
X269685D02*
D03*
D43*
X290551Y379528D02*
D03*
X299213D02*
D03*
X290551Y388189D02*
D03*
X299213D02*
D03*
D44*
X481496Y367717D02*
D03*
Y361614D02*
D03*
X451968Y367323D02*
D03*
Y361221D02*
D03*
M02*
