G04*
G04 #@! TF.GenerationSoftware,Altium Limited,Altium Designer,22.4.2 (48)*
G04*
G04 Layer_Color=65535*
%FSLAX25Y25*%
%MOIN*%
G70*
G04*
G04 #@! TF.SameCoordinates,D4448EEE-889B-48FB-A541-E9576EB43F8F*
G04*
G04*
G04 #@! TF.FilePolarity,Positive*
G04*
G01*
G75*
%ADD10C,0.00787*%
%ADD11C,0.00500*%
%ADD12C,0.01000*%
D10*
X255118Y382165D02*
G03*
X234646Y382165I-10236J0D01*
G01*
D02*
G03*
X255118Y382165I10236J0D01*
G01*
X279134Y338386D02*
Y350984D01*
X287008D01*
Y338386D02*
Y350984D01*
X279134Y338386D02*
X287008D01*
X326505Y346780D02*
Y360166D01*
X333591D01*
Y346780D02*
Y360166D01*
X326505Y346780D02*
X333591D01*
X343110Y353543D02*
X356496D01*
Y346457D02*
Y353543D01*
X343110Y346457D02*
X356496D01*
X343110D02*
Y353543D01*
D11*
X287874Y265276D02*
Y325276D01*
X227874D02*
X287874D01*
X227874Y265276D02*
Y325276D01*
Y265276D02*
X287874D01*
X302874D02*
X362874D01*
X302874D02*
Y325276D01*
X362874D01*
Y265276D02*
Y325276D01*
X437874Y265276D02*
Y325276D01*
X377874D02*
X437874D01*
X377874Y265276D02*
Y325276D01*
Y265276D02*
X437874D01*
X452874D02*
X512874D01*
X452874D02*
Y325276D01*
X512874D01*
Y265276D02*
Y325276D01*
X287874Y190276D02*
Y250276D01*
X227874D02*
X287874D01*
X227874Y190276D02*
Y250276D01*
Y190276D02*
X287874D01*
X302874D02*
X362874D01*
X302874D02*
Y250276D01*
X362874D01*
Y190276D02*
Y250276D01*
X437874Y190276D02*
Y250276D01*
X377874D02*
X437874D01*
X377874Y190276D02*
Y250276D01*
Y190276D02*
X437874D01*
X452874D02*
X512874D01*
X452874D02*
Y250276D01*
X512874D01*
Y190276D02*
Y250276D01*
X287874Y115276D02*
Y175276D01*
X227874D02*
X287874D01*
X227874Y115276D02*
Y175276D01*
Y115276D02*
X287874D01*
X302874D02*
X362874D01*
X302874D02*
Y175276D01*
X362874D01*
Y115276D02*
Y175276D01*
X437874Y115276D02*
Y175276D01*
X377874D02*
X437874D01*
X377874Y115276D02*
Y175276D01*
Y115276D02*
X437874D01*
X452874D02*
X512874D01*
X452874D02*
Y175276D01*
X512874D01*
Y115276D02*
Y175276D01*
X287874Y40276D02*
Y100276D01*
X227874D02*
X287874D01*
X227874Y40276D02*
Y100276D01*
Y40276D02*
X287874D01*
X302874D02*
X362874D01*
X302874D02*
Y100276D01*
X362874D01*
Y40276D02*
Y100276D01*
X437874Y40276D02*
Y100276D01*
X377874D02*
X437874D01*
X377874Y40276D02*
Y100276D01*
Y40276D02*
X437874D01*
X452874D02*
X512874D01*
X452874D02*
Y100276D01*
X512874D01*
Y40276D02*
Y100276D01*
D12*
X265991Y396474D02*
X259993D01*
Y393475D01*
X260993Y392475D01*
X264991D01*
X265991Y393475D01*
Y396474D01*
X259993Y390476D02*
Y388476D01*
Y389476D01*
X265991D01*
X264991Y390476D01*
X265991Y385477D02*
Y381479D01*
X264991D01*
X260993Y385477D01*
X259993D01*
X279860Y330859D02*
Y336857D01*
X282859D01*
X283858Y335858D01*
Y333858D01*
X282859Y332859D01*
X279860D01*
X281859D02*
X283858Y330859D01*
X285858D02*
X287857D01*
X286857D01*
Y336857D01*
X285858Y335858D01*
X453600Y109498D02*
Y103500D01*
Y105499D01*
X457599Y109498D01*
X454600Y106499D01*
X457599Y103500D01*
X459598D02*
X461597D01*
X460598D01*
Y109498D01*
X459598Y108498D01*
X468595Y109498D02*
X466596Y108498D01*
X464596Y106499D01*
Y104500D01*
X465596Y103500D01*
X467595D01*
X468595Y104500D01*
Y105499D01*
X467595Y106499D01*
X464596D01*
X378600Y109498D02*
Y103500D01*
Y105499D01*
X382599Y109498D01*
X379600Y106499D01*
X382599Y103500D01*
X384598D02*
X386597D01*
X385598D01*
Y109498D01*
X384598Y108498D01*
X393595Y109498D02*
X389596D01*
Y106499D01*
X391596Y107499D01*
X392596D01*
X393595Y106499D01*
Y104500D01*
X392596Y103500D01*
X390596D01*
X389596Y104500D01*
X303600Y109498D02*
Y103500D01*
Y105499D01*
X307599Y109498D01*
X304600Y106499D01*
X307599Y103500D01*
X309598D02*
X311597D01*
X310598D01*
Y109498D01*
X309598Y108498D01*
X317596Y103500D02*
Y109498D01*
X314596Y106499D01*
X318595D01*
X228600Y109498D02*
Y103500D01*
Y105499D01*
X232599Y109498D01*
X229600Y106499D01*
X232599Y103500D01*
X234598D02*
X236597D01*
X235598D01*
Y109498D01*
X234598Y108498D01*
X239596D02*
X240596Y109498D01*
X242596D01*
X243595Y108498D01*
Y107499D01*
X242596Y106499D01*
X241596D01*
X242596D01*
X243595Y105499D01*
Y104500D01*
X242596Y103500D01*
X240596D01*
X239596Y104500D01*
X453600Y184498D02*
Y178500D01*
Y180499D01*
X457599Y184498D01*
X454600Y181499D01*
X457599Y178500D01*
X459598D02*
X461597D01*
X460598D01*
Y184498D01*
X459598Y183498D01*
X468595Y178500D02*
X464596D01*
X468595Y182499D01*
Y183498D01*
X467595Y184498D01*
X465596D01*
X464596Y183498D01*
X378600Y184498D02*
Y178500D01*
Y180499D01*
X382599Y184498D01*
X379600Y181499D01*
X382599Y178500D01*
X384598D02*
X386597D01*
X385598D01*
Y184498D01*
X384598Y183498D01*
X389596Y178500D02*
X391596D01*
X390596D01*
Y184498D01*
X389596Y183498D01*
X303600Y184498D02*
Y178500D01*
Y180499D01*
X307599Y184498D01*
X304600Y181499D01*
X307599Y178500D01*
X309598D02*
X311597D01*
X310598D01*
Y184498D01*
X309598Y183498D01*
X314596D02*
X315596Y184498D01*
X317596D01*
X318595Y183498D01*
Y179500D01*
X317596Y178500D01*
X315596D01*
X314596Y179500D01*
Y183498D01*
X228600Y184498D02*
Y178500D01*
Y180499D01*
X232599Y184498D01*
X229600Y181499D01*
X232599Y178500D01*
X234598Y179500D02*
X235598Y178500D01*
X237597D01*
X238597Y179500D01*
Y183498D01*
X237597Y184498D01*
X235598D01*
X234598Y183498D01*
Y182499D01*
X235598Y181499D01*
X238597D01*
X453600Y259498D02*
Y253500D01*
Y255499D01*
X457599Y259498D01*
X454600Y256499D01*
X457599Y253500D01*
X459598Y258498D02*
X460598Y259498D01*
X462597D01*
X463597Y258498D01*
Y257499D01*
X462597Y256499D01*
X463597Y255499D01*
Y254500D01*
X462597Y253500D01*
X460598D01*
X459598Y254500D01*
Y255499D01*
X460598Y256499D01*
X459598Y257499D01*
Y258498D01*
X460598Y256499D02*
X462597D01*
X378600Y259498D02*
Y253500D01*
Y255499D01*
X382599Y259498D01*
X379600Y256499D01*
X382599Y253500D01*
X384598Y259498D02*
X388597D01*
Y258498D01*
X384598Y254500D01*
Y253500D01*
X303600Y259498D02*
Y253500D01*
Y255499D01*
X307599Y259498D01*
X304600Y256499D01*
X307599Y253500D01*
X313597Y259498D02*
X311597Y258498D01*
X309598Y256499D01*
Y254500D01*
X310598Y253500D01*
X312597D01*
X313597Y254500D01*
Y255499D01*
X312597Y256499D01*
X309598D01*
X228600Y259498D02*
Y253500D01*
Y255499D01*
X232599Y259498D01*
X229600Y256499D01*
X232599Y253500D01*
X238597Y259498D02*
X234598D01*
Y256499D01*
X236597Y257499D01*
X237597D01*
X238597Y256499D01*
Y254500D01*
X237597Y253500D01*
X235598D01*
X234598Y254500D01*
X456419Y319928D02*
Y313930D01*
Y315929D01*
X460418Y319928D01*
X457419Y316929D01*
X460418Y313930D01*
X465416D02*
Y319928D01*
X462417Y316929D01*
X466416D01*
X378600Y334498D02*
Y328500D01*
Y330499D01*
X382599Y334498D01*
X379600Y331499D01*
X382599Y328500D01*
X384598Y333498D02*
X385598Y334498D01*
X387597D01*
X388597Y333498D01*
Y332499D01*
X387597Y331499D01*
X386597D01*
X387597D01*
X388597Y330499D01*
Y329500D01*
X387597Y328500D01*
X385598D01*
X384598Y329500D01*
X303600Y334498D02*
Y328500D01*
Y330499D01*
X307599Y334498D01*
X304600Y331499D01*
X307599Y328500D01*
X313597D02*
X309598D01*
X313597Y332499D01*
Y333498D01*
X312597Y334498D01*
X310598D01*
X309598Y333498D01*
X228600Y334498D02*
Y328500D01*
Y330499D01*
X232599Y334498D01*
X229600Y331499D01*
X232599Y328500D01*
X234598D02*
X236597D01*
X235598D01*
Y334498D01*
X234598Y333498D01*
X331099Y368598D02*
X330099Y369598D01*
X328100D01*
X327100Y368598D01*
Y364600D01*
X328100Y363600D01*
X330099D01*
X331099Y364600D01*
X337097Y369598D02*
X335097Y368598D01*
X333098Y366599D01*
Y364600D01*
X334098Y363600D01*
X336097D01*
X337097Y364600D01*
Y365599D01*
X336097Y366599D01*
X333098D01*
X350606Y356268D02*
X351606Y355269D01*
X353605D01*
X354605Y356268D01*
Y360267D01*
X353605Y361267D01*
X351606D01*
X350606Y360267D01*
X348607Y356268D02*
X347607Y355269D01*
X345608D01*
X344608Y356268D01*
Y357268D01*
X345608Y358268D01*
X346607D01*
X345608D01*
X344608Y359267D01*
Y360267D01*
X345608Y361267D01*
X347607D01*
X348607Y360267D01*
M02*
