G04*
G04 #@! TF.GenerationSoftware,Altium Limited,Altium Designer,22.4.2 (48)*
G04*
G04 Layer_Color=128*
%FSLAX25Y25*%
%MOIN*%
G70*
G04*
G04 #@! TF.SameCoordinates,D4448EEE-889B-48FB-A541-E9576EB43F8F*
G04*
G04*
G04 #@! TF.FilePolarity,Positive*
G04*
G01*
G75*
%ADD11C,0.00500*%
D11*
X239921Y305276D02*
X245827D01*
X242874Y302323D02*
Y308228D01*
X264803Y315276D02*
X270709D01*
X267756Y312323D02*
Y318228D01*
X274213Y295276D02*
X280906D01*
X277559Y291929D02*
Y298622D01*
X234842Y295276D02*
X241535D01*
X238189Y291929D02*
Y298622D01*
X250024Y295276D02*
X265724D01*
X257874Y287426D02*
Y303126D01*
X325024Y295276D02*
X340724D01*
X332874Y287426D02*
Y303126D01*
X309842Y295276D02*
X316535D01*
X313189Y291929D02*
Y298622D01*
X349213Y295276D02*
X355906D01*
X352559Y291929D02*
Y298622D01*
X339803Y315276D02*
X345709D01*
X342756Y312323D02*
Y318228D01*
X314921Y305276D02*
X320827D01*
X317874Y302323D02*
Y308228D01*
X389921Y305276D02*
X395827D01*
X392874Y302323D02*
Y308228D01*
X414803Y315276D02*
X420709D01*
X417756Y312323D02*
Y318228D01*
X424213Y295276D02*
X430905D01*
X427559Y291929D02*
Y298622D01*
X384842Y295276D02*
X391535D01*
X388189Y291929D02*
Y298622D01*
X400024Y295276D02*
X415724D01*
X407874Y287426D02*
Y303126D01*
X475024Y295276D02*
X490724D01*
X482874Y287426D02*
Y303126D01*
X459842Y295276D02*
X466535D01*
X463189Y291929D02*
Y298622D01*
X499213Y295276D02*
X505905D01*
X502559Y291929D02*
Y298622D01*
X489803Y315276D02*
X495709D01*
X492756Y312323D02*
Y318228D01*
X464921Y305276D02*
X470827D01*
X467874Y302323D02*
Y308228D01*
X239921Y230276D02*
X245827D01*
X242874Y227323D02*
Y233228D01*
X264803Y240276D02*
X270709D01*
X267756Y237323D02*
Y243228D01*
X274213Y220276D02*
X280906D01*
X277559Y216929D02*
Y223622D01*
X234842Y220276D02*
X241535D01*
X238189Y216929D02*
Y223622D01*
X250024Y220276D02*
X265724D01*
X257874Y212426D02*
Y228126D01*
X325024Y220276D02*
X340724D01*
X332874Y212426D02*
Y228126D01*
X309842Y220276D02*
X316535D01*
X313189Y216929D02*
Y223622D01*
X349213Y220276D02*
X355906D01*
X352559Y216929D02*
Y223622D01*
X339803Y240276D02*
X345709D01*
X342756Y237323D02*
Y243228D01*
X314921Y230276D02*
X320827D01*
X317874Y227323D02*
Y233228D01*
X389921Y230276D02*
X395827D01*
X392874Y227323D02*
Y233228D01*
X414803Y240276D02*
X420709D01*
X417756Y237323D02*
Y243228D01*
X424213Y220276D02*
X430905D01*
X427559Y216929D02*
Y223622D01*
X384842Y220276D02*
X391535D01*
X388189Y216929D02*
Y223622D01*
X400024Y220276D02*
X415724D01*
X407874Y212426D02*
Y228126D01*
X475024Y220276D02*
X490724D01*
X482874Y212426D02*
Y228126D01*
X459842Y220276D02*
X466535D01*
X463189Y216929D02*
Y223622D01*
X499213Y220276D02*
X505905D01*
X502559Y216929D02*
Y223622D01*
X489803Y240276D02*
X495709D01*
X492756Y237323D02*
Y243228D01*
X464921Y230276D02*
X470827D01*
X467874Y227323D02*
Y233228D01*
X239921Y155276D02*
X245827D01*
X242874Y152323D02*
Y158228D01*
X264803Y165276D02*
X270709D01*
X267756Y162323D02*
Y168228D01*
X274213Y145276D02*
X280906D01*
X277559Y141929D02*
Y148622D01*
X234842Y145276D02*
X241535D01*
X238189Y141929D02*
Y148622D01*
X250024Y145276D02*
X265724D01*
X257874Y137426D02*
Y153126D01*
X325024Y145276D02*
X340724D01*
X332874Y137426D02*
Y153126D01*
X309842Y145276D02*
X316535D01*
X313189Y141929D02*
Y148622D01*
X349213Y145276D02*
X355906D01*
X352559Y141929D02*
Y148622D01*
X339803Y165276D02*
X345709D01*
X342756Y162323D02*
Y168228D01*
X314921Y155276D02*
X320827D01*
X317874Y152323D02*
Y158228D01*
X389921Y155276D02*
X395827D01*
X392874Y152323D02*
Y158228D01*
X414803Y165276D02*
X420709D01*
X417756Y162323D02*
Y168228D01*
X424213Y145276D02*
X430905D01*
X427559Y141929D02*
Y148622D01*
X384842Y145276D02*
X391535D01*
X388189Y141929D02*
Y148622D01*
X400024Y145276D02*
X415724D01*
X407874Y137426D02*
Y153126D01*
X475024Y145276D02*
X490724D01*
X482874Y137426D02*
Y153126D01*
X459842Y145276D02*
X466535D01*
X463189Y141929D02*
Y148622D01*
X499213Y145276D02*
X505905D01*
X502559Y141929D02*
Y148622D01*
X489803Y165276D02*
X495709D01*
X492756Y162323D02*
Y168228D01*
X464921Y155276D02*
X470827D01*
X467874Y152323D02*
Y158228D01*
X239921Y80276D02*
X245827D01*
X242874Y77323D02*
Y83228D01*
X264803Y90276D02*
X270709D01*
X267756Y87323D02*
Y93228D01*
X274213Y70276D02*
X280906D01*
X277559Y66929D02*
Y73622D01*
X234842Y70276D02*
X241535D01*
X238189Y66929D02*
Y73622D01*
X250024Y70276D02*
X265724D01*
X257874Y62426D02*
Y78126D01*
X325024Y70276D02*
X340724D01*
X332874Y62426D02*
Y78126D01*
X309842Y70276D02*
X316535D01*
X313189Y66929D02*
Y73622D01*
X349213Y70276D02*
X355906D01*
X352559Y66929D02*
Y73622D01*
X339803Y90276D02*
X345709D01*
X342756Y87323D02*
Y93228D01*
X314921Y80276D02*
X320827D01*
X317874Y77323D02*
Y83228D01*
X389921Y80276D02*
X395827D01*
X392874Y77323D02*
Y83228D01*
X414803Y90276D02*
X420709D01*
X417756Y87323D02*
Y93228D01*
X424213Y70276D02*
X430905D01*
X427559Y66929D02*
Y73622D01*
X384842Y70276D02*
X391535D01*
X388189Y66929D02*
Y73622D01*
X400024Y70276D02*
X415724D01*
X407874Y62426D02*
Y78126D01*
X475024Y70276D02*
X490724D01*
X482874Y62426D02*
Y78126D01*
X459842Y70276D02*
X466535D01*
X463189Y66929D02*
Y73622D01*
X499213Y70276D02*
X505905D01*
X502559Y66929D02*
Y73622D01*
X489803Y90276D02*
X495709D01*
X492756Y87323D02*
Y93228D01*
X464921Y80276D02*
X470827D01*
X467874Y77323D02*
Y83228D01*
X480433Y381279D02*
X482992D01*
X481713Y380000D02*
Y382559D01*
X457677Y381279D02*
X460236D01*
X458957Y380000D02*
Y382559D01*
X243091Y377165D02*
X246673D01*
X244882Y375374D02*
Y378957D01*
X243091Y387165D02*
X246673D01*
X244882Y385374D02*
Y388957D01*
X379998Y361910D02*
X382798D01*
X381398Y360509D02*
Y363310D01*
X362281Y378937D02*
X365081D01*
X363681Y377537D02*
Y380337D01*
X380982Y348425D02*
X383782D01*
X382382Y347025D02*
Y349825D01*
X360903Y354921D02*
X363703D01*
X362303Y353521D02*
Y356321D01*
X236297Y323917D02*
X239097D01*
X237697Y322517D02*
Y325317D01*
X291021Y323228D02*
X293821D01*
X292421Y321828D02*
Y324628D01*
X384722Y316634D02*
X387522D01*
X386122Y315234D02*
Y318034D01*
X399387Y393307D02*
X402187D01*
X400787Y391907D02*
Y394707D01*
X391907Y368898D02*
X394707D01*
X393307Y367498D02*
Y370298D01*
X391907Y358661D02*
X394707D01*
X393307Y357261D02*
Y360061D01*
X407893Y342126D02*
X410693D01*
X409293Y340726D02*
Y343526D01*
X271041Y360236D02*
X273841D01*
X272441Y358836D02*
Y361636D01*
X376159Y61811D02*
X378959D01*
X377559Y60411D02*
Y63211D01*
X392694Y348819D02*
X395495D01*
X394094Y347419D02*
Y350219D01*
X367122Y135809D02*
X369922D01*
X368522Y134409D02*
Y137209D01*
X362380Y208268D02*
X365179D01*
X363779Y206868D02*
Y209668D01*
X356080Y287008D02*
X358880D01*
X357480Y285608D02*
Y288408D01*
X358836Y344882D02*
X361636D01*
X360236Y343482D02*
Y346282D01*
X325372Y339764D02*
X328172D01*
X326772Y338364D02*
Y341164D01*
X241907Y314961D02*
X244707D01*
X243307Y313561D02*
Y316361D01*
X450175Y346850D02*
X452975D01*
X451575Y345450D02*
Y348250D01*
X487970Y354724D02*
X490770D01*
X489370Y353324D02*
Y356124D01*
X289151Y339370D02*
X291951D01*
X290551Y337970D02*
Y340770D01*
X319072Y348819D02*
X321872D01*
X320472Y347419D02*
Y350219D01*
X318285Y356299D02*
X321085D01*
X319685Y354899D02*
Y357699D01*
X352537Y341339D02*
X355337D01*
X353937Y339939D02*
Y342739D01*
X345450Y340945D02*
X348250D01*
X346850Y339545D02*
Y342345D01*
X461198Y367323D02*
X463998D01*
X462598Y365923D02*
Y368723D01*
X470254Y351575D02*
X473054D01*
X471654Y350175D02*
Y352975D01*
M02*
