G04*
G04 #@! TF.GenerationSoftware,Altium Limited,Altium Designer,22.4.2 (48)*
G04*
G04 Layer_Physical_Order=2*
G04 Layer_Color=16711680*
%FSLAX25Y25*%
%MOIN*%
G70*
G04*
G04 #@! TF.SameCoordinates,D4448EEE-889B-48FB-A541-E9576EB43F8F*
G04*
G04*
G04 #@! TF.FilePolarity,Positive*
G04*
G01*
G75*
%ADD10C,0.00787*%
%ADD12C,0.01000*%
%ADD13R,0.05118X0.02756*%
%ADD14R,0.05118X0.03543*%
%ADD15R,0.03543X0.05118*%
%ADD26C,0.01968*%
%ADD27C,0.02461*%
%ADD28C,0.08858*%
%ADD29C,0.06693*%
%ADD30C,0.15700*%
%ADD31C,0.02559*%
%ADD32C,0.05575*%
%ADD33R,0.05575X0.05575*%
%ADD34C,0.05000*%
%ADD35R,0.08583X0.07874*%
%ADD36R,0.01181X0.04528*%
%ADD37R,0.02362X0.04528*%
G04:AMPARAMS|DCode=38|XSize=57.87mil|YSize=21.65mil|CornerRadius=2.71mil|HoleSize=0mil|Usage=FLASHONLY|Rotation=0.000|XOffset=0mil|YOffset=0mil|HoleType=Round|Shape=RoundedRectangle|*
%AMROUNDEDRECTD38*
21,1,0.05787,0.01624,0,0,0.0*
21,1,0.05246,0.02165,0,0,0.0*
1,1,0.00541,0.02623,-0.00812*
1,1,0.00541,-0.02623,-0.00812*
1,1,0.00541,-0.02623,0.00812*
1,1,0.00541,0.02623,0.00812*
%
%ADD38ROUNDEDRECTD38*%
G04:AMPARAMS|DCode=39|XSize=57.87mil|YSize=21.65mil|CornerRadius=2.71mil|HoleSize=0mil|Usage=FLASHONLY|Rotation=90.000|XOffset=0mil|YOffset=0mil|HoleType=Round|Shape=RoundedRectangle|*
%AMROUNDEDRECTD39*
21,1,0.05787,0.01624,0,0,90.0*
21,1,0.05246,0.02165,0,0,90.0*
1,1,0.00541,0.00812,0.02623*
1,1,0.00541,0.00812,-0.02623*
1,1,0.00541,-0.00812,-0.02623*
1,1,0.00541,-0.00812,0.02623*
%
%ADD39ROUNDEDRECTD39*%
%ADD40R,0.02756X0.05118*%
%ADD41R,0.03583X0.04803*%
%ADD42R,0.06299X0.05512*%
%ADD43R,0.05512X0.04724*%
%ADD44R,0.03937X0.02559*%
%ADD45C,0.01575*%
%ADD46C,0.01230*%
%ADD47C,0.01181*%
G36*
X444925Y397808D02*
Y389846D01*
X455508D01*
Y397422D01*
X455862Y397775D01*
X485161Y397689D01*
Y389846D01*
X495744D01*
Y397304D01*
X496098Y397656D01*
X510704Y397613D01*
Y329084D01*
X512279Y327509D01*
X511885Y327116D01*
X397219D01*
X397029Y327559D01*
X397307Y327898D01*
X474196D01*
X474970Y328052D01*
X475626Y328491D01*
X481532Y334396D01*
X481951Y335024D01*
X485235D01*
Y339779D01*
X478117D01*
Y337203D01*
X478078Y337008D01*
Y336665D01*
X473358Y331944D01*
X396457D01*
X395683Y331790D01*
X395026Y331352D01*
X390790Y327116D01*
X387099D01*
X386908Y327578D01*
X392740Y333410D01*
X459449D01*
X460223Y333564D01*
X460879Y334002D01*
X461318Y334659D01*
X461390Y335024D01*
X464976D01*
Y339779D01*
X457858D01*
Y337456D01*
X391902D01*
X391741Y337424D01*
X391495Y337885D01*
X393462Y339852D01*
X406617D01*
X407144Y339325D01*
X407942Y338864D01*
X408832Y338626D01*
X409754D01*
X410644Y338864D01*
X411442Y339325D01*
X412093Y339977D01*
X412554Y340775D01*
X412793Y341665D01*
Y342587D01*
X412554Y343477D01*
X412093Y344275D01*
X411567Y344802D01*
Y369841D01*
X411394Y370711D01*
X410901Y371449D01*
X397688Y384662D01*
X396950Y385155D01*
X396080Y385328D01*
X385055D01*
Y385826D01*
X377937D01*
Y382576D01*
X376934Y381573D01*
X376669Y381544D01*
X376327Y381656D01*
X376231Y381895D01*
X376303Y382259D01*
Y383883D01*
X376205Y384379D01*
X376026Y384646D01*
X376205Y384913D01*
X376303Y385408D01*
Y387033D01*
X376205Y387528D01*
X375924Y387949D01*
X375504Y388229D01*
X375008Y388328D01*
X370838D01*
X370647Y388790D01*
X371942Y390086D01*
X377937D01*
Y388173D01*
X382693D01*
Y395291D01*
X377937D01*
Y393379D01*
X371260D01*
X370630Y393254D01*
X370095Y392897D01*
X370095Y392897D01*
X368380Y391181D01*
X367918Y391372D01*
Y395418D01*
X367819Y395914D01*
X367538Y396334D01*
X367118Y396615D01*
X366622Y396714D01*
X364998D01*
X364502Y396615D01*
X364235Y396437D01*
X363968Y396615D01*
X363472Y396714D01*
X361848D01*
X361353Y396615D01*
X361086Y396437D01*
X360819Y396615D01*
X360323Y396714D01*
X358699D01*
X358203Y396615D01*
X357936Y396437D01*
X357669Y396615D01*
X357173Y396714D01*
X355549D01*
X355053Y396615D01*
X354786Y396437D01*
X354519Y396615D01*
X354024Y396714D01*
X352400D01*
X351904Y396615D01*
X351637Y396437D01*
X351370Y396615D01*
X350874Y396714D01*
X349250D01*
X348754Y396615D01*
X348487Y396437D01*
X348220Y396615D01*
X347724Y396714D01*
X346100D01*
X345605Y396615D01*
X345338Y396437D01*
X345071Y396615D01*
X344575Y396714D01*
X342951D01*
X342455Y396615D01*
X342188Y396437D01*
X341921Y396615D01*
X341425Y396714D01*
X339801D01*
X339305Y396615D01*
X339038Y396437D01*
X338771Y396615D01*
X338276Y396714D01*
X336652D01*
X336156Y396615D01*
X335889Y396437D01*
X335622Y396615D01*
X335126Y396714D01*
X333502D01*
X333006Y396615D01*
X332739Y396437D01*
X332472Y396615D01*
X331976Y396714D01*
X330352D01*
X329857Y396615D01*
X329590Y396437D01*
X329323Y396615D01*
X328827Y396714D01*
X327203D01*
X326707Y396615D01*
X326440Y396437D01*
X326173Y396615D01*
X325677Y396714D01*
X324053D01*
X323557Y396615D01*
X323290Y396437D01*
X323023Y396615D01*
X322528Y396714D01*
X320904D01*
X320408Y396615D01*
X320141Y396437D01*
X319874Y396615D01*
X319378Y396714D01*
X317754D01*
X317258Y396615D01*
X316838Y396334D01*
X316557Y395914D01*
X316458Y395418D01*
Y390172D01*
X316557Y389676D01*
X316838Y389256D01*
X317258Y388975D01*
X317754Y388877D01*
X319378D01*
X319874Y388975D01*
X320141Y389154D01*
X320408Y388975D01*
X320904Y388877D01*
X322528D01*
X323023Y388975D01*
X323290Y389154D01*
X323557Y388975D01*
X324053Y388877D01*
X325677D01*
X326173Y388975D01*
X326440Y389154D01*
X326707Y388975D01*
X327203Y388877D01*
X328827D01*
X329323Y388975D01*
X329590Y389154D01*
X329857Y388975D01*
X330352Y388877D01*
X331976D01*
X332472Y388975D01*
X332739Y389154D01*
X333006Y388975D01*
X333502Y388877D01*
X335126D01*
X335622Y388975D01*
X335889Y389154D01*
X336156Y388975D01*
X336652Y388877D01*
X338276D01*
X338771Y388975D01*
X339038Y389154D01*
X339305Y388975D01*
X339801Y388877D01*
X341425D01*
X341921Y388975D01*
X342188Y389154D01*
X342455Y388975D01*
X342951Y388877D01*
X344575D01*
X345071Y388975D01*
X345338Y389154D01*
X345605Y388975D01*
X346100Y388877D01*
X347724D01*
X348195Y388461D01*
X348276Y388057D01*
X348714Y387401D01*
X349371Y386963D01*
X349763Y386884D01*
X350804Y385843D01*
X351338Y385486D01*
X351969Y385361D01*
X366535D01*
X366535Y385361D01*
X367166Y385486D01*
X367700Y385843D01*
X368004Y386148D01*
X368466Y385957D01*
Y385408D01*
X368565Y384913D01*
X368743Y384646D01*
X368565Y384379D01*
X368466Y383883D01*
Y382259D01*
X368565Y381763D01*
X368743Y381496D01*
X368565Y381229D01*
X368466Y380733D01*
Y379109D01*
X368565Y378613D01*
X368743Y378346D01*
X368565Y378079D01*
X368466Y377584D01*
Y375960D01*
X368565Y375464D01*
X368743Y375197D01*
X368565Y374930D01*
X368466Y374434D01*
Y374122D01*
X372385D01*
Y373122D01*
X368466D01*
Y372810D01*
X368469Y372795D01*
X368059Y372295D01*
X365504D01*
Y375948D01*
X365830Y376136D01*
X366482Y376788D01*
X366943Y377586D01*
X367181Y378476D01*
Y379398D01*
X366943Y380288D01*
X366482Y381086D01*
X365830Y381738D01*
X365032Y382199D01*
X364142Y382437D01*
X363220D01*
X362330Y382199D01*
X361532Y381738D01*
X360880Y381086D01*
X360420Y380288D01*
X360181Y379398D01*
Y378476D01*
X360420Y377586D01*
X360880Y376788D01*
X361532Y376136D01*
X361859Y375948D01*
Y371395D01*
X361859Y371395D01*
X361997Y370697D01*
X362392Y370106D01*
X363315Y369184D01*
X363315Y369184D01*
X363906Y368789D01*
X364604Y368650D01*
X368059D01*
X368469Y368150D01*
X368466Y368135D01*
Y366511D01*
X368208Y366196D01*
X351181D01*
X350407Y366042D01*
X349750Y365604D01*
X327373Y343226D01*
X327232Y343264D01*
X326311D01*
X325421Y343025D01*
X324623Y342565D01*
X323971Y341913D01*
X323510Y341115D01*
X323272Y340225D01*
Y339303D01*
X323510Y338413D01*
X323971Y337615D01*
X324623Y336963D01*
X324870Y336820D01*
X324736Y336320D01*
X324053D01*
X323557Y336222D01*
X323290Y336043D01*
X323023Y336222D01*
X322528Y336320D01*
X320904D01*
X320408Y336222D01*
X320141Y336043D01*
X319874Y336222D01*
X319378Y336320D01*
X317754D01*
X317258Y336222D01*
X316838Y335941D01*
X316557Y335520D01*
X316458Y335025D01*
Y329779D01*
X316557Y329283D01*
X316838Y328862D01*
X317258Y328582D01*
X317754Y328483D01*
X319378D01*
X319874Y328582D01*
X320141Y328760D01*
X320408Y328582D01*
X320904Y328483D01*
X322528D01*
X323023Y328582D01*
X323290Y328760D01*
X323557Y328582D01*
X324053Y328483D01*
X325677D01*
X326173Y328582D01*
X326440Y328760D01*
X326707Y328582D01*
X327203Y328483D01*
X328827D01*
X329323Y328582D01*
X329590Y328760D01*
X329857Y328582D01*
X330352Y328483D01*
X331976D01*
X332472Y328582D01*
X332739Y328760D01*
X333006Y328582D01*
X333502Y328483D01*
X335126D01*
X335622Y328582D01*
X335889Y328760D01*
X336156Y328582D01*
X336652Y328483D01*
X338276D01*
X338771Y328582D01*
X339038Y328760D01*
X339305Y328582D01*
X339801Y328483D01*
X341425D01*
X341505Y328499D01*
X341662Y327709D01*
X341764Y327557D01*
X341528Y327116D01*
X239157D01*
X239048Y327179D01*
X238158Y327417D01*
X237236D01*
X236346Y327179D01*
X236237Y327116D01*
X227240D01*
Y396013D01*
Y398096D01*
X227594Y398449D01*
X444925Y397808D01*
D02*
G37*
G36*
X407019Y368899D02*
Y344802D01*
X406617Y344400D01*
X392520D01*
X391650Y344227D01*
X390912Y343734D01*
X384421Y337243D01*
X384266D01*
X383396Y337070D01*
X383392Y337067D01*
X382213D01*
X381994Y337024D01*
X381318D01*
X381306Y337085D01*
X380868Y337742D01*
X380111Y338499D01*
X380302Y338961D01*
X380996D01*
Y341732D01*
X381496D01*
Y342232D01*
X385055D01*
Y344504D01*
X383202D01*
X383137Y345004D01*
X383733Y345164D01*
X384531Y345624D01*
X385183Y346276D01*
X385643Y347074D01*
X385882Y347964D01*
Y348886D01*
X385643Y349776D01*
X385183Y350574D01*
X384933Y350823D01*
X385141Y351323D01*
X388729D01*
X390632Y349420D01*
X390595Y349280D01*
Y348358D01*
X390833Y347468D01*
X391294Y346670D01*
X391945Y346018D01*
X392743Y345557D01*
X393634Y345319D01*
X394555D01*
X395445Y345557D01*
X396244Y346018D01*
X396895Y346670D01*
X397356Y347468D01*
X397594Y348358D01*
Y349280D01*
X397356Y350170D01*
X396895Y350968D01*
X396244Y351620D01*
X395445Y352080D01*
X394555Y352319D01*
X393634D01*
X393493Y352281D01*
X390998Y354777D01*
X390341Y355216D01*
X389567Y355370D01*
X382882D01*
X380149Y358103D01*
X380408Y358551D01*
X380937Y358410D01*
X381858D01*
X382749Y358648D01*
X383547Y359109D01*
X384198Y359760D01*
X384659Y360559D01*
X384898Y361449D01*
Y362370D01*
X384659Y363260D01*
X384198Y364058D01*
X383861Y364396D01*
X384011Y364953D01*
X384124Y364984D01*
X389845Y359263D01*
X389807Y359122D01*
Y358201D01*
X390046Y357311D01*
X390506Y356512D01*
X391158Y355861D01*
X391956Y355400D01*
X392846Y355161D01*
X393768D01*
X394658Y355400D01*
X395456Y355861D01*
X396108Y356512D01*
X396569Y357311D01*
X396807Y358201D01*
Y359122D01*
X396569Y360012D01*
X396108Y360810D01*
X395456Y361462D01*
X394658Y361923D01*
X393768Y362161D01*
X392846D01*
X392706Y362124D01*
X386159Y368671D01*
X385503Y369109D01*
X384728Y369263D01*
X376619D01*
X376301Y369650D01*
X376303Y369660D01*
Y371284D01*
X376726Y371721D01*
X377161Y371808D01*
X377817Y372246D01*
X378373Y372802D01*
X380996D01*
Y375574D01*
Y378345D01*
X379520D01*
X379203Y378732D01*
X379211Y378770D01*
Y379263D01*
X380230Y380282D01*
X385055D01*
Y380780D01*
X395138D01*
X407019Y368899D01*
D02*
G37*
G36*
X368466Y361836D02*
Y360212D01*
X368565Y359716D01*
X368743Y359449D01*
X368565Y359182D01*
X368466Y358686D01*
Y357062D01*
X368565Y356566D01*
X368743Y356299D01*
X368565Y356032D01*
X368466Y355536D01*
Y353912D01*
X368208Y353598D01*
X367308D01*
X365803Y355103D01*
Y355382D01*
X365565Y356272D01*
X365104Y357070D01*
X364452Y357722D01*
X363654Y358183D01*
X362764Y358421D01*
X361842D01*
X360952Y358183D01*
X360154Y357722D01*
X359502Y357070D01*
X359042Y356272D01*
X358803Y355382D01*
Y354461D01*
X359042Y353570D01*
X359502Y352772D01*
X360154Y352121D01*
X360952Y351660D01*
X361842Y351421D01*
X362764D01*
X363551Y351632D01*
X364273Y350910D01*
X364082Y350448D01*
X363779D01*
X363005Y350294D01*
X362349Y349856D01*
X360838Y348344D01*
X360697Y348382D01*
X359775D01*
X358885Y348143D01*
X358087Y347683D01*
X357435Y347031D01*
X356975Y346233D01*
X356736Y345343D01*
Y344421D01*
X356819Y344114D01*
X356370Y343855D01*
X356086Y344139D01*
X355288Y344600D01*
X354437Y344828D01*
Y341839D01*
X357427D01*
X357355Y342107D01*
X357803Y342365D01*
X358087Y342081D01*
X358885Y341620D01*
X359775Y341382D01*
X360697D01*
X361587Y341620D01*
X362385Y342081D01*
X363037Y342733D01*
X363498Y343531D01*
X363736Y344421D01*
Y345343D01*
X363699Y345483D01*
X364617Y346402D01*
X368208D01*
X368466Y346088D01*
Y344464D01*
X368565Y343968D01*
X368743Y343701D01*
X368565Y343434D01*
X368466Y342938D01*
Y342626D01*
X372385D01*
Y341626D01*
X368466D01*
Y341314D01*
X368208Y341000D01*
X362611D01*
X361837Y340845D01*
X361181Y340407D01*
X358163Y337389D01*
X357724Y336733D01*
X357624Y336230D01*
X357173Y336320D01*
X355549D01*
X355053Y336222D01*
X354786Y336043D01*
X354519Y336222D01*
X354024Y336320D01*
X352487D01*
X352340Y336529D01*
X352262Y336803D01*
X353336Y337876D01*
X353437Y337849D01*
Y341339D01*
Y344828D01*
X352586Y344600D01*
X351788Y344139D01*
X351136Y343488D01*
X350676Y342689D01*
X350600Y342407D01*
X350313Y342342D01*
X350071Y342366D01*
X349651Y343094D01*
X348999Y343746D01*
X348201Y344206D01*
X347311Y344445D01*
X346390D01*
X345499Y344206D01*
X344701Y343746D01*
X344050Y343094D01*
X343589Y342296D01*
X343350Y341406D01*
Y340484D01*
X343589Y339594D01*
X344050Y338796D01*
X344701Y338144D01*
X344889Y338036D01*
Y336578D01*
X344575Y336320D01*
X342951D01*
X342455Y336222D01*
X342188Y336043D01*
X341921Y336222D01*
X341425Y336320D01*
X339801D01*
X339305Y336222D01*
X339038Y336043D01*
X338771Y336222D01*
X338276Y336320D01*
X336652D01*
X336156Y336222D01*
X335889Y336043D01*
X335622Y336222D01*
X335126Y336320D01*
X333502D01*
X333006Y336222D01*
X332739Y336043D01*
X332472Y336222D01*
X331976Y336320D01*
X330352D01*
X329857Y336222D01*
X329590Y336043D01*
X329323Y336222D01*
X328827Y336320D01*
X328807D01*
X328673Y336820D01*
X328921Y336963D01*
X329572Y337615D01*
X330033Y338413D01*
X330272Y339303D01*
Y340225D01*
X330234Y340365D01*
X352019Y362150D01*
X368208D01*
X368466Y361836D01*
D02*
G37*
G36*
X377426Y335460D02*
X377568Y334749D01*
X377937Y334197D01*
Y331480D01*
X384381D01*
X384588Y330980D01*
X383155Y329547D01*
X368108D01*
X367918Y329779D01*
Y335025D01*
X367819Y335520D01*
X367538Y335941D01*
X367118Y336222D01*
X366622Y336320D01*
X364998D01*
X364502Y336222D01*
X364235Y336043D01*
X363968Y336222D01*
X363834Y336248D01*
X363813Y336266D01*
X363627Y336799D01*
X363748Y336953D01*
X369337D01*
X369762Y336869D01*
X375008D01*
X375432Y336953D01*
X375934D01*
X377426Y335460D01*
D02*
G37*
%LPC*%
G36*
X401287Y396797D02*
Y393807D01*
X404277D01*
X404049Y394658D01*
X403588Y395456D01*
X402937Y396108D01*
X402138Y396569D01*
X401287Y396797D01*
D02*
G37*
G36*
X404277Y392807D02*
X401287D01*
Y389818D01*
X402138Y390046D01*
X402937Y390506D01*
X403588Y391158D01*
X404049Y391956D01*
X404277Y392807D01*
D02*
G37*
G36*
X400287Y396797D02*
X399436Y396569D01*
X398638Y396108D01*
X398112Y395581D01*
X388673D01*
X387803Y395408D01*
X387628Y395291D01*
X385417D01*
Y392232D01*
X387795D01*
Y391732D01*
X388295D01*
Y388173D01*
X390173D01*
Y391033D01*
X398112D01*
X398638Y390506D01*
X399436Y390046D01*
X400287Y389818D01*
Y393307D01*
Y396797D01*
D02*
G37*
G36*
X387295Y391232D02*
X385417D01*
Y388173D01*
X387295D01*
Y391232D01*
D02*
G37*
G36*
X302969Y391551D02*
X295457D01*
Y384827D01*
X302969D01*
Y391551D01*
D02*
G37*
G36*
X286614Y394006D02*
X284050D01*
X283180Y393833D01*
X282442Y393340D01*
X281857Y392754D01*
X281364Y392017D01*
X281191Y391146D01*
Y355512D01*
X281364Y354642D01*
X281857Y353904D01*
X282644Y353116D01*
X283382Y352624D01*
X284252Y352450D01*
X293882D01*
Y349713D01*
X297532D01*
Y352969D01*
X296081D01*
X295874Y353468D01*
X299213Y356807D01*
X299753Y356266D01*
X300491Y355773D01*
X301361Y355600D01*
X308020D01*
X308073Y355536D01*
Y355224D01*
X311991D01*
Y354224D01*
X308073D01*
Y353912D01*
X308171Y353417D01*
X308350Y353150D01*
X308171Y352883D01*
X308073Y352387D01*
Y350763D01*
X307635Y350401D01*
X307100Y350294D01*
X306443Y349856D01*
X302900Y346312D01*
X302681Y345985D01*
X302181Y346136D01*
Y348713D01*
X298532D01*
Y345457D01*
X301912D01*
X302335Y345021D01*
X302308Y344882D01*
Y341605D01*
X302181Y341158D01*
X293882D01*
X293882Y341158D01*
Y341158D01*
X293453Y341344D01*
X293352Y341519D01*
X292700Y342171D01*
X291902Y342632D01*
X291012Y342870D01*
X290090D01*
X289200Y342632D01*
X288402Y342171D01*
X287751Y341519D01*
X287290Y340721D01*
X287051Y339831D01*
Y338909D01*
X287290Y338019D01*
X287751Y337221D01*
X288402Y336569D01*
X289200Y336109D01*
X290090Y335870D01*
X291012D01*
X291902Y336109D01*
X292357Y336371D01*
X293882D01*
Y333646D01*
X302181D01*
Y336133D01*
X302870Y336270D01*
X303526Y336708D01*
X305761Y338944D01*
X306200Y339600D01*
X306354Y340374D01*
Y344044D01*
X307611Y345301D01*
X308073Y345109D01*
Y344464D01*
X308171Y343968D01*
X308350Y343701D01*
X308171Y343434D01*
X308073Y342938D01*
Y341314D01*
X308171Y340818D01*
X308350Y340551D01*
X308171Y340284D01*
X308073Y339788D01*
Y338164D01*
X308171Y337669D01*
X308452Y337248D01*
X308872Y336967D01*
X309368Y336869D01*
X314614D01*
X315110Y336967D01*
X315530Y337248D01*
X315811Y337669D01*
X315910Y338164D01*
Y339788D01*
X315811Y340284D01*
X315633Y340551D01*
X315811Y340818D01*
X315910Y341314D01*
Y342938D01*
X315811Y343434D01*
X315633Y343701D01*
X315811Y343968D01*
X315910Y344464D01*
Y346088D01*
X315811Y346583D01*
X315633Y346850D01*
X315811Y347117D01*
X315910Y347613D01*
Y348961D01*
X316410Y349168D01*
X316972Y348606D01*
Y348358D01*
X317211Y347468D01*
X317672Y346670D01*
X318323Y346018D01*
X319122Y345557D01*
X320012Y345319D01*
X320933D01*
X321823Y345557D01*
X322621Y346018D01*
X323273Y346670D01*
X323734Y347468D01*
X323972Y348358D01*
Y349280D01*
X323734Y350170D01*
X323273Y350968D01*
X322621Y351620D01*
X321823Y352080D01*
X320933Y352319D01*
X320422D01*
X320285Y352319D01*
X320219Y352819D01*
X320369Y352859D01*
X321036Y353038D01*
X321834Y353499D01*
X322486Y354150D01*
X322947Y354948D01*
X323175Y355799D01*
X319685D01*
Y356299D01*
X319185D01*
Y359789D01*
X318334Y359561D01*
X317536Y359100D01*
X316884Y358448D01*
X316424Y357650D01*
X316410Y357599D01*
X315915Y357664D01*
X315910Y357667D01*
Y358686D01*
X315811Y359182D01*
X315633Y359449D01*
X315811Y359716D01*
X315910Y360212D01*
Y361836D01*
X315811Y362331D01*
X315633Y362598D01*
X315811Y362865D01*
X315910Y363361D01*
Y364985D01*
X315811Y365481D01*
X315633Y365748D01*
X315811Y366015D01*
X315910Y366511D01*
Y368135D01*
X315811Y368631D01*
X315633Y368898D01*
X315811Y369165D01*
X315910Y369660D01*
Y371284D01*
X315811Y371780D01*
X315633Y372047D01*
X315811Y372314D01*
X315910Y372810D01*
Y374434D01*
X315811Y374930D01*
X315633Y375197D01*
X315811Y375464D01*
X315910Y375960D01*
Y377584D01*
X315811Y378079D01*
X315633Y378346D01*
X315811Y378613D01*
X315910Y379109D01*
Y380733D01*
X315811Y381229D01*
X315633Y381496D01*
X315811Y381763D01*
X315910Y382259D01*
Y383883D01*
X315811Y384379D01*
X315633Y384646D01*
X315811Y384913D01*
X315910Y385408D01*
Y387033D01*
X315811Y387528D01*
X315530Y387949D01*
X315110Y388229D01*
X314614Y388328D01*
X309368D01*
X308872Y388229D01*
X308452Y387949D01*
X308171Y387528D01*
X308073Y387033D01*
Y385408D01*
X308171Y384913D01*
X308350Y384646D01*
X308171Y384379D01*
X308073Y383883D01*
Y382259D01*
X308171Y381763D01*
X308350Y381496D01*
X308171Y381229D01*
X308073Y380733D01*
Y379109D01*
X308171Y378613D01*
X308350Y378346D01*
X308171Y378079D01*
X308073Y377584D01*
Y375960D01*
X308171Y375464D01*
X308350Y375197D01*
X308171Y374930D01*
X308073Y374434D01*
Y372810D01*
X308171Y372314D01*
X308350Y372047D01*
X308171Y371780D01*
X308073Y371284D01*
Y369660D01*
X308171Y369165D01*
X308350Y368898D01*
X308171Y368631D01*
X308073Y368135D01*
Y366511D01*
X308171Y366015D01*
X308350Y365748D01*
X308171Y365481D01*
X308073Y364985D01*
Y363606D01*
X307573Y363399D01*
X301984Y368987D01*
Y373244D01*
X301487D01*
Y376165D01*
X302969D01*
Y382890D01*
X295457D01*
Y376165D01*
X296939D01*
Y373244D01*
X296441D01*
Y366126D01*
X299123D01*
X300418Y364831D01*
X300227Y364369D01*
X296441D01*
Y360467D01*
X294966Y358992D01*
X294504Y359183D01*
Y360310D01*
X291732D01*
X288961D01*
Y357251D01*
X288565Y356998D01*
X285739D01*
Y388739D01*
X286200Y388930D01*
X286795Y388335D01*
Y384827D01*
X294307D01*
Y391551D01*
X290011D01*
X288222Y393340D01*
X287484Y393833D01*
X286614Y394006D01*
D02*
G37*
G36*
X294307Y382890D02*
X291051D01*
Y380028D01*
X294307D01*
Y382890D01*
D02*
G37*
G36*
X290051D02*
X286795D01*
Y380028D01*
X290051D01*
Y382890D01*
D02*
G37*
G36*
X495744Y384248D02*
X485161D01*
Y380102D01*
X485114Y379622D01*
X483932Y379622D01*
X483701Y380122D01*
X483992Y380826D01*
Y381733D01*
X483645Y382571D01*
X483004Y383212D01*
X482166Y383559D01*
X481259D01*
X480421Y383212D01*
X479780Y382571D01*
X479433Y381733D01*
Y380826D01*
X479725Y380122D01*
X479493Y379622D01*
X474817D01*
Y382283D01*
X474700Y382869D01*
X474369Y383365D01*
X473873Y383696D01*
X473287Y383813D01*
X472743Y383704D01*
X469925D01*
X469381Y383596D01*
X468920Y383288D01*
X468456Y382824D01*
X468148Y382363D01*
X468040Y381819D01*
Y379622D01*
X461176D01*
X460945Y380122D01*
X461236Y380826D01*
Y381733D01*
X460889Y382571D01*
X460248Y383212D01*
X459410Y383559D01*
X458503D01*
X457665Y383212D01*
X457024Y382571D01*
X456677Y381733D01*
Y380826D01*
X456969Y380122D01*
X456737Y379622D01*
X455555Y379622D01*
X455508Y380102D01*
Y384248D01*
X444925D01*
Y374374D01*
X455055D01*
X455508Y374374D01*
X455555Y373894D01*
Y373095D01*
X457769D01*
X457960Y372633D01*
X455943Y370616D01*
X455505Y369959D01*
X455435Y369607D01*
X454937Y369602D01*
Y369602D01*
X449000D01*
Y365043D01*
X454937D01*
Y365300D01*
X456988D01*
X457762Y365454D01*
X458419Y365892D01*
X458751Y366225D01*
X459237Y366207D01*
X459276Y366200D01*
X459337Y365972D01*
X459798Y365174D01*
X460449Y364522D01*
X461247Y364061D01*
X462138Y363823D01*
X463059D01*
X463949Y364061D01*
X464747Y364522D01*
X465352Y365127D01*
X465787Y365070D01*
X465852Y365052D01*
Y353449D01*
X459664Y347260D01*
X457858D01*
Y342504D01*
X464976D01*
Y347260D01*
X464643D01*
X464452Y347722D01*
X467680Y350950D01*
X468237Y350801D01*
X468392Y350224D01*
X468853Y349426D01*
X469504Y348774D01*
X470124Y348416D01*
Y347260D01*
X468094D01*
Y342504D01*
X475213D01*
Y347260D01*
X473183D01*
Y348416D01*
X473803Y348774D01*
X474454Y349426D01*
X474915Y350224D01*
X475153Y351114D01*
Y352036D01*
X474915Y352926D01*
X474454Y353724D01*
X473803Y354376D01*
X473004Y354836D01*
X472114Y355075D01*
X471193D01*
X470303Y354836D01*
X469504Y354376D01*
X469373Y354244D01*
X468911Y354436D01*
Y369435D01*
X470824D01*
X471258Y369522D01*
X471758Y369229D01*
Y358924D01*
X471874Y358338D01*
X472206Y357842D01*
X480147Y349901D01*
Y347260D01*
X478117D01*
Y342504D01*
X485235D01*
X485235Y346896D01*
Y346932D01*
D01*
X485235Y346934D01*
X485283Y346954D01*
X485735Y347141D01*
X487780Y345097D01*
Y342898D01*
X494422D01*
X494752Y342898D01*
X495003Y342441D01*
X492735Y340173D01*
X491839D01*
Y338295D01*
X495183D01*
X499113Y342226D01*
X499444Y342722D01*
X499561Y343307D01*
Y349804D01*
X501590D01*
Y352076D01*
X498032D01*
X494472D01*
Y349804D01*
X496502D01*
Y343941D01*
X495354Y342793D01*
X494898Y343043D01*
X494898Y343337D01*
Y347654D01*
X490608D01*
X490461Y347683D01*
X489519D01*
X478255Y358948D01*
X478575Y359335D01*
X479008Y359335D01*
X484465D01*
Y359340D01*
X486702D01*
Y357006D01*
X486569Y356873D01*
X486109Y356075D01*
X485870Y355185D01*
Y354264D01*
X486109Y353374D01*
X486569Y352575D01*
X487221Y351924D01*
X488019Y351463D01*
X488909Y351224D01*
X489831D01*
X490721Y351463D01*
X491519Y351924D01*
X492171Y352575D01*
X492632Y353374D01*
X492870Y354264D01*
Y355185D01*
X492632Y356075D01*
X492171Y356873D01*
X491624Y357421D01*
X491942Y357809D01*
X492043Y357742D01*
X492913Y357569D01*
X494472D01*
Y357284D01*
X501590D01*
Y362828D01*
X494472D01*
Y362117D01*
X493855D01*
X492750Y363222D01*
X492012Y363715D01*
X491142Y363888D01*
X484465D01*
Y363894D01*
X478528D01*
Y359832D01*
X478527Y359382D01*
X478141Y359062D01*
X477514Y359689D01*
Y369598D01*
X477957Y370042D01*
X477972Y370051D01*
X477981Y370056D01*
X478117Y370059D01*
X478527Y369661D01*
X478528Y369534D01*
Y365437D01*
X484465D01*
Y369996D01*
X483026D01*
Y371646D01*
X482909Y372231D01*
X482666Y372594D01*
X482860Y373095D01*
X485114D01*
Y373894D01*
X485161Y374374D01*
X485614Y374374D01*
X495744D01*
Y384248D01*
D02*
G37*
G36*
X276394Y377969D02*
X273335D01*
Y375697D01*
X276394D01*
Y377969D01*
D02*
G37*
G36*
X272335D02*
X269276D01*
Y375697D01*
X272335D01*
Y377969D01*
D02*
G37*
G36*
X276394Y374697D02*
X273335D01*
Y372425D01*
X276394D01*
Y374697D01*
D02*
G37*
G36*
X272335D02*
X269276D01*
Y372425D01*
X272335D01*
Y374697D01*
D02*
G37*
G36*
X294307Y379028D02*
X290551D01*
X286795D01*
Y376165D01*
X289458D01*
Y373244D01*
X288961D01*
Y370185D01*
X291732D01*
X294504D01*
Y373244D01*
X294006D01*
Y376165D01*
X294307D01*
Y379028D01*
D02*
G37*
G36*
X276394Y370488D02*
X269276D01*
Y368161D01*
X265728Y364614D01*
X257102D01*
Y365899D01*
X252346D01*
Y358781D01*
X257102D01*
Y360066D01*
X266670D01*
X267541Y360239D01*
X268278Y360732D01*
X268489Y360942D01*
X268917Y360710D01*
X268941Y360687D01*
Y359775D01*
X269180Y358885D01*
X269640Y358087D01*
X270292Y357435D01*
X271090Y356975D01*
X271980Y356736D01*
X272902D01*
X273792Y356975D01*
X274590Y357435D01*
X275242Y358087D01*
X275702Y358885D01*
X275941Y359775D01*
Y360697D01*
X275702Y361587D01*
X275242Y362385D01*
X274715Y362912D01*
Y364945D01*
X276394D01*
Y370488D01*
D02*
G37*
G36*
X438598Y365370D02*
X436327D01*
Y362311D01*
X438598D01*
Y365370D01*
D02*
G37*
G36*
X435327D02*
X433055D01*
Y362311D01*
X435327D01*
Y365370D01*
D02*
G37*
G36*
X294504Y369185D02*
X291732D01*
X288961D01*
Y366126D01*
X289458D01*
Y364369D01*
X288961D01*
Y361310D01*
X291732D01*
X294504D01*
Y364369D01*
X294006D01*
Y366126D01*
X294504D01*
Y369185D01*
D02*
G37*
G36*
X245380Y380953D02*
X244383D01*
X243420Y380695D01*
X242556Y380196D01*
X241851Y379491D01*
X241353Y378627D01*
X241094Y377664D01*
Y376667D01*
X241353Y375704D01*
X241851Y374840D01*
X242556Y374135D01*
X242608Y374105D01*
Y365883D01*
X242781Y365013D01*
X243274Y364275D01*
X244866Y362683D01*
Y358781D01*
X249622D01*
Y365899D01*
X248082D01*
X247156Y366825D01*
Y374105D01*
X247207Y374135D01*
X247913Y374840D01*
X248411Y375704D01*
X248669Y376667D01*
Y377664D01*
X248411Y378627D01*
X247913Y379491D01*
X247207Y380196D01*
X246344Y380695D01*
X245380Y380953D01*
D02*
G37*
G36*
X438598Y361311D02*
X436327D01*
Y358252D01*
X438598D01*
Y361311D01*
D02*
G37*
G36*
X435327D02*
X433055D01*
Y358252D01*
X435327D01*
Y361311D01*
D02*
G37*
G36*
X320185Y359789D02*
Y356799D01*
X323175D01*
X322947Y357650D01*
X322486Y358448D01*
X321834Y359100D01*
X321036Y359561D01*
X320185Y359789D01*
D02*
G37*
G36*
X501590Y355347D02*
X498531D01*
Y353076D01*
X501590D01*
Y355347D01*
D02*
G37*
G36*
X497532D02*
X494472D01*
Y353076D01*
X497532D01*
Y355347D01*
D02*
G37*
G36*
X273835Y352969D02*
X270185D01*
Y349713D01*
X273835D01*
Y352969D01*
D02*
G37*
G36*
X302181D02*
X298532D01*
Y349713D01*
X302181D01*
Y352969D01*
D02*
G37*
G36*
X269185D02*
X265535D01*
Y349713D01*
X269185D01*
Y352969D01*
D02*
G37*
G36*
X297532Y348713D02*
X293882D01*
Y345457D01*
X297532D01*
Y348713D01*
D02*
G37*
G36*
X273835D02*
X270185D01*
Y345457D01*
X273835D01*
Y348713D01*
D02*
G37*
G36*
X269185D02*
X265535D01*
Y345457D01*
X269185D01*
Y348713D01*
D02*
G37*
G36*
X446079Y365370D02*
X440535D01*
Y358252D01*
X446079D01*
Y358946D01*
X449000D01*
Y358941D01*
X449301D01*
Y349526D01*
X448774Y348999D01*
X448313Y348201D01*
X448075Y347311D01*
Y346390D01*
X448313Y345499D01*
X448774Y344701D01*
X449426Y344050D01*
X450224Y343589D01*
X451114Y343350D01*
X452036D01*
X452926Y343589D01*
X453724Y344050D01*
X454376Y344701D01*
X454836Y345499D01*
X455075Y346390D01*
Y347311D01*
X454836Y348201D01*
X454376Y348999D01*
X453849Y349526D01*
Y358941D01*
X454937D01*
Y363500D01*
X449000D01*
Y363494D01*
X446079D01*
Y365370D01*
D02*
G37*
G36*
X490839Y340173D02*
X487780D01*
Y338295D01*
X490839D01*
Y340173D01*
D02*
G37*
G36*
X475213Y339779D02*
X472154D01*
Y337901D01*
X475213D01*
Y339779D01*
D02*
G37*
G36*
X471153D02*
X468094D01*
Y337901D01*
X471153D01*
Y339779D01*
D02*
G37*
G36*
X491339Y337795D02*
D01*
D01*
D01*
D02*
G37*
G36*
X494898Y337295D02*
X491839D01*
Y335417D01*
X494898D01*
Y337295D01*
D02*
G37*
G36*
X490839D02*
X487780D01*
Y335417D01*
X490839D01*
Y337295D01*
D02*
G37*
G36*
X475213Y336901D02*
X472154D01*
Y335024D01*
X475213D01*
Y336901D01*
D02*
G37*
G36*
X471153D02*
X468094D01*
Y335024D01*
X471153D01*
Y336901D01*
D02*
G37*
G36*
X248669Y390953D02*
X241094D01*
Y386594D01*
X236436Y381936D01*
X235944Y381198D01*
X235770Y380328D01*
Y348963D01*
X235944Y348093D01*
X236436Y347356D01*
X238549Y345242D01*
X239287Y344749D01*
X240158Y344576D01*
X258901D01*
X265535Y337942D01*
Y333646D01*
X273835D01*
Y341158D01*
X268751D01*
X261451Y348458D01*
X260713Y348951D01*
X259842Y349124D01*
X241099D01*
X240318Y349905D01*
Y379386D01*
X244310Y383378D01*
X248669D01*
Y390953D01*
D02*
G37*
G36*
X393807Y372387D02*
Y369398D01*
X396797D01*
X396569Y370249D01*
X396108Y371047D01*
X395456Y371698D01*
X394658Y372159D01*
X393807Y372387D01*
D02*
G37*
G36*
X385055Y378345D02*
X381996D01*
Y375574D01*
Y372802D01*
X385055D01*
Y373551D01*
X385793D01*
X389845Y369499D01*
X389818Y369398D01*
X392807D01*
Y372387D01*
X392706Y372360D01*
X388061Y377004D01*
X387405Y377443D01*
X386631Y377597D01*
X385055D01*
Y378345D01*
D02*
G37*
G36*
X396797Y368398D02*
X393807D01*
Y365408D01*
X394658Y365636D01*
X395456Y366097D01*
X396108Y366749D01*
X396569Y367547D01*
X396797Y368398D01*
D02*
G37*
G36*
X392807D02*
X389818D01*
X390046Y367547D01*
X390506Y366749D01*
X391158Y366097D01*
X391956Y365636D01*
X392807Y365408D01*
Y368398D01*
D02*
G37*
G36*
X385055Y341232D02*
X381996D01*
Y338961D01*
X385055D01*
Y341232D01*
D02*
G37*
G36*
X357427Y340839D02*
X354437D01*
Y337849D01*
X355288Y338077D01*
X356086Y338538D01*
X356738Y339190D01*
X357199Y339988D01*
X357427Y340839D01*
D02*
G37*
%LPD*%
D10*
X469925Y382283D02*
X473287D01*
X469461Y377694D02*
Y381819D01*
X469925Y382283D01*
D12*
X473287Y358924D02*
X481676Y350535D01*
X473287Y358924D02*
Y382283D01*
X460433Y345866D02*
X467382Y352815D01*
Y376358D01*
X477224Y371472D02*
Y376358D01*
X475984Y370232D02*
X477224Y371472D01*
X471410Y371550D02*
Y374120D01*
X471410Y374120D02*
X471410Y374120D01*
X471410Y374120D02*
Y376268D01*
X471319Y376358D02*
X471410Y376268D01*
X467492Y370965D02*
X470824D01*
X471410Y371550D01*
X465492Y373337D02*
Y376358D01*
X387795Y391732D02*
Y392429D01*
X388673Y393307D01*
X298031Y337402D02*
X298769Y338139D01*
X296788Y338646D02*
X298031Y337402D01*
X296063Y339370D02*
X296788Y338646D01*
X479894Y373249D02*
X481496Y371646D01*
Y367717D02*
Y371646D01*
X479894Y373249D02*
Y377694D01*
X381496Y334252D02*
X382213Y334969D01*
X380709Y334252D02*
X381496D01*
X272441Y367323D02*
X272835Y367717D01*
X372385Y376772D02*
X372952Y377339D01*
X380709Y383054D02*
X381496D01*
X459449Y335433D02*
X461417Y337402D01*
X272047Y367717D02*
X272835D01*
X247244Y362340D02*
Y363521D01*
X269291Y337402D02*
X269685D01*
X377559Y48622D02*
Y61811D01*
X368504Y135827D02*
X368522Y135809D01*
Y121671D02*
Y135809D01*
X363779Y194720D02*
Y208268D01*
X492756Y52677D02*
Y90276D01*
X489311Y48622D02*
Y49232D01*
X492756Y52677D01*
X414311Y49232D02*
X417756Y52677D01*
X414311Y48622D02*
Y49232D01*
X417756Y52677D02*
Y90276D01*
X342756Y52677D02*
Y90276D01*
X339311Y48622D02*
Y49232D01*
X342756Y52677D01*
X264311Y49232D02*
X267756Y52677D01*
X264311Y48622D02*
Y49232D01*
X267756Y52677D02*
Y90276D01*
X492756Y127677D02*
Y165276D01*
X489311Y123622D02*
Y124232D01*
X492756Y127677D01*
X414311Y123622D02*
Y124232D01*
X417756Y127677D01*
Y165276D01*
X339311Y124232D02*
X342756Y127677D01*
Y165276D01*
X339311Y123622D02*
Y124232D01*
X264311Y123622D02*
Y124232D01*
X267756Y127677D01*
Y165276D01*
X489311Y199232D02*
X492756Y202677D01*
Y240276D01*
X489311Y198622D02*
Y199232D01*
X414311D02*
X417756Y202677D01*
Y240276D01*
X414311Y198622D02*
Y199232D01*
X342756Y202677D02*
Y240276D01*
X339311Y198622D02*
Y199232D01*
X342756Y202677D01*
X267756D02*
Y240276D01*
X264311Y198622D02*
Y199232D01*
X267756Y202677D01*
X243307Y314961D02*
X243587Y314681D01*
X451575Y360827D02*
X451968Y361221D01*
X488976Y355118D02*
X489370Y354724D01*
X498032Y343307D02*
Y352576D01*
X492520Y337795D02*
X498032Y343307D01*
X497818Y359842D02*
X498032Y360056D01*
X381235Y375313D02*
X381496Y375574D01*
X319620Y348819D02*
X320472D01*
X318110Y356299D02*
X319685D01*
X346850Y340945D02*
X346912Y340883D01*
X290158Y388189D02*
X290551D01*
Y379528D02*
X291732Y378346D01*
X299213Y368898D02*
Y369685D01*
X463364Y371209D02*
X465492Y373337D01*
X463364Y368088D02*
Y371209D01*
X462598Y367323D02*
X463364Y368088D01*
X471654Y344882D02*
Y351575D01*
X481676Y344882D02*
Y350535D01*
X475984Y359055D02*
X488886Y346153D01*
X475984Y359055D02*
Y370232D01*
X488886Y346153D02*
X490461D01*
X491339Y345276D01*
X379437Y335524D02*
X380709Y334252D01*
X381102Y342126D02*
X381496Y341732D01*
D13*
X471654Y337402D02*
D03*
Y344882D02*
D03*
X481676Y337402D02*
D03*
Y344882D02*
D03*
X461417Y337402D02*
D03*
Y344882D02*
D03*
X491339Y337795D02*
D03*
Y345276D02*
D03*
D14*
X498032Y352576D02*
D03*
Y360056D02*
D03*
X272835Y367717D02*
D03*
Y375197D02*
D03*
X381496Y383054D02*
D03*
Y375574D02*
D03*
Y334252D02*
D03*
Y341732D02*
D03*
D15*
X435827Y361811D02*
D03*
X443307D02*
D03*
X291732Y360810D02*
D03*
X299213D02*
D03*
X291732Y369685D02*
D03*
X299213D02*
D03*
D26*
X376160Y361122D02*
X376367Y361329D01*
X380818D01*
X381398Y361910D01*
X372483Y361122D02*
X376160D01*
X372385Y361024D02*
X372483Y361122D01*
X460875Y372686D02*
Y376237D01*
X457374Y367709D02*
Y369185D01*
X460875Y376237D02*
X460996Y376358D01*
X457374Y369185D02*
X460875Y372686D01*
X372385Y373622D02*
X372440Y373677D01*
X377605Y374895D02*
X380817D01*
X376387Y373677D02*
X377605Y374895D01*
X372440Y373677D02*
X376387D01*
X380817Y374895D02*
X381235Y375313D01*
X363681Y378117D02*
Y378937D01*
X372467Y367240D02*
X384728D01*
X372385Y367323D02*
X372467Y367240D01*
X384728D02*
X393307Y358661D01*
X382044Y353346D02*
X389567D01*
X376181Y354626D02*
X382382Y348425D01*
X372385Y357874D02*
X377517D01*
X372483Y354626D02*
X376181D01*
X377517Y357874D02*
X382044Y353346D01*
X372385Y354724D02*
X372483Y354626D01*
X389567Y353346D02*
X394094Y348819D01*
X366470Y351575D02*
X372385D01*
X362303Y354921D02*
X363123D01*
X366470Y351575D01*
X363779Y348425D02*
X372385D01*
X360236Y344882D02*
X363779Y348425D01*
X358649Y322441D02*
X388976D01*
X396457Y329921D01*
X353294Y327796D02*
X358649Y322441D01*
X372385Y338976D02*
X376772D01*
X362611D02*
X372385D01*
X386631Y375574D02*
X393307Y368898D01*
X381496Y375574D02*
X386631D01*
X304331Y344882D02*
X307874Y348425D01*
X304331Y340374D02*
Y344882D01*
X307874Y348425D02*
X311991D01*
X302095Y338139D02*
X304331Y340374D01*
X298769Y338139D02*
X302095D01*
X383993Y327524D02*
X391902Y335433D01*
X459449D01*
X357765Y327524D02*
X383993D01*
X350145Y388832D02*
Y392713D01*
X350062Y392795D02*
X350145Y392713D01*
X359594Y335959D02*
X362611Y338976D01*
X359594Y332484D02*
Y335959D01*
X376772Y338976D02*
X379437Y336311D01*
X480101Y337008D02*
X480495Y337402D01*
X474196Y329921D02*
X480101Y335827D01*
Y337008D01*
X480495Y337402D02*
X481676D01*
X396457Y329921D02*
X474196D01*
X356444Y328844D02*
X357765Y327524D01*
X356361Y332402D02*
X356444Y332319D01*
X353294Y327796D02*
Y332319D01*
X356444Y328844D02*
Y332319D01*
X353212Y332402D02*
X353294Y332319D01*
X326772Y339764D02*
X351181Y364173D01*
X372385D01*
X316864Y351575D02*
X319620Y348819D01*
X311991Y351575D02*
X316864D01*
X311991Y354724D02*
X316535D01*
X318110Y356299D01*
X350062Y337464D02*
X353937Y341339D01*
X350062Y332402D02*
Y337464D01*
X346912Y332402D02*
Y340883D01*
X299213Y368898D02*
X307087Y361024D01*
X311991D01*
X456988Y367323D02*
X457374Y367709D01*
X451968Y367323D02*
X456988D01*
X379437Y335524D02*
Y336311D01*
X372385Y342126D02*
X381102D01*
D27*
X291045Y323917D02*
X291734Y323228D01*
X292421D01*
X237697Y323917D02*
X291045D01*
X356741Y316634D02*
X386122D01*
X346097Y327278D02*
X356741Y316634D01*
X343763Y328579D02*
Y330738D01*
X345064Y327278D02*
X346097D01*
X343763Y328579D02*
X345064Y327278D01*
X442193Y48622D02*
X476437D01*
X292193D02*
X326437D01*
X366571Y44721D02*
X370473Y48622D01*
X359449Y44721D02*
X366571D01*
X370473Y48622D02*
X401437D01*
X356658Y41929D02*
X359449Y44721D01*
X326437Y48012D02*
X332520Y41929D01*
X356658D01*
X285106Y41535D02*
X292193Y48622D01*
X251437Y48012D02*
X257913Y41535D01*
X285106D01*
X407520Y41929D02*
X435500D01*
X401437Y48012D02*
X407520Y41929D01*
X435500D02*
X442193Y48622D01*
Y123622D02*
X476437D01*
X292193D02*
X326437D01*
X366571Y119720D02*
X370473Y123622D01*
X359449Y119720D02*
X366571D01*
X370473Y123622D02*
X401437D01*
X356658Y116929D02*
X359449Y119720D01*
X326437Y123012D02*
X332520Y116929D01*
X356658D01*
X285106Y116535D02*
X292193Y123622D01*
X251437Y123012D02*
X257913Y116535D01*
X285106D01*
X407520Y116929D02*
X435500D01*
X401437Y123012D02*
X407520Y116929D01*
X435500D02*
X442193Y123622D01*
Y198622D02*
X476437D01*
X292193D02*
X326437D01*
X366571Y194720D02*
X370473Y198622D01*
X359449Y194720D02*
X366571D01*
X370473Y198622D02*
X401437D01*
X356658Y191929D02*
X359449Y194720D01*
X326437Y198012D02*
X332520Y191929D01*
X356658D01*
X285106Y191535D02*
X292193Y198622D01*
X251437Y198012D02*
X257913Y191535D01*
X285106D01*
X407520Y191929D02*
X435500D01*
X401437Y198012D02*
X407520Y191929D01*
X435500D02*
X442193Y198622D01*
X388673Y393307D02*
X400787D01*
X409293Y342126D02*
Y369841D01*
X396080Y383054D02*
X409293Y369841D01*
X381496Y383054D02*
X396080D01*
X267756Y313544D02*
Y315276D01*
X264311Y274232D02*
X270079Y280000D01*
Y311222D01*
X267756Y313544D02*
X270079Y311222D01*
X342756Y315276D02*
X343980Y314052D01*
Y311143D02*
Y314052D01*
Y311143D02*
X344488Y310635D01*
X339311Y273622D02*
X344488Y278799D01*
Y310635D01*
X495276Y280197D02*
Y311025D01*
X489311Y274232D02*
X495276Y280197D01*
X492756Y313544D02*
Y315276D01*
Y313544D02*
X495276Y311025D01*
X414311Y274232D02*
X419685Y279606D01*
X417756Y313544D02*
Y315276D01*
Y313544D02*
X419685Y311615D01*
Y279606D02*
Y311615D01*
X435500Y266929D02*
X442193Y273622D01*
X401437Y273012D02*
X407520Y266929D01*
X435500D01*
X257913Y266535D02*
X285106D01*
X251437Y273012D02*
X257913Y266535D01*
X285106D02*
X292193Y273622D01*
X332520Y266929D02*
X356658D01*
X326437Y273012D02*
X332520Y266929D01*
X356658D02*
X359449Y269721D01*
X392520Y342126D02*
X409293D01*
X382213Y334793D02*
X384090D01*
X385363Y334969D02*
X392520Y342126D01*
X384266Y334969D02*
X385363D01*
X384090Y334793D02*
X384266Y334969D01*
X272441Y360236D02*
Y367323D01*
X291963Y338646D02*
X296788D01*
X291238Y339370D02*
X291963Y338646D01*
X290551Y339370D02*
X291238D01*
X266670Y362340D02*
X272047Y367717D01*
X254724Y362340D02*
X266670D01*
X244882Y365883D02*
X247244Y363521D01*
X244882Y365883D02*
Y377165D01*
X238044Y348963D02*
Y380328D01*
Y348963D02*
X240158Y346850D01*
X259842D01*
X238044Y380328D02*
X244882Y387165D01*
X259842Y346850D02*
X269291Y337402D01*
X357480Y278217D02*
Y287008D01*
Y278217D02*
X359449Y276248D01*
Y269721D02*
Y276248D01*
X370473Y273622D02*
X401437D01*
X359449Y269721D02*
X366571D01*
X370473Y273622D01*
X292193D02*
X326437D01*
X442193D02*
X476437D01*
X243587Y305268D02*
Y314681D01*
X451575Y346850D02*
Y360827D01*
X488976Y355118D02*
Y361614D01*
X491142D01*
X481496D02*
X488976D01*
X492913Y359842D02*
X497818D01*
X491142Y361614D02*
X492913Y359842D01*
X443898Y361221D02*
X451968D01*
X283465Y355512D02*
X284252Y354724D01*
X293914D01*
X299213Y360023D01*
X283465Y355512D02*
Y391146D01*
X284050Y391732D01*
X286614D01*
X290158Y388189D01*
X291732Y369685D02*
Y378346D01*
Y360810D02*
Y369685D01*
X299213D02*
Y379528D01*
Y360023D02*
X301361Y357874D01*
X311991D01*
D28*
X242874Y305276D02*
D03*
X267756Y315276D02*
D03*
X342756D02*
D03*
X317874Y305276D02*
D03*
X392874D02*
D03*
X417756Y315276D02*
D03*
X492756D02*
D03*
X467874Y305276D02*
D03*
X242874Y230276D02*
D03*
X267756Y240276D02*
D03*
X342756D02*
D03*
X317874Y230276D02*
D03*
X392874D02*
D03*
X417756Y240276D02*
D03*
X492756D02*
D03*
X467874Y230276D02*
D03*
X242874Y155276D02*
D03*
X267756Y165276D02*
D03*
X342756D02*
D03*
X317874Y155276D02*
D03*
X392874D02*
D03*
X417756Y165276D02*
D03*
X492756D02*
D03*
X467874Y155276D02*
D03*
X242874Y80276D02*
D03*
X267756Y90276D02*
D03*
X342756D02*
D03*
X317874Y80276D02*
D03*
X392874D02*
D03*
X417756Y90276D02*
D03*
X492756D02*
D03*
X467874Y80276D02*
D03*
D29*
X277559Y295276D02*
D03*
X238189D02*
D03*
X313189D02*
D03*
X352559D02*
D03*
X427559D02*
D03*
X388189D02*
D03*
X463189D02*
D03*
X502559D02*
D03*
X277559Y220276D02*
D03*
X238189D02*
D03*
X313189D02*
D03*
X352559D02*
D03*
X427559D02*
D03*
X388189D02*
D03*
X463189D02*
D03*
X502559D02*
D03*
X277559Y145276D02*
D03*
X238189D02*
D03*
X313189D02*
D03*
X352559D02*
D03*
X427559D02*
D03*
X388189D02*
D03*
X463189D02*
D03*
X502559D02*
D03*
X277559Y70276D02*
D03*
X238189D02*
D03*
X313189D02*
D03*
X352559D02*
D03*
X427559D02*
D03*
X388189D02*
D03*
X463189D02*
D03*
X502559D02*
D03*
D30*
X257874Y295276D02*
D03*
X332874D02*
D03*
X407874D02*
D03*
X482874D02*
D03*
X257874Y220276D02*
D03*
X332874D02*
D03*
X407874D02*
D03*
X482874D02*
D03*
X257874Y145276D02*
D03*
X332874D02*
D03*
X407874D02*
D03*
X482874D02*
D03*
X257874Y70276D02*
D03*
X332874D02*
D03*
X407874D02*
D03*
X482874D02*
D03*
D31*
X481713Y381279D02*
D03*
X458957D02*
D03*
D32*
X244882Y377165D02*
D03*
D33*
Y387165D02*
D03*
D34*
X381398Y361910D02*
D03*
X363681Y378937D02*
D03*
X382382Y348425D02*
D03*
X362303Y354921D02*
D03*
X237697Y323917D02*
D03*
X292421Y323228D02*
D03*
X386122Y316634D02*
D03*
X400787Y393307D02*
D03*
X393307Y368898D02*
D03*
Y358661D02*
D03*
X409293Y342126D02*
D03*
X272441Y360236D02*
D03*
X377559Y61811D02*
D03*
X394094Y348819D02*
D03*
X368522Y135809D02*
D03*
X363779Y208268D02*
D03*
X357480Y287008D02*
D03*
X360236Y344882D02*
D03*
X326772Y339764D02*
D03*
X243307Y314961D02*
D03*
X451575Y346850D02*
D03*
X489370Y354724D02*
D03*
X290551Y339370D02*
D03*
X320472Y348819D02*
D03*
X319685Y356299D02*
D03*
X353937Y341339D02*
D03*
X346850Y340945D02*
D03*
X462598Y367323D02*
D03*
X471654Y351575D02*
D03*
D35*
X490453Y394783D02*
D03*
X450216D02*
D03*
X490453Y379311D02*
D03*
X450216D02*
D03*
D36*
X471319Y376358D02*
D03*
X469350D02*
D03*
X473287D02*
D03*
X467382D02*
D03*
X475256D02*
D03*
X465413D02*
D03*
X477224D02*
D03*
X463445D02*
D03*
D37*
X482933D02*
D03*
X479783D02*
D03*
X460886D02*
D03*
X457736D02*
D03*
D38*
X311991Y338976D02*
D03*
Y342126D02*
D03*
Y345276D02*
D03*
Y348425D02*
D03*
Y351575D02*
D03*
Y354724D02*
D03*
Y357874D02*
D03*
Y361024D02*
D03*
Y364173D02*
D03*
Y367323D02*
D03*
Y370472D02*
D03*
Y373622D02*
D03*
Y376772D02*
D03*
Y379921D02*
D03*
Y383071D02*
D03*
Y386221D02*
D03*
X372385D02*
D03*
Y383071D02*
D03*
Y379921D02*
D03*
Y376772D02*
D03*
Y373622D02*
D03*
Y370472D02*
D03*
Y367323D02*
D03*
Y364173D02*
D03*
Y361024D02*
D03*
Y357874D02*
D03*
Y354724D02*
D03*
Y351575D02*
D03*
Y348425D02*
D03*
Y345276D02*
D03*
Y342126D02*
D03*
Y338976D02*
D03*
D39*
X365810Y332402D02*
D03*
X362660D02*
D03*
X359511D02*
D03*
X356361D02*
D03*
X353212D02*
D03*
X350062D02*
D03*
X346912D02*
D03*
X343763D02*
D03*
X340613D02*
D03*
X337464D02*
D03*
X334314D02*
D03*
X331164D02*
D03*
X328015D02*
D03*
X324865D02*
D03*
X321716D02*
D03*
X318566D02*
D03*
Y392795D02*
D03*
X321716D02*
D03*
X324865D02*
D03*
X328015D02*
D03*
X331164D02*
D03*
X334314D02*
D03*
X337464D02*
D03*
X340613D02*
D03*
X343763D02*
D03*
X346912D02*
D03*
X350062D02*
D03*
X353212D02*
D03*
X356361D02*
D03*
X359511D02*
D03*
X362660D02*
D03*
X365810D02*
D03*
D40*
X254724Y362340D02*
D03*
X247244D02*
D03*
X380315Y391732D02*
D03*
X387795D02*
D03*
D41*
X326437Y273622D02*
D03*
X339311D02*
D03*
X489311Y48622D02*
D03*
X476437D02*
D03*
X414311D02*
D03*
X401437D02*
D03*
X339311D02*
D03*
X326437D02*
D03*
X264311D02*
D03*
X251437D02*
D03*
X489311Y123622D02*
D03*
X476437D02*
D03*
X414311D02*
D03*
X401437D02*
D03*
X339311D02*
D03*
X326437D02*
D03*
X264311D02*
D03*
X251437D02*
D03*
X489311Y198622D02*
D03*
X476437D02*
D03*
X414311D02*
D03*
X401437D02*
D03*
X339311D02*
D03*
X326437D02*
D03*
X264311D02*
D03*
X251437D02*
D03*
X264311Y273622D02*
D03*
X251437D02*
D03*
X489311D02*
D03*
X476437D02*
D03*
X414311D02*
D03*
X401437D02*
D03*
D42*
X298031Y337402D02*
D03*
X269685D02*
D03*
X298031Y349213D02*
D03*
X269685D02*
D03*
D43*
X290551Y379528D02*
D03*
X299213D02*
D03*
X290551Y388189D02*
D03*
X299213D02*
D03*
D44*
X481496Y367717D02*
D03*
Y361614D02*
D03*
X451968Y367323D02*
D03*
Y361221D02*
D03*
D45*
X363681Y371395D02*
X364604Y370472D01*
X372385D01*
X363681Y371395D02*
Y378117D01*
D46*
X351969Y387008D02*
X366535D01*
X371260Y391732D01*
X350145Y388832D02*
X351969Y387008D01*
X371260Y391732D02*
X380315D01*
D47*
X372952Y377339D02*
X376157D01*
X377589Y378770D01*
Y379935D01*
X380709Y383054D01*
M02*
