G04*
G04 #@! TF.GenerationSoftware,Altium Limited,Altium Designer,22.4.2 (48)*
G04*
G04 Layer_Physical_Order=1*
G04 Layer_Color=255*
%FSLAX25Y25*%
%MOIN*%
G70*
G04*
G04 #@! TF.SameCoordinates,D4448EEE-889B-48FB-A541-E9576EB43F8F*
G04*
G04*
G04 #@! TF.FilePolarity,Positive*
G04*
G01*
G75*
%ADD12C,0.01000*%
%ADD13R,0.05118X0.02756*%
%ADD14R,0.05118X0.03543*%
%ADD15R,0.03543X0.05118*%
%ADD26C,0.01968*%
%ADD27C,0.02461*%
%ADD28C,0.08858*%
%ADD29C,0.06693*%
%ADD30C,0.15700*%
%ADD31C,0.02559*%
%ADD32C,0.05575*%
%ADD33R,0.05575X0.05575*%
%ADD34C,0.05000*%
G36*
X510236Y360236D02*
Y327559D01*
X454003D01*
X396884Y384679D01*
X396146Y385172D01*
X395276Y385345D01*
X368302D01*
X367432Y385172D01*
X366695Y384679D01*
X364387Y382371D01*
X364142Y382437D01*
X363220D01*
X362330Y382199D01*
X361532Y381738D01*
X360880Y381086D01*
X360420Y380288D01*
X360181Y379398D01*
Y378476D01*
X360420Y377586D01*
X360880Y376788D01*
X361532Y376136D01*
X362330Y375676D01*
X363220Y375437D01*
X364142D01*
X365032Y375676D01*
X365830Y376136D01*
X366482Y376788D01*
X366943Y377586D01*
X367181Y378476D01*
Y378733D01*
X369245Y380797D01*
X394334D01*
X447110Y328021D01*
X446918Y327559D01*
X403849D01*
Y350787D01*
X403676Y351658D01*
X403183Y352395D01*
X396807Y358771D01*
Y359122D01*
X396569Y360012D01*
X396108Y360810D01*
X395456Y361462D01*
X394658Y361923D01*
X393768Y362161D01*
X392846D01*
X391956Y361923D01*
X391158Y361462D01*
X390506Y360810D01*
X390046Y360012D01*
X389807Y359122D01*
Y358201D01*
X390046Y357311D01*
X390506Y356512D01*
X391158Y355861D01*
X391956Y355400D01*
X392846Y355161D01*
X393768D01*
X393939Y355207D01*
X399301Y349846D01*
Y327559D01*
X392205D01*
X391833Y310617D01*
X390778Y310335D01*
X389541Y309620D01*
X388949Y309028D01*
X380473Y308950D01*
X380118Y309302D01*
Y327274D01*
X380224Y327559D01*
X379833D01*
Y331342D01*
X393810Y345319D01*
X394555D01*
X395445Y345557D01*
X396244Y346018D01*
X396895Y346670D01*
X397356Y347468D01*
X397594Y348358D01*
Y349280D01*
X397356Y350170D01*
X396895Y350968D01*
X396244Y351620D01*
X395445Y352080D01*
X394555Y352319D01*
X393634D01*
X392743Y352080D01*
X391945Y351620D01*
X391294Y350968D01*
X390833Y350170D01*
X390595Y349280D01*
Y348535D01*
X375951Y333891D01*
X375458Y333154D01*
X375285Y332283D01*
Y327559D01*
X373140D01*
Y344727D01*
X375351Y346939D01*
X375687D01*
X375879Y346810D01*
X376749Y346637D01*
X379373D01*
X379581Y346276D01*
X380233Y345624D01*
X381031Y345164D01*
X381921Y344925D01*
X382843D01*
X383733Y345164D01*
X384531Y345624D01*
X385183Y346276D01*
X385643Y347074D01*
X385882Y347964D01*
Y348886D01*
X385643Y349776D01*
X385183Y350574D01*
X384531Y351226D01*
X383733Y351687D01*
X382843Y351925D01*
X381921D01*
X381031Y351687D01*
X380233Y351226D01*
X380192Y351185D01*
X377510D01*
X377318Y351313D01*
X376448Y351487D01*
X374410D01*
X373539Y351313D01*
X372801Y350821D01*
X369258Y347277D01*
X368765Y346539D01*
X368592Y345669D01*
Y327559D01*
X367771D01*
Y350656D01*
X367617Y351430D01*
X367179Y352087D01*
X365592Y353673D01*
X365803Y354461D01*
Y355382D01*
X365565Y356272D01*
X365104Y357070D01*
X364452Y357722D01*
X363654Y358183D01*
X362764Y358421D01*
X361842D01*
X360952Y358183D01*
X360154Y357722D01*
X359502Y357070D01*
X359042Y356272D01*
X358803Y355382D01*
Y354461D01*
X359042Y353570D01*
X359502Y352772D01*
X360154Y352121D01*
X360952Y351660D01*
X361842Y351421D01*
X362122D01*
X363725Y349818D01*
Y346839D01*
X363225Y346705D01*
X363037Y347031D01*
X362385Y347683D01*
X361587Y348143D01*
X360697Y348382D01*
X359775D01*
X358885Y348143D01*
X358087Y347683D01*
X357435Y347031D01*
X356975Y346233D01*
X356736Y345343D01*
Y344421D01*
X356819Y344114D01*
X356370Y343855D01*
X356086Y344139D01*
X355466Y344497D01*
Y346441D01*
X356315D01*
Y353559D01*
X355152D01*
Y354155D01*
X354998Y354929D01*
X354559Y355585D01*
X350766Y359378D01*
X350312Y359682D01*
X350464Y360182D01*
X378354D01*
X378597Y359760D01*
X379249Y359109D01*
X380047Y358648D01*
X380937Y358410D01*
X381858D01*
X382749Y358648D01*
X383547Y359109D01*
X384198Y359760D01*
X384659Y360559D01*
X384898Y361449D01*
Y362370D01*
X384659Y363260D01*
X384198Y364058D01*
X383547Y364710D01*
X382749Y365171D01*
X381858Y365409D01*
X380937D01*
X380047Y365171D01*
X379249Y364710D01*
X378766Y364228D01*
X316142D01*
X315368Y364074D01*
X314711Y363635D01*
X297388Y346312D01*
X296950Y345656D01*
X296796Y344882D01*
Y337452D01*
X291288Y331944D01*
X274737D01*
X273963Y331790D01*
X273306Y331352D01*
X269514Y327559D01*
X245208D01*
X245016Y328021D01*
X263813Y346817D01*
X263865Y346896D01*
X279512D01*
Y346047D01*
X282571D01*
Y348425D01*
Y350803D01*
X279512D01*
Y349955D01*
X263865D01*
X263813Y350033D01*
X263075Y350526D01*
X262205Y350699D01*
X261334Y350526D01*
X260597Y350033D01*
X238123Y327559D01*
X231062D01*
X230709Y327913D01*
X230709Y330709D01*
X230709Y388233D01*
X241094D01*
Y383378D01*
X248669D01*
Y388233D01*
X355191D01*
X355382Y387771D01*
X351353Y383742D01*
X350915Y383086D01*
X350761Y382311D01*
Y380681D01*
X350915Y379907D01*
X351353Y379250D01*
X361168Y369436D01*
X361824Y368997D01*
X362598Y368843D01*
X389800D01*
X389807Y368836D01*
Y368437D01*
X390046Y367547D01*
X390506Y366749D01*
X391158Y366097D01*
X391956Y365636D01*
X392846Y365398D01*
X393768D01*
X394658Y365636D01*
X395456Y366097D01*
X396108Y366749D01*
X396569Y367547D01*
X396807Y368437D01*
Y369358D01*
X396569Y370249D01*
X396108Y371047D01*
X395456Y371698D01*
X394658Y372159D01*
X393768Y372398D01*
X392846D01*
X392154Y372212D01*
X392069Y372297D01*
X391412Y372735D01*
X390638Y372889D01*
X363436D01*
X354830Y381496D01*
X361566Y388233D01*
X486614D01*
X510236Y360236D01*
D02*
G37*
G36*
X350494Y353929D02*
X350772Y353559D01*
X350772D01*
X350772Y353559D01*
Y346441D01*
X352408D01*
Y344497D01*
X351788Y344139D01*
X351136Y343488D01*
X350676Y342689D01*
X350600Y342407D01*
X350313Y342342D01*
X350071Y342366D01*
X349651Y343094D01*
X348999Y343746D01*
X348201Y344206D01*
X347311Y344445D01*
X347199D01*
Y346441D01*
X348835D01*
Y353559D01*
X343291D01*
Y346441D01*
X344140D01*
Y343208D01*
X344144Y343188D01*
X344050Y343094D01*
X343589Y342296D01*
X343350Y341406D01*
Y340484D01*
X343589Y339594D01*
X344050Y338796D01*
X344701Y338144D01*
X345499Y337683D01*
X346390Y337445D01*
X347311D01*
X348201Y337683D01*
X348999Y338144D01*
X349651Y338796D01*
X350112Y339594D01*
X350188Y339877D01*
X350474Y339942D01*
X350716Y339917D01*
X351136Y339190D01*
X351788Y338538D01*
X352586Y338077D01*
X353476Y337839D01*
X354398D01*
X355288Y338077D01*
X356086Y338538D01*
X356675Y339127D01*
X357175Y339038D01*
Y327559D01*
X328795D01*
Y336890D01*
X328921Y336963D01*
X329572Y337615D01*
X330033Y338413D01*
X330272Y339303D01*
Y340225D01*
X330033Y341115D01*
X329572Y341913D01*
X328921Y342565D01*
X328123Y343025D01*
X327232Y343264D01*
X326311D01*
X325421Y343025D01*
X324623Y342565D01*
X323971Y341913D01*
X323510Y341115D01*
X323272Y340225D01*
Y339303D01*
X323510Y338413D01*
X323971Y337615D01*
X324623Y336963D01*
X324748Y336890D01*
Y327559D01*
X300621D01*
X300430Y328021D01*
X318389Y345980D01*
X319122Y345557D01*
X319972Y345329D01*
Y348819D01*
X320972D01*
Y345329D01*
X321823Y345557D01*
X322621Y346018D01*
X323273Y346670D01*
X323734Y347468D01*
X323799Y347710D01*
X326489D01*
Y346961D01*
X329548D01*
Y349733D01*
Y352505D01*
X326489D01*
Y351756D01*
X322385D01*
X321823Y352080D01*
X320933Y352319D01*
X320285D01*
X320219Y352819D01*
X321036Y353038D01*
X321834Y353499D01*
X322486Y354150D01*
X322947Y354948D01*
X323011Y355190D01*
X326489D01*
Y354442D01*
X333607D01*
Y355925D01*
X348498D01*
X350494Y353929D01*
D02*
G37*
G36*
X363725Y342924D02*
Y327559D01*
X361723D01*
Y341538D01*
X361851Y341730D01*
X361861Y341778D01*
X362385Y342081D01*
X363037Y342733D01*
X363225Y343058D01*
X363725Y342924D01*
D02*
G37*
G36*
X318785Y359682D02*
X318334Y359561D01*
X317536Y359100D01*
X316884Y358448D01*
X316424Y357650D01*
X316185Y356760D01*
Y355838D01*
X316424Y354948D01*
X316884Y354150D01*
X317536Y353499D01*
X318334Y353038D01*
X319224Y352799D01*
X319872D01*
X319938Y352299D01*
X319122Y352080D01*
X318323Y351620D01*
X317672Y350968D01*
X317455Y350593D01*
X316656Y350434D01*
X315918Y349941D01*
X293536Y327559D01*
X292984D01*
X292900Y328052D01*
X293557Y328491D01*
X300250Y335184D01*
X300688Y335840D01*
X300842Y336614D01*
Y344044D01*
X316980Y360182D01*
X318720D01*
X318785Y359682D01*
D02*
G37*
%LPC*%
G36*
X482166Y383559D02*
X481259D01*
X480421Y383212D01*
X479780Y382571D01*
X479433Y381733D01*
Y380826D01*
X479780Y379988D01*
X480421Y379347D01*
X481259Y379000D01*
X482166D01*
X483004Y379347D01*
X483645Y379988D01*
X483992Y380826D01*
Y381733D01*
X483645Y382571D01*
X483004Y383212D01*
X482166Y383559D01*
D02*
G37*
G36*
X459410D02*
X458503D01*
X457665Y383212D01*
X457024Y382571D01*
X456677Y381733D01*
Y380826D01*
X457024Y379988D01*
X457665Y379347D01*
X458503Y379000D01*
X459410D01*
X460248Y379347D01*
X460889Y379988D01*
X461236Y380826D01*
Y381733D01*
X460889Y382571D01*
X460248Y383212D01*
X459410Y383559D01*
D02*
G37*
G36*
X245380Y380953D02*
X244383D01*
X243420Y380695D01*
X242556Y380196D01*
X241851Y379491D01*
X241353Y378627D01*
X241094Y377664D01*
Y376667D01*
X241353Y375704D01*
X241851Y374840D01*
X242556Y374135D01*
X243420Y373636D01*
X244383Y373378D01*
X245380D01*
X246344Y373636D01*
X247207Y374135D01*
X247913Y374840D01*
X248411Y375704D01*
X248669Y376667D01*
Y377664D01*
X248411Y378627D01*
X247913Y379491D01*
X247207Y380196D01*
X246344Y380695D01*
X245380Y380953D01*
D02*
G37*
G36*
X272941Y363726D02*
Y360736D01*
X275930D01*
X275702Y361587D01*
X275242Y362385D01*
X274590Y363037D01*
X273792Y363498D01*
X272941Y363726D01*
D02*
G37*
G36*
X271941D02*
X271090Y363498D01*
X270292Y363037D01*
X269640Y362385D01*
X269180Y361587D01*
X268952Y360736D01*
X271941D01*
Y363726D01*
D02*
G37*
G36*
X275930Y359736D02*
X272941D01*
Y356747D01*
X273792Y356975D01*
X274590Y357435D01*
X275242Y358087D01*
X275702Y358885D01*
X275930Y359736D01*
D02*
G37*
G36*
X271941D02*
X268952D01*
X269180Y358885D01*
X269640Y358087D01*
X270292Y357435D01*
X271090Y356975D01*
X271941Y356747D01*
Y359736D01*
D02*
G37*
G36*
X489870Y358214D02*
Y355224D01*
X492860D01*
X492632Y356075D01*
X492171Y356873D01*
X491519Y357525D01*
X490721Y357986D01*
X489870Y358214D01*
D02*
G37*
G36*
X488870D02*
X488019Y357986D01*
X487221Y357525D01*
X486569Y356873D01*
X486109Y356075D01*
X485881Y355224D01*
X488870D01*
Y358214D01*
D02*
G37*
G36*
X492860Y354224D02*
X489870D01*
Y351235D01*
X490721Y351463D01*
X491519Y351924D01*
X492171Y352575D01*
X492632Y353374D01*
X492860Y354224D01*
D02*
G37*
G36*
X463059Y370823D02*
X462138D01*
X461247Y370584D01*
X460449Y370124D01*
X459798Y369472D01*
X459337Y368674D01*
X459098Y367784D01*
Y366862D01*
X459337Y365972D01*
X459798Y365174D01*
X460449Y364522D01*
X461247Y364061D01*
X462138Y363823D01*
X463059D01*
X463949Y364061D01*
X464747Y364522D01*
X465399Y365174D01*
X465860Y365972D01*
X465948Y366300D01*
X468152D01*
X470124Y364327D01*
Y354733D01*
X469504Y354376D01*
X468853Y353724D01*
X468392Y352926D01*
X468153Y352036D01*
Y351114D01*
X468392Y350224D01*
X468853Y349426D01*
X469399Y348880D01*
X469249Y348380D01*
X454733D01*
X454376Y348999D01*
X453724Y349651D01*
X452926Y350112D01*
X452075Y350340D01*
Y346850D01*
Y343361D01*
X452926Y343589D01*
X453724Y344050D01*
X454376Y344701D01*
X454733Y345321D01*
X481496D01*
X482081Y345437D01*
X482578Y345769D01*
X488218Y351410D01*
X488870Y351235D01*
Y354224D01*
X485881D01*
X486055Y353573D01*
X480863Y348380D01*
X474058D01*
X473908Y348880D01*
X474454Y349426D01*
X474915Y350224D01*
X475153Y351114D01*
Y352036D01*
X474915Y352926D01*
X474454Y353724D01*
X473803Y354376D01*
X473183Y354733D01*
Y364961D01*
X473067Y365546D01*
X472735Y366042D01*
X469867Y368910D01*
X469371Y369242D01*
X468785Y369358D01*
X465465D01*
X465399Y369472D01*
X464747Y370124D01*
X463949Y370584D01*
X463059Y370823D01*
D02*
G37*
G36*
X286630Y350803D02*
X283571D01*
Y348925D01*
X286630D01*
Y350803D01*
D02*
G37*
G36*
X451075Y350340D02*
X450224Y350112D01*
X449426Y349651D01*
X448774Y348999D01*
X448313Y348201D01*
X448085Y347350D01*
X451075D01*
Y350340D01*
D02*
G37*
G36*
X286630Y347925D02*
X283571D01*
Y346047D01*
X286630D01*
Y347925D01*
D02*
G37*
G36*
X451075Y346350D02*
X448085D01*
X448313Y345499D01*
X448774Y344701D01*
X449426Y344050D01*
X450224Y343589D01*
X451075Y343361D01*
Y346350D01*
D02*
G37*
G36*
X409793Y345616D02*
Y342626D01*
X412782D01*
X412554Y343477D01*
X412093Y344275D01*
X411442Y344927D01*
X410644Y345388D01*
X409793Y345616D01*
D02*
G37*
G36*
X408793D02*
X407942Y345388D01*
X407144Y344927D01*
X406492Y344275D01*
X406031Y343477D01*
X405803Y342626D01*
X408793D01*
Y345616D01*
D02*
G37*
G36*
X412782Y341626D02*
X409793D01*
Y338636D01*
X410644Y338864D01*
X411442Y339325D01*
X412093Y339977D01*
X412554Y340775D01*
X412782Y341626D01*
D02*
G37*
G36*
X408793D02*
X405803D01*
X406031Y340775D01*
X406492Y339977D01*
X407144Y339325D01*
X407942Y338864D01*
X408793Y338636D01*
Y341626D01*
D02*
G37*
G36*
X286630Y343323D02*
X279512D01*
Y338567D01*
X283414D01*
X284219Y337762D01*
X284957Y337269D01*
X285827Y337096D01*
X287875D01*
X288402Y336569D01*
X289200Y336109D01*
X290090Y335870D01*
X291012D01*
X291902Y336109D01*
X292700Y336569D01*
X293352Y337221D01*
X293813Y338019D01*
X294051Y338909D01*
Y339831D01*
X293813Y340721D01*
X293352Y341519D01*
X292700Y342171D01*
X291902Y342632D01*
X291012Y342870D01*
X290090D01*
X289200Y342632D01*
X288402Y342171D01*
X287875Y341644D01*
X286769D01*
X286630Y341783D01*
Y343323D01*
D02*
G37*
G36*
X386622Y320123D02*
Y317134D01*
X389612D01*
X389384Y317985D01*
X388923Y318783D01*
X388271Y319435D01*
X387473Y319895D01*
X386622Y320123D01*
D02*
G37*
G36*
X385622D02*
X384771Y319895D01*
X383973Y319435D01*
X383321Y318783D01*
X382861Y317985D01*
X382633Y317134D01*
X385622D01*
Y320123D01*
D02*
G37*
G36*
X389612Y316134D02*
X386622D01*
Y313144D01*
X387473Y313372D01*
X388271Y313833D01*
X388923Y314485D01*
X389384Y315283D01*
X389612Y316134D01*
D02*
G37*
G36*
X385622D02*
X382633D01*
X382861Y315283D01*
X383321Y314485D01*
X383973Y313833D01*
X384771Y313372D01*
X385622Y313144D01*
Y316134D01*
D02*
G37*
G36*
X333607Y352505D02*
X330548D01*
Y350233D01*
X333607D01*
Y352505D01*
D02*
G37*
G36*
Y349233D02*
X330548D01*
Y346961D01*
X333607D01*
Y349233D01*
D02*
G37*
%LPD*%
D12*
X262205Y348425D02*
X283071D01*
X353937Y341339D02*
Y350000D01*
X467874Y228162D02*
Y230276D01*
Y153556D02*
Y155276D01*
X392874Y303149D02*
Y305276D01*
X463104Y367829D02*
X468785D01*
X471654Y353543D02*
Y364961D01*
X468785Y367829D02*
X471654Y364961D01*
X451575Y346850D02*
X481496D01*
X489370Y354724D01*
X283071Y340945D02*
X284252D01*
X345669Y343208D02*
Y350000D01*
X346850Y340945D02*
Y342027D01*
X345669Y343208D02*
X346850Y342027D01*
X462598Y367323D02*
X463104Y367829D01*
D13*
X283071Y340945D02*
D03*
Y348425D02*
D03*
D14*
X330048Y349733D02*
D03*
Y357213D02*
D03*
D15*
X346063Y350000D02*
D03*
X353543D02*
D03*
D26*
X316142Y362205D02*
X381102D01*
X381398Y361910D01*
X322207Y349733D02*
X330048D01*
X320472Y348819D02*
X321293D01*
X322207Y349733D01*
X320505Y356299D02*
X321420Y357213D01*
X330048D01*
X319685Y356299D02*
X320505D01*
X330048Y357213D02*
X330782Y357948D01*
X298819Y344882D02*
X316142Y362205D01*
X362303Y354101D02*
X365748Y350656D01*
Y210937D02*
Y350656D01*
X362303Y354101D02*
Y354921D01*
X253543Y325197D02*
X270013D01*
X243307Y314961D02*
X253543Y325197D01*
X363779Y208968D02*
X365748Y210937D01*
X330782Y357948D02*
X349336D01*
X353129Y354155D01*
Y350415D02*
X353543Y350000D01*
X353129Y350415D02*
Y354155D01*
X352784Y380681D02*
X362598Y370866D01*
X352784Y380681D02*
Y382311D01*
X363779Y393307D02*
X400787D01*
X352784Y382311D02*
X363779Y393307D01*
X362598Y370866D02*
X390638D01*
X392607Y368898D01*
X393307D01*
X363779Y208268D02*
Y208968D01*
X292126Y329921D02*
X298819Y336614D01*
X274737Y329921D02*
X292126D01*
X270013Y325197D02*
X274737Y329921D01*
X298819Y336614D02*
Y344882D01*
X242874Y228162D02*
Y265514D01*
Y190514D02*
X245276Y192915D01*
Y225761D01*
X242874Y228162D02*
X245276Y225761D01*
X242874Y265514D02*
X245669Y268309D01*
X242874Y303149D02*
X245669Y300354D01*
Y268309D02*
Y300354D01*
X242874Y80276D02*
Y115514D01*
X245669Y118309D01*
Y150761D01*
X242874Y153556D02*
Y190514D01*
Y153556D02*
X245669Y150761D01*
X317874Y228162D02*
Y265514D01*
Y190514D02*
X320276Y192915D01*
Y225761D01*
X317874Y228162D02*
X320276Y225761D01*
X317874Y265514D02*
X320669Y268309D01*
X317874Y303149D02*
X320669Y300354D01*
Y268309D02*
Y300354D01*
X317874Y80276D02*
Y115514D01*
X320669Y118309D01*
Y150761D01*
X317874Y153556D02*
Y190514D01*
Y153556D02*
X320669Y150761D01*
X326772Y314165D02*
Y339764D01*
X317874Y305268D02*
X326772Y314165D01*
D27*
X368302Y383071D02*
X395276D01*
X363681Y378937D02*
X364169D01*
X368302Y383071D01*
X376448Y349213D02*
X376749Y348911D01*
X374410Y349213D02*
X376448D01*
X381896Y348911D02*
X382382Y348425D01*
X376749Y348911D02*
X381896D01*
X319987Y348333D02*
X320472Y348819D01*
X292421Y323228D02*
X317526Y348333D01*
X319987D01*
X237697Y323917D02*
X262205Y348425D01*
X377559Y61811D02*
Y332283D01*
X394094Y348819D01*
X395276Y383071D02*
X467191Y311155D01*
Y305958D02*
X467874Y305276D01*
X467191Y305958D02*
Y311155D01*
X392874Y305268D02*
X401575Y313968D01*
X393701Y358661D02*
X401575Y350787D01*
Y313968D02*
Y350787D01*
X393307Y358661D02*
X393701D01*
X358661Y293491D02*
X359449Y294279D01*
X357480Y287695D02*
X358661Y288876D01*
X359449Y294279D02*
Y342299D01*
X357480Y287008D02*
Y287695D01*
X358661Y288876D02*
Y293491D01*
X359449Y342299D02*
X359750Y342600D01*
Y344396D01*
X360236Y344882D01*
X370866Y345669D02*
X374410Y349213D01*
X368522Y135809D02*
Y136176D01*
X370866Y138520D02*
Y345669D01*
X368522Y136176D02*
X370866Y138520D01*
X467874Y230276D02*
Y265514D01*
Y155276D02*
Y190514D01*
X470276Y192915D01*
Y225761D01*
X467874Y228162D02*
X470276Y225761D01*
X467874Y265514D02*
X470669Y268309D01*
X467874Y303149D02*
X470669Y300354D01*
Y268309D02*
Y300354D01*
X467874Y80276D02*
Y115514D01*
X470669Y118309D01*
Y150761D01*
X467874Y153556D02*
X470669Y150761D01*
X392874Y153556D02*
X395669Y150761D01*
X392874Y153556D02*
Y190514D01*
X395669Y118309D02*
Y150761D01*
X392874Y115514D02*
X395669Y118309D01*
X392874Y80276D02*
Y115514D01*
X395669Y268309D02*
Y300354D01*
X392874Y303149D02*
X395669Y300354D01*
X392874Y265514D02*
X395669Y268309D01*
X392874Y228162D02*
X395276Y225761D01*
Y192915D02*
Y225761D01*
X392874Y190514D02*
X395276Y192915D01*
X392874Y228162D02*
Y265514D01*
X284252Y340945D02*
X285827Y339370D01*
X290551D01*
D28*
X242874Y305276D02*
D03*
X267756Y315276D02*
D03*
X342756D02*
D03*
X317874Y305276D02*
D03*
X392874D02*
D03*
X417756Y315276D02*
D03*
X492756D02*
D03*
X467874Y305276D02*
D03*
X242874Y230276D02*
D03*
X267756Y240276D02*
D03*
X342756D02*
D03*
X317874Y230276D02*
D03*
X392874D02*
D03*
X417756Y240276D02*
D03*
X492756D02*
D03*
X467874Y230276D02*
D03*
X242874Y155276D02*
D03*
X267756Y165276D02*
D03*
X342756D02*
D03*
X317874Y155276D02*
D03*
X392874D02*
D03*
X417756Y165276D02*
D03*
X492756D02*
D03*
X467874Y155276D02*
D03*
X242874Y80276D02*
D03*
X267756Y90276D02*
D03*
X342756D02*
D03*
X317874Y80276D02*
D03*
X392874D02*
D03*
X417756Y90276D02*
D03*
X492756D02*
D03*
X467874Y80276D02*
D03*
D29*
X277559Y295276D02*
D03*
X238189D02*
D03*
X313189D02*
D03*
X352559D02*
D03*
X427559D02*
D03*
X388189D02*
D03*
X463189D02*
D03*
X502559D02*
D03*
X277559Y220276D02*
D03*
X238189D02*
D03*
X313189D02*
D03*
X352559D02*
D03*
X427559D02*
D03*
X388189D02*
D03*
X463189D02*
D03*
X502559D02*
D03*
X277559Y145276D02*
D03*
X238189D02*
D03*
X313189D02*
D03*
X352559D02*
D03*
X427559D02*
D03*
X388189D02*
D03*
X463189D02*
D03*
X502559D02*
D03*
X277559Y70276D02*
D03*
X238189D02*
D03*
X313189D02*
D03*
X352559D02*
D03*
X427559D02*
D03*
X388189D02*
D03*
X463189D02*
D03*
X502559D02*
D03*
D30*
X257874Y295276D02*
D03*
X332874D02*
D03*
X407874D02*
D03*
X482874D02*
D03*
X257874Y220276D02*
D03*
X332874D02*
D03*
X407874D02*
D03*
X482874D02*
D03*
X257874Y145276D02*
D03*
X332874D02*
D03*
X407874D02*
D03*
X482874D02*
D03*
X257874Y70276D02*
D03*
X332874D02*
D03*
X407874D02*
D03*
X482874D02*
D03*
D31*
X481713Y381279D02*
D03*
X458957D02*
D03*
D32*
X244882Y377165D02*
D03*
D33*
Y387165D02*
D03*
D34*
X381398Y361910D02*
D03*
X363681Y378937D02*
D03*
X382382Y348425D02*
D03*
X362303Y354921D02*
D03*
X237697Y323917D02*
D03*
X292421Y323228D02*
D03*
X386122Y316634D02*
D03*
X400787Y393307D02*
D03*
X393307Y368898D02*
D03*
Y358661D02*
D03*
X409293Y342126D02*
D03*
X272441Y360236D02*
D03*
X377559Y61811D02*
D03*
X394094Y348819D02*
D03*
X368522Y135809D02*
D03*
X363779Y208268D02*
D03*
X357480Y287008D02*
D03*
X360236Y344882D02*
D03*
X326772Y339764D02*
D03*
X243307Y314961D02*
D03*
X451575Y346850D02*
D03*
X489370Y354724D02*
D03*
X290551Y339370D02*
D03*
X320472Y348819D02*
D03*
X319685Y356299D02*
D03*
X353937Y341339D02*
D03*
X346850Y340945D02*
D03*
X462598Y367323D02*
D03*
X471654Y351575D02*
D03*
M02*
