G04*
G04 #@! TF.GenerationSoftware,Altium Limited,Altium Designer,22.4.2 (48)*
G04*
G04 Layer_Color=255*
%FSLAX25Y25*%
%MOIN*%
G70*
G04*
G04 #@! TF.SameCoordinates,D4448EEE-889B-48FB-A541-E9576EB43F8F*
G04*
G04*
G04 #@! TF.FilePolarity,Positive*
G04*
G01*
G75*
%ADD13R,0.05118X0.02756*%
%ADD14R,0.05118X0.03543*%
%ADD15R,0.03543X0.05118*%
%ADD28C,0.08858*%
%ADD29C,0.06693*%
%ADD30C,0.15700*%
%ADD31C,0.02559*%
%ADD32C,0.05575*%
%ADD33R,0.05575X0.05575*%
D13*
X283071Y340945D02*
D03*
Y348425D02*
D03*
D14*
X330048Y349733D02*
D03*
Y357213D02*
D03*
D15*
X346063Y350000D02*
D03*
X353543D02*
D03*
D28*
X242874Y305276D02*
D03*
X267756Y315276D02*
D03*
X342756D02*
D03*
X317874Y305276D02*
D03*
X392874D02*
D03*
X417756Y315276D02*
D03*
X492756D02*
D03*
X467874Y305276D02*
D03*
X242874Y230276D02*
D03*
X267756Y240276D02*
D03*
X342756D02*
D03*
X317874Y230276D02*
D03*
X392874D02*
D03*
X417756Y240276D02*
D03*
X492756D02*
D03*
X467874Y230276D02*
D03*
X242874Y155276D02*
D03*
X267756Y165276D02*
D03*
X342756D02*
D03*
X317874Y155276D02*
D03*
X392874D02*
D03*
X417756Y165276D02*
D03*
X492756D02*
D03*
X467874Y155276D02*
D03*
X242874Y80276D02*
D03*
X267756Y90276D02*
D03*
X342756D02*
D03*
X317874Y80276D02*
D03*
X392874D02*
D03*
X417756Y90276D02*
D03*
X492756D02*
D03*
X467874Y80276D02*
D03*
D29*
X277559Y295276D02*
D03*
X238189D02*
D03*
X313189D02*
D03*
X352559D02*
D03*
X427559D02*
D03*
X388189D02*
D03*
X463189D02*
D03*
X502559D02*
D03*
X277559Y220276D02*
D03*
X238189D02*
D03*
X313189D02*
D03*
X352559D02*
D03*
X427559D02*
D03*
X388189D02*
D03*
X463189D02*
D03*
X502559D02*
D03*
X277559Y145276D02*
D03*
X238189D02*
D03*
X313189D02*
D03*
X352559D02*
D03*
X427559D02*
D03*
X388189D02*
D03*
X463189D02*
D03*
X502559D02*
D03*
X277559Y70276D02*
D03*
X238189D02*
D03*
X313189D02*
D03*
X352559D02*
D03*
X427559D02*
D03*
X388189D02*
D03*
X463189D02*
D03*
X502559D02*
D03*
D30*
X257874Y295276D02*
D03*
X332874D02*
D03*
X407874D02*
D03*
X482874D02*
D03*
X257874Y220276D02*
D03*
X332874D02*
D03*
X407874D02*
D03*
X482874D02*
D03*
X257874Y145276D02*
D03*
X332874D02*
D03*
X407874D02*
D03*
X482874D02*
D03*
X257874Y70276D02*
D03*
X332874D02*
D03*
X407874D02*
D03*
X482874D02*
D03*
D31*
X481713Y381279D02*
D03*
X458957D02*
D03*
D32*
X244882Y377165D02*
D03*
D33*
Y387165D02*
D03*
M02*
