G04*
G04 #@! TF.GenerationSoftware,Altium Limited,Altium Designer,22.4.2 (48)*
G04*
G04 Layer_Color=32896*
%FSLAX25Y25*%
%MOIN*%
G70*
G04*
G04 #@! TF.SameCoordinates,D4448EEE-889B-48FB-A541-E9576EB43F8F*
G04*
G04*
G04 #@! TF.FilePolarity,Positive*
G04*
G01*
G75*
%ADD10C,0.00787*%
%ADD11C,0.00500*%
%ADD12C,0.01000*%
D10*
X455847Y372500D02*
G03*
X455847Y372500I-394J0D01*
G01*
X366204Y325827D02*
G03*
X366204Y325827I-394J0D01*
G01*
X487933Y384665D02*
Y389429D01*
X452736Y384665D02*
Y389429D01*
X487933Y400138D02*
Y406004D01*
X452736D02*
X487933D01*
X452736Y400138D02*
Y406004D01*
X494488Y363009D02*
X501575D01*
Y349623D02*
Y363009D01*
X494488Y349623D02*
X501575D01*
X494488D02*
Y363009D01*
X244685Y366277D02*
X257283D01*
X244685Y358403D02*
Y366277D01*
Y358403D02*
X257283D01*
Y366277D01*
X324213Y269685D02*
X343898D01*
X323031Y270866D02*
X324213Y269685D01*
X323031Y270866D02*
Y276378D01*
X324213Y277559D02*
X343898D01*
X323031Y276378D02*
X324213Y277559D01*
X343898Y269685D02*
Y277559D01*
X342323Y269685D02*
Y277559D01*
X264961Y333071D02*
X302756D01*
X264961D02*
Y353543D01*
X302756D01*
Y333071D02*
Y353543D01*
X446260Y358268D02*
Y365354D01*
X432874Y358268D02*
X446260D01*
X432874D02*
Y365354D01*
X446260D01*
X276378Y364764D02*
Y378150D01*
X269291D02*
X276378D01*
X269291Y364764D02*
Y378150D01*
Y364764D02*
X276378D01*
X492323Y44685D02*
Y52559D01*
X493898Y44685D02*
Y52559D01*
X473032Y51378D02*
X474213Y52559D01*
X493898D01*
X473032Y45866D02*
Y51378D01*
Y45866D02*
X474213Y44685D01*
X493898D01*
X417323D02*
Y52559D01*
X418898Y44685D02*
Y52559D01*
X398031Y51378D02*
X399213Y52559D01*
X418898D01*
X398031Y45866D02*
Y51378D01*
Y45866D02*
X399213Y44685D01*
X418898D01*
X342323D02*
Y52559D01*
X343898Y44685D02*
Y52559D01*
X323031Y51378D02*
X324213Y52559D01*
X343898D01*
X323031Y45866D02*
Y51378D01*
Y45866D02*
X324213Y44685D01*
X343898D01*
X267323D02*
Y52559D01*
X268898Y44685D02*
Y52559D01*
X248031Y51378D02*
X249213Y52559D01*
X268898D01*
X248031Y45866D02*
Y51378D01*
Y45866D02*
X249213Y44685D01*
X268898D01*
X492323Y119685D02*
Y127559D01*
X493898Y119685D02*
Y127559D01*
X473032Y126378D02*
X474213Y127559D01*
X493898D01*
X473032Y120866D02*
Y126378D01*
Y120866D02*
X474213Y119685D01*
X493898D01*
X417323D02*
Y127559D01*
X418898Y119685D02*
Y127559D01*
X398031Y126378D02*
X399213Y127559D01*
X418898D01*
X398031Y120866D02*
Y126378D01*
Y120866D02*
X399213Y119685D01*
X418898D01*
X342323D02*
Y127559D01*
X343898Y119685D02*
Y127559D01*
X323031Y126378D02*
X324213Y127559D01*
X343898D01*
X323031Y120866D02*
Y126378D01*
Y120866D02*
X324213Y119685D01*
X343898D01*
X267323D02*
Y127559D01*
X268898Y119685D02*
Y127559D01*
X248031Y126378D02*
X249213Y127559D01*
X268898D01*
X248031Y120866D02*
Y126378D01*
Y120866D02*
X249213Y119685D01*
X268898D01*
X492323Y194685D02*
Y202559D01*
X493898Y194685D02*
Y202559D01*
X473032Y201378D02*
X474213Y202559D01*
X493898D01*
X473032Y195866D02*
Y201378D01*
Y195866D02*
X474213Y194685D01*
X493898D01*
X417323D02*
Y202559D01*
X418898Y194685D02*
Y202559D01*
X398031Y201378D02*
X399213Y202559D01*
X418898D01*
X398031Y195866D02*
Y201378D01*
Y195866D02*
X399213Y194685D01*
X418898D01*
X342323D02*
Y202559D01*
X343898Y194685D02*
Y202559D01*
X323031Y201378D02*
X324213Y202559D01*
X343898D01*
X323031Y195866D02*
Y201378D01*
Y195866D02*
X324213Y194685D01*
X343898D01*
X267323D02*
Y202559D01*
X268898Y194685D02*
Y202559D01*
X248031Y201378D02*
X249213Y202559D01*
X268898D01*
X248031Y195866D02*
Y201378D01*
Y195866D02*
X249213Y194685D01*
X268898D01*
X267323Y269685D02*
Y277559D01*
X268898Y269685D02*
Y277559D01*
X248031Y276378D02*
X249213Y277559D01*
X268898D01*
X248031Y270866D02*
Y276378D01*
Y270866D02*
X249213Y269685D01*
X268898D01*
X492323D02*
Y277559D01*
X493898Y269685D02*
Y277559D01*
X473032Y276378D02*
X474213Y277559D01*
X493898D01*
X473032Y270866D02*
Y276378D01*
Y270866D02*
X474213Y269685D01*
X493898D01*
X417323D02*
Y277559D01*
X418898Y269685D02*
Y277559D01*
X398031Y276378D02*
X399213Y277559D01*
X418898D01*
X398031Y270866D02*
Y276378D01*
Y270866D02*
X399213Y269685D01*
X418898D01*
X286221Y375984D02*
X302362D01*
X303543Y377165D01*
Y391732D01*
X286221D02*
X303543D01*
X286221Y375984D02*
Y391732D01*
X475591Y334842D02*
Y347441D01*
X467717D02*
X475591D01*
X467717Y334842D02*
Y347441D01*
Y334842D02*
X475591D01*
X485613D02*
Y347441D01*
X477739D02*
X485613D01*
X477739Y334842D02*
Y347441D01*
Y334842D02*
X485613D01*
X465354D02*
Y347441D01*
X457480D02*
X465354D01*
X457480Y334842D02*
Y347441D01*
Y334842D02*
X465354D01*
X495276Y335236D02*
Y347835D01*
X487402D02*
X495276D01*
X487402Y335236D02*
Y347835D01*
Y335236D02*
X495276D01*
X377953Y372621D02*
Y386007D01*
Y372621D02*
X385039D01*
Y386007D01*
X377953D02*
X385039D01*
X288779Y357267D02*
X302165D01*
Y364353D01*
X288779D02*
X302165D01*
X288779Y357267D02*
Y364353D01*
X385039Y331299D02*
Y344685D01*
X377953D02*
X385039D01*
X377953Y331299D02*
Y344685D01*
Y331299D02*
X385039D01*
X484646Y359154D02*
Y370177D01*
X478346Y359154D02*
X484646D01*
X478346D02*
Y370177D01*
X484646D01*
X455118Y358760D02*
Y369783D01*
X448819Y358760D02*
X455118D01*
X448819D02*
Y369783D01*
X455118D01*
X377756Y387795D02*
X390354D01*
Y395669D01*
X377756D02*
X390354D01*
X377756Y387795D02*
Y395669D01*
X288779Y366142D02*
X302165D01*
Y373228D01*
X288779D02*
X302165D01*
X288779Y366142D02*
Y373228D01*
D11*
X314629Y388563D02*
Y390158D01*
X369747Y388563D02*
Y390158D01*
X314629Y335039D02*
Y336634D01*
X369747Y335039D02*
Y336634D01*
X314629Y390158D02*
X316223D01*
X368153D02*
X369747D01*
X314629Y335039D02*
X316223D01*
X368153D02*
X369747D01*
D12*
X257361Y367867D02*
Y373865D01*
X254362D01*
X253362Y372866D01*
Y370866D01*
X254362Y369866D01*
X257361D01*
X255361D02*
X253362Y367867D01*
X251362Y373865D02*
X247364D01*
Y372866D01*
X251362Y368867D01*
Y367867D01*
X261358Y340808D02*
X262357Y339808D01*
Y337809D01*
X261358Y336809D01*
X260358D01*
X259358Y337809D01*
Y339808D01*
X258359Y340808D01*
X257359D01*
X256359Y339808D01*
Y337809D01*
X257359Y336809D01*
X262357Y342807D02*
X256359D01*
X258359Y344807D01*
X256359Y346806D01*
X262357D01*
X256359Y348805D02*
Y350805D01*
Y349805D01*
X262357D01*
X261358Y348805D01*
X346026Y382822D02*
Y377823D01*
X345027Y376824D01*
X343027D01*
X342028Y377823D01*
Y382822D01*
X340028Y376824D02*
X338029D01*
X339029D01*
Y382822D01*
X340028Y381822D01*
X284314Y387251D02*
X280315Y381253D01*
Y387251D02*
X284314Y381253D01*
X278316D02*
X276316D01*
X277316D01*
Y387251D01*
X278316Y386251D01*
X497395Y336537D02*
X503393D01*
Y339536D01*
X502393Y340536D01*
X500394D01*
X499394Y339536D01*
Y336537D01*
Y338536D02*
X497395Y340536D01*
X503393Y346534D02*
X502393Y344534D01*
X500394Y342535D01*
X498394D01*
X497395Y343535D01*
Y345534D01*
X498394Y346534D01*
X499394D01*
X500394Y345534D01*
Y342535D01*
X476849Y326725D02*
Y332723D01*
X473850D01*
X472850Y331724D01*
Y329724D01*
X473850Y328725D01*
X476849D01*
X474849D02*
X472850Y326725D01*
X466852Y332723D02*
X470851D01*
Y329724D01*
X468851Y330724D01*
X467852D01*
X466852Y329724D01*
Y327725D01*
X467852Y326725D01*
X469851D01*
X470851Y327725D01*
X397979Y396731D02*
X391981D01*
Y393732D01*
X392981Y392732D01*
X394980D01*
X395980Y393732D01*
Y396731D01*
Y394731D02*
X397979Y392732D01*
Y387734D02*
X391981D01*
X394980Y390733D01*
Y386734D01*
X455164Y340924D02*
X449166D01*
Y337925D01*
X450166Y336925D01*
X452165D01*
X453165Y337925D01*
Y340924D01*
Y338924D02*
X455164Y336925D01*
X450166Y334926D02*
X449166Y333926D01*
Y331926D01*
X450166Y330927D01*
X451166D01*
X452165Y331926D01*
Y332926D01*
Y331926D01*
X453165Y330927D01*
X454165D01*
X455164Y331926D01*
Y333926D01*
X454165Y334926D01*
X489939Y326922D02*
Y332920D01*
X486940D01*
X485941Y331921D01*
Y329921D01*
X486940Y328922D01*
X489939D01*
X487940D02*
X485941Y326922D01*
X479943D02*
X483941D01*
X479943Y330921D01*
Y331921D01*
X480942Y332920D01*
X482942D01*
X483941Y331921D01*
X469969Y394183D02*
X471968D01*
X470968D01*
Y389185D01*
X471968Y388185D01*
X472967D01*
X473967Y389185D01*
X467969Y388185D02*
X465970D01*
X466969D01*
Y394183D01*
X467969Y393183D01*
X486910Y365846D02*
Y368995D01*
X489272D01*
Y367421D01*
Y368995D01*
X491633D01*
Y361123D02*
Y364272D01*
X488484Y361123D01*
X487697D01*
X486910Y361911D01*
Y363485D01*
X487697Y364272D01*
X451968Y357034D02*
X455967D01*
Y354035D01*
X453968D01*
X455967D01*
Y351036D01*
X449969D02*
X447970D01*
X448970D01*
Y357034D01*
X449969Y356035D01*
X511041Y52212D02*
Y46214D01*
X508042D01*
X507042Y47213D01*
Y51212D01*
X508042Y52212D01*
X511041D01*
X505043Y46214D02*
X503044D01*
X504043D01*
Y52212D01*
X505043Y51212D01*
X496046Y52212D02*
X498045Y51212D01*
X500044Y49213D01*
Y47213D01*
X499045Y46214D01*
X497045D01*
X496046Y47213D01*
Y48213D01*
X497045Y49213D01*
X500044D01*
X436631Y51818D02*
Y45820D01*
X433632D01*
X432633Y46819D01*
Y50818D01*
X433632Y51818D01*
X436631D01*
X430633Y45820D02*
X428634D01*
X429634D01*
Y51818D01*
X430633Y50818D01*
X421636Y51818D02*
X425635D01*
Y48819D01*
X423636Y49819D01*
X422636D01*
X421636Y48819D01*
Y46819D01*
X422636Y45820D01*
X424635D01*
X425635Y46819D01*
X361041Y51818D02*
Y45820D01*
X358042D01*
X357042Y46819D01*
Y50818D01*
X358042Y51818D01*
X361041D01*
X355043Y45820D02*
X353044D01*
X354043D01*
Y51818D01*
X355043Y50818D01*
X347045Y45820D02*
Y51818D01*
X350044Y48819D01*
X346046D01*
X286238Y51818D02*
Y45820D01*
X283239D01*
X282239Y46819D01*
Y50818D01*
X283239Y51818D01*
X286238D01*
X280240Y45820D02*
X278240D01*
X279240D01*
Y51818D01*
X280240Y50818D01*
X275241D02*
X274242Y51818D01*
X272242D01*
X271243Y50818D01*
Y49819D01*
X272242Y48819D01*
X273242D01*
X272242D01*
X271243Y47819D01*
Y46819D01*
X272242Y45820D01*
X274242D01*
X275241Y46819D01*
X511041Y126227D02*
Y120229D01*
X508042D01*
X507042Y121229D01*
Y125228D01*
X508042Y126227D01*
X511041D01*
X505043Y120229D02*
X503044D01*
X504043D01*
Y126227D01*
X505043Y125228D01*
X496046Y120229D02*
X500044D01*
X496046Y124228D01*
Y125228D01*
X497045Y126227D01*
X499045D01*
X500044Y125228D01*
X434844Y126621D02*
Y120623D01*
X431845D01*
X430846Y121623D01*
Y125621D01*
X431845Y126621D01*
X434844D01*
X428846Y120623D02*
X426847D01*
X427847D01*
Y126621D01*
X428846Y125621D01*
X423848Y120623D02*
X421849D01*
X422848D01*
Y126621D01*
X423848Y125621D01*
X360647Y126621D02*
Y120623D01*
X357648D01*
X356648Y121623D01*
Y125621D01*
X357648Y126621D01*
X360647D01*
X354649Y120623D02*
X352650D01*
X353649D01*
Y126621D01*
X354649Y125621D01*
X349651D02*
X348651Y126621D01*
X346652D01*
X345652Y125621D01*
Y121623D01*
X346652Y120623D01*
X348651D01*
X349651Y121623D01*
Y125621D01*
X282164Y126621D02*
Y120623D01*
X279165D01*
X278165Y121623D01*
Y125621D01*
X279165Y126621D01*
X282164D01*
X276166Y121623D02*
X275166Y120623D01*
X273167D01*
X272167Y121623D01*
Y125621D01*
X273167Y126621D01*
X275166D01*
X276166Y125621D01*
Y124622D01*
X275166Y123622D01*
X272167D01*
X506967Y201818D02*
Y195820D01*
X503968D01*
X502968Y196820D01*
Y200818D01*
X503968Y201818D01*
X506967D01*
X500969Y200818D02*
X499969Y201818D01*
X497970D01*
X496970Y200818D01*
Y199819D01*
X497970Y198819D01*
X496970Y197819D01*
Y196820D01*
X497970Y195820D01*
X499969D01*
X500969Y196820D01*
Y197819D01*
X499969Y198819D01*
X500969Y199819D01*
Y200818D01*
X499969Y198819D02*
X497970D01*
X431376Y201818D02*
Y195820D01*
X428377D01*
X427378Y196820D01*
Y200818D01*
X428377Y201818D01*
X431376D01*
X425378D02*
X421380D01*
Y200818D01*
X425378Y196820D01*
Y195820D01*
X356573Y201818D02*
Y195820D01*
X353574D01*
X352574Y196820D01*
Y200818D01*
X353574Y201818D01*
X356573D01*
X346576D02*
X348576Y200818D01*
X350575Y198819D01*
Y196820D01*
X349575Y195820D01*
X347576D01*
X346576Y196820D01*
Y197819D01*
X347576Y198819D01*
X350575D01*
X281376Y201818D02*
Y195820D01*
X278377D01*
X277378Y196820D01*
Y200818D01*
X278377Y201818D01*
X281376D01*
X271380D02*
X275378D01*
Y198819D01*
X273379Y199819D01*
X272379D01*
X271380Y198819D01*
Y196820D01*
X272379Y195820D01*
X274379D01*
X275378Y196820D01*
X505786Y277015D02*
Y271017D01*
X502787D01*
X501787Y272016D01*
Y276015D01*
X502787Y277015D01*
X505786D01*
X496789Y271017D02*
Y277015D01*
X499788Y274016D01*
X495789D01*
X430983Y276621D02*
Y270623D01*
X427984D01*
X426984Y271623D01*
Y275621D01*
X427984Y276621D01*
X430983D01*
X424985Y275621D02*
X423985Y276621D01*
X421985D01*
X420986Y275621D01*
Y274622D01*
X421985Y273622D01*
X422985D01*
X421985D01*
X420986Y272622D01*
Y271623D01*
X421985Y270623D01*
X423985D01*
X424985Y271623D01*
X355786Y276621D02*
Y270623D01*
X352787D01*
X351787Y271623D01*
Y275621D01*
X352787Y276621D01*
X355786D01*
X345789Y270623D02*
X349788D01*
X345789Y274622D01*
Y275621D01*
X346789Y276621D01*
X348788D01*
X349788Y275621D01*
X279589Y276621D02*
Y270623D01*
X276590D01*
X275590Y271623D01*
Y275621D01*
X276590Y276621D01*
X279589D01*
X273591Y270623D02*
X271592D01*
X272591D01*
Y276621D01*
X273591Y275621D01*
X500212Y370208D02*
X501212Y371208D01*
X503211D01*
X504211Y370208D01*
Y366209D01*
X503211Y365210D01*
X501212D01*
X500212Y366209D01*
X498213D02*
X497213Y365210D01*
X495214D01*
X494214Y366209D01*
Y370208D01*
X495214Y371208D01*
X497213D01*
X498213Y370208D01*
Y369208D01*
X497213Y368209D01*
X494214D01*
X441701Y373698D02*
X442701Y374698D01*
X444700D01*
X445700Y373698D01*
Y369700D01*
X444700Y368700D01*
X442701D01*
X441701Y369700D01*
X439702Y373698D02*
X438702Y374698D01*
X436703D01*
X435703Y373698D01*
Y372699D01*
X436703Y371699D01*
X435703Y370699D01*
Y369700D01*
X436703Y368700D01*
X438702D01*
X439702Y369700D01*
Y370699D01*
X438702Y371699D01*
X439702Y372699D01*
Y373698D01*
X438702Y371699D02*
X436703D01*
X262272Y371767D02*
X261273Y372767D01*
Y374766D01*
X262272Y375766D01*
X266271D01*
X267271Y374766D01*
Y372767D01*
X266271Y371767D01*
X261273Y369768D02*
Y365769D01*
X262272D01*
X266271Y369768D01*
X267271D01*
X387567Y380904D02*
X386568Y381904D01*
Y383903D01*
X387567Y384903D01*
X391566D01*
X392566Y383903D01*
Y381904D01*
X391566Y380904D01*
X386568Y374906D02*
Y378905D01*
X389567D01*
X388567Y376905D01*
Y375906D01*
X389567Y374906D01*
X391566D01*
X392566Y375906D01*
Y377905D01*
X391566Y378905D01*
X383283Y327885D02*
X384283Y328885D01*
X386282D01*
X387282Y327885D01*
Y323886D01*
X386282Y322887D01*
X384283D01*
X383283Y323886D01*
X378285Y322887D02*
Y328885D01*
X381284Y325886D01*
X377285D01*
X282889Y362629D02*
X283889Y363629D01*
X285889D01*
X286888Y362629D01*
Y358631D01*
X285889Y357631D01*
X283889D01*
X282889Y358631D01*
X276891Y357631D02*
X280890D01*
X276891Y361630D01*
Y362629D01*
X277891Y363629D01*
X279890D01*
X280890Y362629D01*
X281890Y371291D02*
X282889Y372290D01*
X284889D01*
X285889Y371291D01*
Y367292D01*
X284889Y366292D01*
X282889D01*
X281890Y367292D01*
X279890Y366292D02*
X277891D01*
X278891D01*
Y372290D01*
X279890Y371291D01*
M02*
