G04*
G04 #@! TF.GenerationSoftware,Altium Limited,Altium Designer,22.4.2 (48)*
G04*
G04 Layer_Color=16711935*
%FSLAX25Y25*%
%MOIN*%
G70*
G04*
G04 #@! TF.SameCoordinates,D4448EEE-889B-48FB-A541-E9576EB43F8F*
G04*
G04*
G04 #@! TF.FilePolarity,Negative*
G04*
G01*
G75*
%ADD16R,0.05630X0.03268*%
%ADD17R,0.05630X0.04055*%
%ADD18R,0.04055X0.05630*%
%ADD19C,0.09370*%
%ADD20C,0.07205*%
%ADD21C,0.16212*%
%ADD22C,0.03032*%
%ADD23C,0.06087*%
%ADD24R,0.06087X0.06087*%
%ADD25C,0.05512*%
%ADD48R,0.09095X0.08386*%
%ADD49R,0.01693X0.05039*%
%ADD50R,0.02874X0.05039*%
G04:AMPARAMS|DCode=51|XSize=62.99mil|YSize=26.77mil|CornerRadius=5.27mil|HoleSize=0mil|Usage=FLASHONLY|Rotation=0.000|XOffset=0mil|YOffset=0mil|HoleType=Round|Shape=RoundedRectangle|*
%AMROUNDEDRECTD51*
21,1,0.06299,0.01624,0,0,0.0*
21,1,0.05246,0.02677,0,0,0.0*
1,1,0.01053,0.02623,-0.00812*
1,1,0.01053,-0.02623,-0.00812*
1,1,0.01053,-0.02623,0.00812*
1,1,0.01053,0.02623,0.00812*
%
%ADD51ROUNDEDRECTD51*%
G04:AMPARAMS|DCode=52|XSize=62.99mil|YSize=26.77mil|CornerRadius=5.27mil|HoleSize=0mil|Usage=FLASHONLY|Rotation=90.000|XOffset=0mil|YOffset=0mil|HoleType=Round|Shape=RoundedRectangle|*
%AMROUNDEDRECTD52*
21,1,0.06299,0.01624,0,0,90.0*
21,1,0.05246,0.02677,0,0,90.0*
1,1,0.01053,0.00812,0.02623*
1,1,0.01053,0.00812,-0.02623*
1,1,0.01053,-0.00812,-0.02623*
1,1,0.01053,-0.00812,0.02623*
%
%ADD52ROUNDEDRECTD52*%
%ADD53R,0.03268X0.05630*%
%ADD54R,0.04095X0.05315*%
%ADD55R,0.06811X0.06024*%
%ADD56R,0.06024X0.05236*%
%ADD57R,0.04449X0.03071*%
D16*
X471654Y337402D02*
D03*
Y344882D02*
D03*
X481676Y337402D02*
D03*
Y344882D02*
D03*
X461417Y337402D02*
D03*
Y344882D02*
D03*
X491339Y337795D02*
D03*
Y345276D02*
D03*
D17*
X498032Y352576D02*
D03*
Y360056D02*
D03*
X272835Y367717D02*
D03*
Y375197D02*
D03*
X381496Y383054D02*
D03*
Y375574D02*
D03*
Y334252D02*
D03*
Y341732D02*
D03*
D18*
X435827Y361811D02*
D03*
X443307D02*
D03*
X291732Y360810D02*
D03*
X299213D02*
D03*
X291732Y369685D02*
D03*
X299213D02*
D03*
D19*
X242874Y305276D02*
D03*
X267756Y315276D02*
D03*
X342756D02*
D03*
X317874Y305276D02*
D03*
X392874D02*
D03*
X417756Y315276D02*
D03*
X492756D02*
D03*
X467874Y305276D02*
D03*
X242874Y230276D02*
D03*
X267756Y240276D02*
D03*
X342756D02*
D03*
X317874Y230276D02*
D03*
X392874D02*
D03*
X417756Y240276D02*
D03*
X492756D02*
D03*
X467874Y230276D02*
D03*
X242874Y155276D02*
D03*
X267756Y165276D02*
D03*
X342756D02*
D03*
X317874Y155276D02*
D03*
X392874D02*
D03*
X417756Y165276D02*
D03*
X492756D02*
D03*
X467874Y155276D02*
D03*
X242874Y80276D02*
D03*
X267756Y90276D02*
D03*
X342756D02*
D03*
X317874Y80276D02*
D03*
X392874D02*
D03*
X417756Y90276D02*
D03*
X492756D02*
D03*
X467874Y80276D02*
D03*
D20*
X277559Y295276D02*
D03*
X238189D02*
D03*
X313189D02*
D03*
X352559D02*
D03*
X427559D02*
D03*
X388189D02*
D03*
X463189D02*
D03*
X502559D02*
D03*
X277559Y220276D02*
D03*
X238189D02*
D03*
X313189D02*
D03*
X352559D02*
D03*
X427559D02*
D03*
X388189D02*
D03*
X463189D02*
D03*
X502559D02*
D03*
X277559Y145276D02*
D03*
X238189D02*
D03*
X313189D02*
D03*
X352559D02*
D03*
X427559D02*
D03*
X388189D02*
D03*
X463189D02*
D03*
X502559D02*
D03*
X277559Y70276D02*
D03*
X238189D02*
D03*
X313189D02*
D03*
X352559D02*
D03*
X427559D02*
D03*
X388189D02*
D03*
X463189D02*
D03*
X502559D02*
D03*
D21*
X257874Y295276D02*
D03*
X332874D02*
D03*
X407874D02*
D03*
X482874D02*
D03*
X257874Y220276D02*
D03*
X332874D02*
D03*
X407874D02*
D03*
X482874D02*
D03*
X257874Y145276D02*
D03*
X332874D02*
D03*
X407874D02*
D03*
X482874D02*
D03*
X257874Y70276D02*
D03*
X332874D02*
D03*
X407874D02*
D03*
X482874D02*
D03*
D22*
X481713Y381279D02*
D03*
X458957D02*
D03*
D23*
X244882Y377165D02*
D03*
D24*
Y387165D02*
D03*
D25*
X381398Y361910D02*
D03*
X363681Y378937D02*
D03*
X382382Y348425D02*
D03*
X362303Y354921D02*
D03*
X237697Y323917D02*
D03*
X292421Y323228D02*
D03*
X386122Y316634D02*
D03*
X400787Y393307D02*
D03*
X393307Y368898D02*
D03*
Y358661D02*
D03*
X409293Y342126D02*
D03*
X272441Y360236D02*
D03*
X377559Y61811D02*
D03*
X394094Y348819D02*
D03*
X368522Y135809D02*
D03*
X363779Y208268D02*
D03*
X357480Y287008D02*
D03*
X360236Y344882D02*
D03*
X326772Y339764D02*
D03*
X243307Y314961D02*
D03*
X451575Y346850D02*
D03*
X489370Y354724D02*
D03*
X290551Y339370D02*
D03*
X320472Y348819D02*
D03*
X319685Y356299D02*
D03*
X353937Y341339D02*
D03*
X346850Y340945D02*
D03*
X462598Y367323D02*
D03*
X471654Y351575D02*
D03*
D48*
X490453Y394783D02*
D03*
X450216D02*
D03*
X490453Y379311D02*
D03*
X450216D02*
D03*
D49*
X471319Y376358D02*
D03*
X469350D02*
D03*
X473287D02*
D03*
X467382D02*
D03*
X475256D02*
D03*
X465413D02*
D03*
X477224D02*
D03*
X463445D02*
D03*
D50*
X482933D02*
D03*
X479783D02*
D03*
X460886D02*
D03*
X457736D02*
D03*
D51*
X311991Y338976D02*
D03*
Y342126D02*
D03*
Y345276D02*
D03*
Y348425D02*
D03*
Y351575D02*
D03*
Y354724D02*
D03*
Y357874D02*
D03*
Y361024D02*
D03*
Y364173D02*
D03*
Y367323D02*
D03*
Y370472D02*
D03*
Y373622D02*
D03*
Y376772D02*
D03*
Y379921D02*
D03*
Y383071D02*
D03*
Y386221D02*
D03*
X372385D02*
D03*
Y383071D02*
D03*
Y379921D02*
D03*
Y376772D02*
D03*
Y373622D02*
D03*
Y370472D02*
D03*
Y367323D02*
D03*
Y364173D02*
D03*
Y361024D02*
D03*
Y357874D02*
D03*
Y354724D02*
D03*
Y351575D02*
D03*
Y348425D02*
D03*
Y345276D02*
D03*
Y342126D02*
D03*
Y338976D02*
D03*
D52*
X365810Y332402D02*
D03*
X362660D02*
D03*
X359511D02*
D03*
X356361D02*
D03*
X353212D02*
D03*
X350062D02*
D03*
X346912D02*
D03*
X343763D02*
D03*
X340613D02*
D03*
X337464D02*
D03*
X334314D02*
D03*
X331164D02*
D03*
X328015D02*
D03*
X324865D02*
D03*
X321716D02*
D03*
X318566D02*
D03*
Y392795D02*
D03*
X321716D02*
D03*
X324865D02*
D03*
X328015D02*
D03*
X331164D02*
D03*
X334314D02*
D03*
X337464D02*
D03*
X340613D02*
D03*
X343763D02*
D03*
X346912D02*
D03*
X350062D02*
D03*
X353212D02*
D03*
X356361D02*
D03*
X359511D02*
D03*
X362660D02*
D03*
X365810D02*
D03*
D53*
X254724Y362340D02*
D03*
X247244D02*
D03*
X380315Y391732D02*
D03*
X387795D02*
D03*
D54*
X326437Y273622D02*
D03*
X339311D02*
D03*
X489311Y48622D02*
D03*
X476437D02*
D03*
X414311D02*
D03*
X401437D02*
D03*
X339311D02*
D03*
X326437D02*
D03*
X264311D02*
D03*
X251437D02*
D03*
X489311Y123622D02*
D03*
X476437D02*
D03*
X414311D02*
D03*
X401437D02*
D03*
X339311D02*
D03*
X326437D02*
D03*
X264311D02*
D03*
X251437D02*
D03*
X489311Y198622D02*
D03*
X476437D02*
D03*
X414311D02*
D03*
X401437D02*
D03*
X339311D02*
D03*
X326437D02*
D03*
X264311D02*
D03*
X251437D02*
D03*
X264311Y273622D02*
D03*
X251437D02*
D03*
X489311D02*
D03*
X476437D02*
D03*
X414311D02*
D03*
X401437D02*
D03*
D55*
X298031Y337402D02*
D03*
X269685D02*
D03*
X298031Y349213D02*
D03*
X269685D02*
D03*
D56*
X290551Y379528D02*
D03*
X299213D02*
D03*
X290551Y388189D02*
D03*
X299213D02*
D03*
D57*
X481496Y367717D02*
D03*
Y361614D02*
D03*
X451968Y367323D02*
D03*
Y361221D02*
D03*
M02*
