G04*
G04 #@! TF.GenerationSoftware,Altium Limited,Altium Designer,22.4.2 (48)*
G04*
G04 Layer_Color=8388736*
%FSLAX25Y25*%
%MOIN*%
G70*
G04*
G04 #@! TF.SameCoordinates,D4448EEE-889B-48FB-A541-E9576EB43F8F*
G04*
G04*
G04 #@! TF.FilePolarity,Negative*
G04*
G01*
G75*
%ADD16R,0.05630X0.03268*%
%ADD17R,0.05630X0.04055*%
%ADD18R,0.04055X0.05630*%
%ADD19C,0.09370*%
%ADD20C,0.07205*%
%ADD21C,0.16212*%
%ADD22C,0.03032*%
%ADD23C,0.06087*%
%ADD24R,0.06087X0.06087*%
%ADD25C,0.05512*%
D16*
X283071Y340945D02*
D03*
Y348425D02*
D03*
D17*
X330048Y349733D02*
D03*
Y357213D02*
D03*
D18*
X346063Y350000D02*
D03*
X353543D02*
D03*
D19*
X242874Y305276D02*
D03*
X267756Y315276D02*
D03*
X342756D02*
D03*
X317874Y305276D02*
D03*
X392874D02*
D03*
X417756Y315276D02*
D03*
X492756D02*
D03*
X467874Y305276D02*
D03*
X242874Y230276D02*
D03*
X267756Y240276D02*
D03*
X342756D02*
D03*
X317874Y230276D02*
D03*
X392874D02*
D03*
X417756Y240276D02*
D03*
X492756D02*
D03*
X467874Y230276D02*
D03*
X242874Y155276D02*
D03*
X267756Y165276D02*
D03*
X342756D02*
D03*
X317874Y155276D02*
D03*
X392874D02*
D03*
X417756Y165276D02*
D03*
X492756D02*
D03*
X467874Y155276D02*
D03*
X242874Y80276D02*
D03*
X267756Y90276D02*
D03*
X342756D02*
D03*
X317874Y80276D02*
D03*
X392874D02*
D03*
X417756Y90276D02*
D03*
X492756D02*
D03*
X467874Y80276D02*
D03*
D20*
X277559Y295276D02*
D03*
X238189D02*
D03*
X313189D02*
D03*
X352559D02*
D03*
X427559D02*
D03*
X388189D02*
D03*
X463189D02*
D03*
X502559D02*
D03*
X277559Y220276D02*
D03*
X238189D02*
D03*
X313189D02*
D03*
X352559D02*
D03*
X427559D02*
D03*
X388189D02*
D03*
X463189D02*
D03*
X502559D02*
D03*
X277559Y145276D02*
D03*
X238189D02*
D03*
X313189D02*
D03*
X352559D02*
D03*
X427559D02*
D03*
X388189D02*
D03*
X463189D02*
D03*
X502559D02*
D03*
X277559Y70276D02*
D03*
X238189D02*
D03*
X313189D02*
D03*
X352559D02*
D03*
X427559D02*
D03*
X388189D02*
D03*
X463189D02*
D03*
X502559D02*
D03*
D21*
X257874Y295276D02*
D03*
X332874D02*
D03*
X407874D02*
D03*
X482874D02*
D03*
X257874Y220276D02*
D03*
X332874D02*
D03*
X407874D02*
D03*
X482874D02*
D03*
X257874Y145276D02*
D03*
X332874D02*
D03*
X407874D02*
D03*
X482874D02*
D03*
X257874Y70276D02*
D03*
X332874D02*
D03*
X407874D02*
D03*
X482874D02*
D03*
D22*
X481713Y381279D02*
D03*
X458957D02*
D03*
D23*
X244882Y377165D02*
D03*
D24*
Y387165D02*
D03*
D25*
X381398Y361910D02*
D03*
X363681Y378937D02*
D03*
X382382Y348425D02*
D03*
X362303Y354921D02*
D03*
X237697Y323917D02*
D03*
X292421Y323228D02*
D03*
X386122Y316634D02*
D03*
X400787Y393307D02*
D03*
X393307Y368898D02*
D03*
Y358661D02*
D03*
X409293Y342126D02*
D03*
X272441Y360236D02*
D03*
X377559Y61811D02*
D03*
X394094Y348819D02*
D03*
X368522Y135809D02*
D03*
X363779Y208268D02*
D03*
X357480Y287008D02*
D03*
X360236Y344882D02*
D03*
X326772Y339764D02*
D03*
X243307Y314961D02*
D03*
X451575Y346850D02*
D03*
X489370Y354724D02*
D03*
X290551Y339370D02*
D03*
X320472Y348819D02*
D03*
X319685Y356299D02*
D03*
X353937Y341339D02*
D03*
X346850Y340945D02*
D03*
X462598Y367323D02*
D03*
X471654Y351575D02*
D03*
M02*
