M48
;Layer_Color=9474304
;FILE_FORMAT=4:2
METRIC,LZ
;TYPE=NON_PLATED
T4F00S00C0.65
T5F00S00C1.70
T6F00S00C3.99
%
T04
X011657Y009685
X012236
T05
X00986Y001785
X01086
X011765
X012765
Y00369
X011765
X01086
X00986
X008955
X007955
X00705
X00605
Y001785
X00705
X007955
X008955
Y005595
X007955
X00705
X00605
Y0075
X00705
X007955
X008955
X00986
X01086
X011765
X012765
Y005595
X011765
X01086
X00986
T06
X01036Y001785
Y00369
X012265
Y001785
X008455
Y00369
X00655
Y001785
Y005595
Y0075
X008455
Y005595
X01036
Y0075
X012265
Y005595
M30
