M48
;Layer_Color=9474304
;FILE_FORMAT=4:2
METRIC,LZ
;TYPE=PLATED
T1F00S00C0.71
T2F00S00C0.91
T3F00S00C1.50
%
T01
X00959Y00157
X00936Y00345
X00924Y00529
X00908Y00729
X00899Y00867
X00881Y00866
X00915Y00876
X009203Y009015
X00812Y00905
X00814Y00886
X0083Y00863
X00738Y00862
X007428Y00821
X006038Y008228
X00618Y008
X00692Y00915
X009688Y009193
X009712Y00885
X01001Y00886
X00999Y00911
X010396Y00869
X01147Y00881
X01198Y00893
X01243Y00901
X01175Y00933
X009807Y008043
X00999Y00937
X01018Y00999
X009238Y009625
T02
X00622Y00958
Y009834
T03
X009979Y002039
X010611Y002293
X011884Y002039
X012516Y002293
Y004198
X011884Y003944
X010611Y004198
X009979Y003944
X008706Y004198
X008074Y003944
X006801Y004198
X006169Y003944
Y002039
X006801Y002293
X008074Y002039
X008706Y002293
Y006103
X008074Y005849
X006801Y006103
X006169Y005849
Y007754
X006801Y008008
X008074Y007754
X008706Y008008
X009979Y007754
X010611Y008008
X011884Y007754
X012516Y008008
Y006103
X011884Y005849
X010611Y006103
X009979Y005849
M30
